<svg width="64" height="40" viewBox="0 0 64 40" fill="none" xmlns="http://www.w3.org/2000/svg">
<path d="M63.8131 18.7965L53.3777 0.721147C53.1232 0.275732 52.6438 0 52.1305 0H31.2512C30.7379 0 30.2585 0.275732 30.004 0.721147L21.0363 16.2555C20.8963 16.5016 20.5867 16.6288 20.3152 16.5525C20.0352 16.4761 19.8401 16.2216 19.8401 15.9331V9.92215C19.8401 4.45415 15.3902 0.00424296 9.92215 0.00424296H1.4423C0.649034 0.00424296 0 0.649032 0 1.44654V9.92639C0 13.88 2.35434 17.4179 6.0025 18.9365C6.24005 19.0341 6.39701 19.2674 6.39701 19.5262C6.39701 19.7849 6.24005 20.0182 6.0025 20.1158C2.35434 21.6217 0 25.1554 0 29.1132V37.593C0 38.3863 0.644792 39.0353 1.4423 39.0353H9.92215C15.3902 39.0353 19.8401 34.5854 19.8401 29.1174V23.1064C19.8401 22.818 20.0352 22.5635 20.3152 22.4871C20.5867 22.415 20.8963 22.538 21.0363 22.784L30.004 38.3184C30.2628 38.7638 30.7379 39.0396 31.2512 39.0396H52.1263C52.6396 39.0396 53.1189 38.7638 53.3735 38.3184L63.8089 20.2431C63.9362 20.0225 63.9998 19.7764 63.9998 19.5262C64.004 19.2674 63.9404 19.0171 63.8131 18.7965ZM41.8478 27.0982C37.7755 27.0982 34.4624 23.6961 34.4624 19.5177C34.4624 15.3392 37.7755 11.9371 41.8478 11.9371C45.9202 11.9371 49.2332 15.3392 49.2332 19.5177C49.2332 23.6961 45.9202 27.0982 41.8478 27.0982Z" fill="#1D0070"/>
</svg>
