<svg width="32" height="20" viewBox="0 0 32 20" fill="none" xmlns="http://www.w3.org/2000/svg">
<path d="M31.9066 9.39826L26.6889 0.360574C26.5616 0.137866 26.3219 0 26.0653 0H15.6256C15.3689 0 15.1293 0.137866 15.002 0.360574L10.5182 8.12776C10.4482 8.25078 10.2933 8.31442 10.1576 8.27624C10.0176 8.23806 9.92003 8.1108 9.92003 7.96657V4.96108C9.92003 2.22708 7.69508 0.00212148 4.96108 0.00212148H0.721148C0.324517 0.00212148 0 0.324516 0 0.723269V4.9632C0 6.93999 1.17717 8.70893 3.00125 9.46825C3.12003 9.51704 3.19851 9.63369 3.19851 9.76308C3.19851 9.89246 3.12003 10.0091 3.00125 10.0579C1.17717 10.8109 0 12.5777 0 14.5566V18.7965C0 19.1932 0.322396 19.5177 0.721148 19.5177H4.96108C7.69508 19.5177 9.92003 17.2927 9.92003 14.5587V11.5532C9.92003 11.409 10.0176 11.2817 10.1576 11.2436C10.2933 11.2075 10.4482 11.269 10.5182 11.392L15.002 19.1592C15.1314 19.3819 15.3689 19.5198 15.6256 19.5198H26.0632C26.3198 19.5198 26.5595 19.3819 26.6867 19.1592L31.9045 10.1215C31.9681 10.0112 31.9999 9.88822 31.9999 9.76308C32.002 9.63369 31.9702 9.50855 31.9066 9.39826ZM20.9239 13.5491C18.8877 13.5491 17.2312 11.848 17.2312 9.75883C17.2312 7.66962 18.8877 5.96856 20.9239 5.96856C22.9601 5.96856 24.6166 7.66962 24.6166 9.75883C24.6166 11.848 22.9601 13.5491 20.9239 13.5491Z" fill="white"/>
</svg>
