<?xml version="1.0" encoding="utf-8"?>
<!-- Generator: Adobe Illustrator 26.2.1, SVG Export Plug-In . SVG Version: 6.00 Build 0)  -->
<svg version="1.1" id="Layer_1" xmlns="http://www.w3.org/2000/svg" xmlns:xlink="http://www.w3.org/1999/xlink" x="0px" y="0px"
	 viewBox="0 0 640 512" style="enable-background:new 0 0 640 512;" xml:space="preserve">
<style type="text/css">
	.st0{fill:#FFFFFF;}
</style>
<path class="st0" d="M223.8,176c0,26.5-21.5,48-48,48s-48-21.5-48-48s21.5-48,48-48S223.8,149.5,223.8,176z M96,309.3
	c0-29.4,23.9-53.3,53.3-53.3h69.4c9.1,0,17.8,2.3,25.3,6.4c-32.4,11.9-57.2,39.5-65.2,73.6h-56.1C107.9,336,96,324.1,96,309.3
	L96,309.3z M395.1,262.4c8.4-4.1,17.1-6.4,26.2-6.4h69.4c29.4,0,53.3,23.9,53.3,53.3c0,14.8-11.9,26.7-26.7,26.7h-56.1
	C453.2,301.9,428.4,274.3,395.1,262.4L395.1,262.4z M372,288.1c26,5.3,47.3,23.6,55.9,47.9c2.7,7.5,4.1,15.6,4.1,24
	c0,13.3-10.7,24-24,24H232c-13.3,0-24-10.7-24-24c0-8.4,1.4-16.5,4.1-24c8.6-24.3,29-42.6,55-47.9c4.8,0.2,8.8-0.1,12.9-0.1h80
	C364.1,288,368.1,288.3,372,288.1L372,288.1z M512,176c0,26.5-21.5,48-48,48s-48-21.5-48-48s21.5-48,48-48S512,149.5,512,176z
	 M256,192c0-35.3,28.7-64,64-64s64,28.7,64,64s-28.7,64-64,64S256,227.3,256,192z M544,0c53,0,96,43,96,96v320c0,53-43,96-96,96H96
	c-53,0-96-43-96-96V96C0,43,43,0,96,0H544z M64,416c0,17.7,14.3,32,32,32h448c17.7,0,32-14.3,32-32V96c0-17.7-14.3-32-32-32H96
	c-17.7,0-32,14.3-32,32V416z"/>
</svg>
