<?xml version="1.0" encoding="utf-8"?>
<!-- Generator: Adobe Illustrator 27.1.1, SVG Export Plug-In . SVG Version: 6.00 Build 0)  -->
<svg version="1.1" id="Layer_1" xmlns="http://www.w3.org/2000/svg" xmlns:xlink="http://www.w3.org/1999/xlink" x="0px" y="0px"
	 viewBox="0 0 448 512" style="enable-background:new 0 0 448 512;" xml:space="preserve">
<style type="text/css">
	.st0{fill:#1EC498;}
</style>
<path class="st0" d="M249.1,80V94c57,9,100.6,58.4,100.6,118v26.2c0,35.7,12.2,70.3,34.4,98.2l11.7,14.6c4.6,5.7,5.4,13.4,2.3,20
	c-3.1,6.5-9.7,10.7-17,10.7H66.8c-7.3,0-13.9-4.2-17-10.7c-3.1-6.5-2.3-14.3,2.3-20l11.7-14.6c22.3-27.9,34.4-62.5,34.4-98.2V212
	c0-59.6,43.6-108.9,100.6-118V80c0-13.9,11.2-25.1,25.1-25.1S249.1,66.1,249.1,80L249.1,80z M217.7,130.3
	c-45.1,0-81.7,36.6-81.7,81.7v26.2c0,37.6-10.9,74.3-31.2,105.8h238.4c-20.3-31.4-31.2-68.1-31.2-105.8V212
	c0-45.1-36.6-81.7-81.7-81.7H217.7z M274.3,406.9c0,12.7-5.3,26.2-14.7,35.6c-9.4,9.4-22.9,14.7-35.6,14.7
	c-13.4,0-26.2-5.3-35.6-14.7c-9.4-9.4-14.7-22.9-14.7-35.6H274.3z"/>
</svg>
