<?xml version="1.0" encoding="utf-8"?>
<!-- Generator: Adobe Illustrator 26.2.1, SVG Export Plug-In . SVG Version: 6.00 Build 0)  -->
<svg version="1.1" id="Layer_1" xmlns="http://www.w3.org/2000/svg" xmlns:xlink="http://www.w3.org/1999/xlink" x="0px" y="0px"
	 viewBox="0 0 576 512" style="enable-background:new 0 0 576 512;" xml:space="preserve">
<style type="text/css">
	.st0{fill:#FFFFFF;}
</style>
<path class="st0" d="M304,16.6c0-9,6.1-16.6,16-16.6c123.7,0,224,100.3,224,224c0,9-7.6,16-16.6,16H304V16.6z M32,272
	c0-121.3,90.1-221.7,206.1-237.8C248.2,33,256,40.4,256,49.6V288l156.5,156.5c6.7,6.7,6.2,17.7-1.5,23.2
	c-39.2,27.9-87.2,44.3-139,44.3C139.5,512,32,404.6,32,272z M558.4,288c9.2,0,16.6,7.8,15.4,17c-7.7,55.9-34.7,105.6-73.9,142.3
	c-6,4.8-15.4,5.2-21.2-0.6L320,288H558.4z"/>
</svg>
