<?xml version="1.0" encoding="utf-8"?>
<!-- Generator: Adobe Illustrator 27.2.0, SVG Export Plug-In . SVG Version: 6.00 Build 0)  -->
<svg version="1.1" id="Layer_1" xmlns="http://www.w3.org/2000/svg" xmlns:xlink="http://www.w3.org/1999/xlink" x="0px" y="0px"
	 viewBox="0 0 384 512" style="enable-background:new 0 0 384 512;" xml:space="preserve">
<style type="text/css">
	.st0{fill:url(#SVGID_1_);}
	.st1{fill:url(#SVGID_00000138568079389612337830000002779805997497931663_);}
	.st2{fill:url(#SVGID_00000065050504314451576250000005079849829272513947_);}
	.st3{fill:url(#SVGID_00000090281600238092661020000018265771399398489018_);}
	.st4{fill:url(#SVGID_00000087395443769416025030000015396162315707146881_);}
	.st5{fill:url(#SVGID_00000178198979468113609500000009751819342388918174_);}
</style>
<linearGradient id="SVGID_1_" gradientUnits="userSpaceOnUse" x1="256" y1="127.9998" x2="320" y2="63.9998">
	<stop  offset="0" style="stop-color:#54E280"/>
	<stop  offset="1" style="stop-color:#1EC498"/>
</linearGradient>
<polygon class="st0" points="256,0 256,128 384,128 "/>
<g>
	
		<linearGradient id="SVGID_00000181793566263849722060000009209378359228232383_" gradientUnits="userSpaceOnUse" x1="171.0097" y1="350.6704" x2="203.2979" y2="318.3822">
		<stop  offset="0" style="stop-color:#54E280"/>
		<stop  offset="1" style="stop-color:#1EC498"/>
	</linearGradient>
	<path style="fill:url(#SVGID_00000181793566263849722060000009209378359228232383_);" d="M169.6,349.2c19.6-6.5,45-11.4,45-12.3
		c-6.5-6.5-18.8-21.3-26.2-33.5C185.1,313.3,176.1,336.2,169.6,349.2z"/>
	
		<linearGradient id="SVGID_00000095339974860836196630000005600402311402598315_" gradientUnits="userSpaceOnUse" x1="67.3728" y1="431.1556" x2="118.9714" y2="379.5569">
		<stop  offset="0" style="stop-color:#54E280"/>
		<stop  offset="1" style="stop-color:#1EC498"/>
	</linearGradient>
	<path style="fill:url(#SVGID_00000095339974860836196630000005600402311402598315_);" d="M64.9,423.6c-0.8,3.3,0,5.7,2.5,7.4
		c1.6,0.8,3.3,1.6,4.9,1.6c10.6,0,30.2-19.6,49-50.7C88.6,396.6,67.4,412.2,64.9,423.6z"/>
	
		<linearGradient id="SVGID_00000031191986414025485820000010442045936292154516_" gradientUnits="userSpaceOnUse" x1="159.6879" y1="236.3571" x2="195.1338" y2="200.9111">
		<stop  offset="0" style="stop-color:#54E280"/>
		<stop  offset="1" style="stop-color:#1EC498"/>
	</linearGradient>
	<path style="fill:url(#SVGID_00000031191986414025485820000010442045936292154516_);" d="M186.7,202.9c0-7.4-1.6-16.3-9-16.3
		c-2.5,0-4.9,1.6-6.5,4.1c-4.1,7.4-6.5,30.2,5.7,62.9C182.7,237.3,185.9,220.1,186.7,202.9z"/>
	
		<linearGradient id="SVGID_00000078029722680100118330000017345975174294518460_" gradientUnits="userSpaceOnUse" x1="264.3882" y1="365.5773" x2="292.6905" y2="337.2749">
		<stop  offset="0" style="stop-color:#54E280"/>
		<stop  offset="1" style="stop-color:#1EC498"/>
	</linearGradient>
	<path style="fill:url(#SVGID_00000078029722680100118330000017345975174294518460_);" d="M296.3,345.1c-17.2-3.3-40.9-0.8-51.5,0.8
		c12.3,9.8,26.2,17.2,41.7,21.3c13.1,3.3,20.4-2.5,21.3-8.2h0C309.3,350.9,302.8,346.8,296.3,345.1z"/>
	
		<linearGradient id="SVGID_00000167389567109413401770000014851028971983660177_" gradientUnits="userSpaceOnUse" x1="-13.2375" y1="461.2373" x2="336" y2="111.9998">
		<stop  offset="0" style="stop-color:#54E280"/>
		<stop  offset="1" style="stop-color:#1EC498"/>
	</linearGradient>
	<path style="fill:url(#SVGID_00000167389567109413401770000014851028971983660177_);" d="M256,160c-17.7,0-32-14.3-32-32V0H64
		C28.7,0,0,28.7,0,64v384c0,35.3,28.7,64,64,64h256c35.3,0,64-28.7,64-64V160H256z M332.2,368.9c-2.5,7.4-9.8,15.5-29.4,15.5
		c-14.7,0-42.5-4.1-74.4-31.9c-27,4.9-53.9,13.1-71.1,18.8c-20.4,35.2-49.9,76.8-80.1,76.8c-7.4,0-14.7-2.5-20.4-7.4
		c-5.7-5.7-8.2-13.1-6.5-20.4c4.1-24.5,53.9-47.4,77.7-57.2c22.9-43.3,31.1-67.8,40.1-93.2c-15.5-35.1-19.6-69.5-9.8-86.6
		c4.1-6.5,11.4-11.4,19.6-11.4c22.9,0,31.1,22.1,31.1,42.5c-0.8,23.7-5.7,45.8-13.1,67.8c4.9,8.2,18.8,31.9,39.2,51.5
		c13.9-1.6,71.9-10.6,93.2,11.4h0C333.9,351.7,336.3,360.7,332.2,368.9z"/>
</g>
</svg>
