<?xml version="1.0" encoding="utf-8"?>
<!-- Generator: Adobe Illustrator 26.1.0, SVG Export Plug-In . SVG Version: 6.00 Build 0)  -->
<svg version="1.1" id="Layer_1" xmlns="http://www.w3.org/2000/svg" xmlns:xlink="http://www.w3.org/1999/xlink" x="0px" y="0px"
	 viewBox="0 0 512 512" style="enable-background:new 0 0 512 512;" xml:space="preserve">
<style type="text/css">
	.st0{fill:#FFFFFF;}
</style>
<path class="st0" d="M256,0C114.6,0,0,114.6,0,256s114.6,256,256,256s256-114.6,256-256S397.4,0,256,0z M256,400c-18,0-32-14-32-32
	s13.1-32,32-32c17.1,0,32,14,32,32S273.1,400,256,400z M325.1,258L280,286v2c0,13-11,24-24,24s-24-11-24-24v-16c0-8,4-16,12-21
	l57-34c7-4,11-11,11-19c0-12-10.9-22-22.9-22H238c-12.9,0-22,10-22,22c0,13-11,24-24,24s-24-11-24-24c0-39,31-70,69.1-70h51.1
	c40.8,0,71.8,31,71.8,70C360,222,347,245,325.1,258z"/>
</svg>
