<?xml version="1.0" standalone="no"?><!DOCTYPE svg PUBLIC "-//W3C//DTD SVG 1.1//EN" "http://www.w3.org/Graphics/SVG/1.1/DTD/svg11.dtd"><svg t="1709778046774" class="icon" viewBox="0 0 1024 1024" version="1.1" xmlns="http://www.w3.org/2000/svg" p-id="7462" xmlns:xlink="http://www.w3.org/1999/xlink" width="200" height="200"><path d="M172.48576 236.450998C136.975206 271.874676 110.324493 311.941187 92.439616 356.650531 74.383834 401.273 65.011296 447.272653 64.065638 494.689368 63.206854 542.107506 70.772109 589.267867 86.937997 636.257327 102.92729 683.20121 127.60409 726.449344 160.706355 766.041606 162.597664 768.791699 164.316653 771.201414 165.866163 773.262208 167.586573 775.369997 169.476467 777.563238 171.711008 779.840506L291.222662 899.312282C299.047117 907.135309 308.161882 913.454406 318.564102 918.269568 328.882304 923.084723 339.374253 926.13817 350.292032 927.253306 361.038906 928.415437 371.698912 927.683405 382.017107 925.191091 392.335306 922.653197 401.018543 917.924915 407.897342 911.004813 414.863016 904.126016 419.676751 895.613677 422.426847 885.426502 425.178366 875.364659 425.866246 865.003738 424.490486 854.429184 423.114726 843.81191 420.10543 833.449562 415.549472 823.34784 410.906639 813.204813 404.71572 804.260954 396.891264 796.436493L289.160442 690.081434C264.742842 665.662413 246.25696 638.234091 233.61735 607.624148 220.892282 576.974328 214.185811 546.021158 213.238726 514.723335 212.293069 483.471086 217.451456 452.905293 228.802189 423.242431 240.066042 393.579569 257.433946 366.967306 280.904461 343.495363 303.003494 321.39918 327.851194 304.848761 355.362118 293.755808 383.048218 282.751154 411.76542 276.860737 441.428282 276.172858 471.091144 275.484977 500.323903 280.085085 529.041108 289.97318 557.843764 299.859852 584.669655 314.950484 609.517357 335.198079 610.463014 336.143735 610.893117 336.831615 610.893117 337.304444 610.893117 337.778696 611.408671 338.379701 612.268877 339.325358L722.066185 449.121242 667.468746 503.675956C659.731165 511.500412 656.979645 520.355974 659.558839 530.242646 662.138033 540.130741 674.432995 547.82702 696.530603 553.371361 702.549196 554.789846 712.350416 556.638434 726.278915 558.917125 740.036513 561.194392 756.200978 563.861885 774.944637 566.828456 793.51597 569.834904 813.205285 572.931076 833.925709 576.155424L894.627192 584.454132C907.094481 585.828468 918.013684 586.859575 927.471676 587.591605 936.929668 588.278061 944.839575 585.399789 951.286847 578.949668 956.876761 573.44663 959.626856 564.719243 959.971508 553.069434 960.14241 541.290025 959.541405 528.737286 958.251096 515.411215 956.876761 500.236556 954.984023 482.266228 952.748058 461.587106 950.342614 440.866683 947.934323 420.489487 945.44058 400.45552 942.946837 380.422977 940.712296 362.367197 938.819558 346.289608 937.015119 330.125142 935.552484 318.861287 934.692278 312.412591 931.510656 293.540756 924.116303 282.964781 912.681546 280.68609 901.159914 278.364673 890.498488 281.589021 880.86817 290.316408L825.669725 345.557578 715.788391 235.761694C713.55385 233.483003 710.887781 231.333912 707.878484 229.183398 704.954639 227.163908 702.030794 225.228445 699.279274 223.379857 659.729741 191.095076 616.652509 167.020704 570.138726 150.900388 523.70897 134.735923 476.765085 127.169244 429.304221 128.072175 381.930234 129.017832 336.016032 138.561276 291.564461 156.745231 247.202618 174.933459 207.479334 201.501573 172.48576 236.450998" fill="#DDDDDD" p-id="7463"></path></svg>