<?xml version="1.0" encoding="utf-8"?>
<!-- Generator: Adobe Illustrator 26.2.1, SVG Export Plug-In . SVG Version: 6.00 Build 0)  -->
<svg version="1.1" id="Layer_1" xmlns="http://www.w3.org/2000/svg" xmlns:xlink="http://www.w3.org/1999/xlink" x="0px" y="0px"
	 viewBox="0 0 576 512" style="enable-background:new 0 0 576 512;" xml:space="preserve">
<style type="text/css">
	.st0{fill:#FFFFFF;}
</style>
<path class="st0" d="M74.4,96c-17.7,0-32-14.3-32-32s14.3-32,32-32h427.2c17.7,0,32,14.3,32,32s-14.3,32-32,32H74.4z M265.4,137.4
	c12.5-12.5,32.7-12.5,45.2,0l96,96c12.5,12.5,12.5,32.7,0,45.2s-32.7,12.5-45.2,0L320,237.3V448c0,17.7-14.3,32-32,32
	c-17.7,0-32-14.3-32-32V237.3l-41.4,41.3c-12.5,12.5-32.8,12.5-45.3,0c-12.5-12.5-12.5-32.7,0-45.2L265.4,137.4z"/>
</svg>
