<?xml version="1.0" standalone="no"?><!DOCTYPE svg PUBLIC "-//W3C//DTD SVG 1.1//EN" "http://www.w3.org/Graphics/SVG/1.1/DTD/svg11.dtd"><svg t="1709778287404" class="icon" viewBox="0 0 1024 1024" version="1.1" xmlns="http://www.w3.org/2000/svg" p-id="14029" xmlns:xlink="http://www.w3.org/1999/xlink" width="200" height="200"><path d="M494.27282 5.359112a31.99852 31.99852 0 0 1 35.45436 0c77.692407 51.581614 144.761305 87.35596 200.950706 107.323036 55.805419 19.775085 122.042356 31.550541 198.774807 35.070378a31.99852 31.99852 0 0 1 30.526588 31.998521v197.558862c0 292.210485-175.863866 552.038468-437.291775 644.834177a31.99852 31.99852 0 0 1-21.375012 0C239.884585 929.348378 64.020719 669.520395 64.020719 377.309909V179.751047a31.99852 31.99852 0 0 1 30.526588-31.998521c76.732451-3.519837 142.969388-15.295293 198.774807-35.070378 56.189401-19.967077 123.258299-55.677425 200.950706-107.323036zM314.697125 172.96736c-54.397484 19.327106-116.602607 31.550541-186.679366 36.862295v167.480254c0 261.555903 154.488855 493.801162 383.982241 580.581149 229.493386-86.779986 383.982241-319.025245 383.982241-580.581149V209.829655c-70.076759-5.311754-132.345879-17.535189-186.679366-36.862295-57.213354-20.351059-122.874317-54.525478-197.302875-102.651252-74.364561 48.125774-140.089521 82.300194-197.302875 102.651252zM448.00296 672.016279a31.870526 31.870526 0 0 1-22.654952-9.343568l-127.994081-127.99408a31.99852 31.99852 0 1 1 45.309905-45.309904L448.00296 594.771852l233.333208-233.397206a31.99852 31.99852 0 0 1 45.309905 45.309905l-255.988161 255.98816A31.870526 31.870526 0 0 1 448.00296 672.016279z" fill="#D9D9D9" p-id="14030"></path></svg>