<?xml version="1.0" encoding="utf-8"?>
<!-- Generator: Adobe Illustrator 26.2.1, SVG Export Plug-In . SVG Version: 6.00 Build 0)  -->
<svg version="1.1" id="Layer_1" xmlns="http://www.w3.org/2000/svg" xmlns:xlink="http://www.w3.org/1999/xlink" x="0px" y="0px"
	 viewBox="0 0 512 512" style="enable-background:new 0 0 512 512;" xml:space="preserve">
<style type="text/css">
	.st0{fill:#FFFFFF;}
</style>
<path class="st0" d="M448,32c17.7,0,32,14.3,32,32s-14.3,32-32,32H80c-8.8,0-16,7.2-16,16s7.2,16,16,16h368c35.3,0,64,28.7,64,64
	v224c0,35.3-28.7,64-64,64H64c-35.3,0-64-28.7-64-64V96c0-35.3,28.6-64,64-64H448z M416,336c17.7,0,32-14.3,32-32s-14.3-32-32-32
	s-32,14.3-32,32S398.3,336,416,336z"/>
</svg>
