<?xml version="1.0" encoding="utf-8"?>
<!-- Generator: Adobe Illustrator 27.2.0, SVG Export Plug-In . SVG Version: 6.00 Build 0)  -->
<svg version="1.1" id="Layer_1" xmlns="http://www.w3.org/2000/svg" xmlns:xlink="http://www.w3.org/1999/xlink" x="0px" y="0px"
	 viewBox="0 0 120 120" style="enable-background:new 0 0 120 120;" xml:space="preserve">
<style type="text/css">
	.st0{fill:#FFA8DE;}
	.st1{fill:#1D0070;}
</style>
<circle class="st0" cx="60" cy="60" r="60"/>
<path class="st1" d="M102.5,58.6L88.6,34.4c-0.3-0.6-1-1-1.7-1H59c-0.7,0-1.3,0.4-1.7,1l-12,20.8c-0.2,0.3-0.6,0.5-1,0.4
	c-0.4-0.1-0.6-0.4-0.6-0.8v-8c0-7.3-5.9-13.2-13.2-13.2H19.2c-1.1,0-1.9,0.9-1.9,1.9v11.3c0,5.3,3.1,10,8,12
	c0.3,0.1,0.5,0.4,0.5,0.8c0,0.3-0.2,0.7-0.5,0.8c-4.9,2-8,6.7-8,12v11.3c0,1.1,0.9,1.9,1.9,1.9h11.3c7.3,0,13.2-5.9,13.2-13.2v-8
	c0-0.4,0.3-0.7,0.6-0.8c0.4-0.1,0.8,0.1,1,0.4l12,20.8c0.3,0.6,1,1,1.7,1h27.9c0.7,0,1.3-0.4,1.7-1l13.9-24.1c0.2-0.3,0.3-0.6,0.3-1
	C102.8,59.2,102.7,58.9,102.5,58.6z M73.2,69.7c-5.4,0-9.9-4.5-9.9-10.1c0-5.6,4.4-10.1,9.9-10.1c5.4,0,9.9,4.5,9.9,10.1
	C83,65.1,78.6,69.7,73.2,69.7z"/>
</svg>
