<svg xmlns="http://www.w3.org/2000/svg" width="120" height="121" fill="none" viewBox="0 0 120 121">
  <path fill="#E1EEEF" fill-opacity=".1" d="M87.909 54.729H65.97V32.792H54.03v21.937H32.09v11.943H54.03v21.937H65.97V66.672H87.91V54.729zM102.35 18.35c-23.42-23.42-61.28-23.42-84.7 0s-23.42 61.28 0 84.7 61.28 23.42 84.7 0 23.42-61.28 0-84.7zM26.12 94.58c-18.677-18.676-18.677-49.083 0-67.76 18.676-18.676 49.084-18.676 67.76 0 18.677 18.677 18.677 49.084 0 67.76-18.676 18.677-49.084 18.677-67.76 0z"/>
</svg>
