<?xml version="1.0" encoding="UTF-8"?><svg xmlns="http://www.w3.org/2000/svg" xmlns:xlink="http://www.w3.org/1999/xlink" viewBox="0 0 821.86 317.04"><defs><style>.cls-1{fill:url(#linear-gradient-4);}.cls-1,.cls-2,.cls-3,.cls-4,.cls-5,.cls-6,.cls-7,.cls-8,.cls-9,.cls-10,.cls-11,.cls-12{fill-rule:evenodd;}.cls-13{fill:url(#green-grad);}.cls-2{fill:url(#linear-gradient-2);}.cls-3{fill:url(#linear-gradient);}.cls-4{fill:url(#linear-gradient-5);}.cls-5{fill:url(#glass-grad-5);}.cls-6{fill:url(#glass-grad-3);}.cls-14{fill:url(#green-grad-3);}.cls-7{fill:url(#green-grad-5);}.cls-8{fill:url(#glass-grad-4);}.cls-9{fill:url(#glass-grad);}.cls-15{fill:url(#green-grad-4);}.cls-16{fill:#e1eeef;}.cls-17{fill:url(#green-grad-2);}.cls-10{fill:url(#green-grad-6);}.cls-11{fill:url(#glass-grad-2);stroke:url(#gold-grad);stroke-miterlimit:10;stroke-width:2px;}.cls-12{fill:url(#linear-gradient-3);}</style><linearGradient id="glass-grad" x1="698.32" y1="102.48" x2="810.4" y2="214.56" gradientUnits="userSpaceOnUse"><stop offset="0" stop-color="#e1eeef" stop-opacity=".4"/><stop offset="1" stop-color="#a1d0d0" stop-opacity=".2"/></linearGradient><linearGradient id="green-grad" x1="697.58" y1="115.95" x2="710.93" y2="129.31" gradientUnits="userSpaceOnUse"><stop offset="0" stop-color="#54e280"/><stop offset="1" stop-color="#1ec498"/></linearGradient><linearGradient id="glass-grad-2" x1="-260.38" y1="2504.08" x2="-252.3" y2="2496" gradientTransform="translate(4029.71 34838.2) scale(13.87 -13.87)" xlink:href="#glass-grad"/><linearGradient id="gold-grad" x1="417.07" y1="101.77" x2="530.57" y2="215.27" gradientUnits="userSpaceOnUse"><stop offset="0" stop-color="#ffcc4a"/><stop offset="1" stop-color="#e85f1a"/></linearGradient><linearGradient id="green-grad-2" x1="421.53" y1="118.78" x2="432.39" y2="129.65" xlink:href="#green-grad"/><linearGradient id="glass-grad-3" x1="211.22" y1="206.53" x2="322.22" y2="317.54" xlink:href="#glass-grad"/><linearGradient id="green-grad-3" x1="209.72" y1="220.37" x2="223.13" y2="233.78" xlink:href="#green-grad"/><linearGradient id="glass-grad-4" x1="-273.59" y1="2502.07" x2="-265.24" y2="2493.71" gradientTransform="translate(3844.9 33230.29) scale(13.28 -13.28)" xlink:href="#glass-grad"/><linearGradient id="green-grad-4" x1="209.66" y1="13.82" x2="224.38" y2="28.55" xlink:href="#green-grad"/><linearGradient id="glass-grad-5" x1="-289.67" y1="2504.01" x2="-281.58" y2="2495.93" gradientTransform="translate(4028.2 34825.09) scale(13.87 -13.87)" xlink:href="#glass-grad"/><linearGradient id="green-grad-5" x1="12.99" y1="116.31" x2="24.2" y2="127.52" xlink:href="#green-grad"/><linearGradient id="linear-gradient" x1="-224.49" y1="2414.98" x2="-216.73" y2="2407.23" gradientTransform="translate(2828.13 24384.04) scale(10.03 -10.03)" gradientUnits="userSpaceOnUse"><stop offset="0" stop-color="#54e280"/><stop offset="1" stop-color="#1ec498"/></linearGradient><linearGradient id="linear-gradient-2" x1="-251.7" y1="2439.98" x2="-243.74" y2="2432.01" gradientTransform="translate(3158.53 27258.62) scale(11.09 -11.09)" xlink:href="#linear-gradient"/><linearGradient id="linear-gradient-3" x1="-252.92" y1="2989.52" x2="-242.77" y2="2999.68" gradientTransform="translate(3158.53 -33149.58) scale(11.09)" xlink:href="#linear-gradient"/><linearGradient id="linear-gradient-4" x1="66.58" y1="2799" x2="73.56" y2="2792.03" gradientTransform="translate(-22378.63 -409.31) rotate(90) scale(8.1 -8.1)" xlink:href="#linear-gradient"/><linearGradient id="green-grad-6" x1="-346.53" y1="2440.94" x2="-356.43" y2="2431.04" gradientTransform="translate(-3784.67 27258.61) rotate(-180) scale(11.09)" xlink:href="#green-grad"/><linearGradient id="linear-gradient-5" x1="-347.79" y1="2991.04" x2="-355.42" y2="2998.67" gradientTransform="translate(-3784.67 -33149.58) rotate(-180) scale(11.09 -11.09)" xlink:href="#linear-gradient"/></defs><g id="boxes"><g id="_5"><path id="box" class="cls-9" d="m706.71,103.52h95.31c10.96,0,19.84,7.24,19.84,16.17v77.66c0,8.93-8.88,16.17-19.84,16.17h-95.31c-10.96,0-19.84-7.24-19.84-16.17v-77.66c0-8.93,8.88-16.17,19.84-16.17Z"/><g><path class="cls-16" d="m710.72,149.68c-.58,2.57-2.59,4.45-6.17,4.45-4.54,0-6.69-3.09-6.69-7.02s2.21-7.17,6.83-7.17c3.81,0,5.66,2.16,6.01,4.46h-3.1c-.3-1.06-1.07-2.12-3.01-2.12-2.55,0-3.54,2.21-3.54,4.72,0,2.33.85,4.79,3.62,4.79,2.02,0,2.66-1.3,2.93-2.11h3.11Z"/><path class="cls-16" d="m722.88,148.73c0,3.13-1.95,5.44-5.35,5.44s-5.28-2.29-5.28-5.38,2.01-5.45,5.42-5.45c3.16,0,5.21,2.15,5.21,5.4Zm-7.61.02c0,1.99.89,3.17,2.32,3.17s2.27-1.18,2.27-3.16c0-2.17-.83-3.19-2.31-3.19-1.38,0-2.28.98-2.28,3.17Z"/><path class="cls-16" d="m724.92,146.25c0-.9,0-1.78-.02-2.67h2.85c.04.25.1.83.12,1.23.55-.77,1.41-1.47,2.99-1.47s2.39.77,2.77,1.58c.63-.85,1.56-1.58,3.31-1.58,1.87,0,3.41,1.11,3.41,3.8v6.79h-2.9v-6.44c0-.94-.35-1.85-1.57-1.85s-1.76.79-1.76,2.37v5.92h-2.92v-6.34c0-1.07-.27-1.94-1.54-1.94s-1.78.72-1.78,2.49v5.78h-2.94v-7.69Z"/><path class="cls-16" d="m743.01,146.25c0-.9,0-1.78-.02-2.67h2.85c.04.25.1.83.12,1.23.55-.77,1.41-1.47,2.99-1.47s2.39.77,2.77,1.58c.63-.85,1.56-1.58,3.31-1.58,1.87,0,3.41,1.11,3.41,3.8v6.79h-2.9v-6.44c0-.94-.35-1.85-1.57-1.85s-1.76.79-1.76,2.37v5.92h-2.92v-6.34c0-1.07-.27-1.94-1.54-1.94s-1.78.72-1.78,2.49v5.78h-2.94v-7.69Z"/><path class="cls-16" d="m770.55,150.92c0,1,0,2.08.02,3.01h-2.92c-.04-.28-.06-.83-.08-1.19-.64,1.04-1.59,1.43-2.96,1.43-2.19,0-3.59-1.28-3.59-3.85v-6.75h2.97v6.17c0,1.14.37,2.09,1.66,2.09,1.36,0,1.92-.7,1.92-2.75v-5.51h2.98v7.35Z"/><path class="cls-16" d="m773.24,146.19c0-.88,0-1.84-.02-2.61h2.88c.06.27.1.99.12,1.32.37-.65,1.23-1.56,3.12-1.56,2.16,0,3.56,1.41,3.56,4.01v6.59h-2.98v-6.27c0-1.16-.4-2.01-1.72-2.01s-1.99.68-1.99,2.5v5.77h-2.98v-7.75Z"/><path class="cls-16" d="m785.54,139.33h2.98v2.56h-2.98v-2.56Zm0,4.25h2.98v10.35h-2.98v-10.35Z"/><path class="cls-16" d="m790.16,143.58h1.66v-2.8h2.98v2.8h2.11v2.16h-2.11v5.11c0,.79.25,1.09,1.14,1.09.17,0,.46,0,.68-.03v1.97c-.59.19-1.4.2-2,.2-2.1,0-2.79-1.08-2.79-2.89v-5.45h-1.66v-2.16Z"/><path class="cls-16" d="m801.04,143.58c1.11,3.57,2.08,6.76,2.25,7.72h.02c.23-1.04.86-3.36,2.15-7.72h2.96l-3.61,10.65c-1.03,2.98-1.88,3.87-4.47,3.87-.26,0-.88-.02-1.39-.08v-2.3c.2.02.53.04.77.04,1.09,0,1.64-.37,2.05-1.51l-3.91-10.67h3.19Z"/></g><path id="num-5" class="cls-13" d="m704.73,120.78c1.26,0,2.36.22,3.3.66s1.67,1.08,2.19,1.92c.53.84.8,1.86.8,3.06,0,1.32-.28,2.46-.84,3.42-.56.95-1.39,1.68-2.47,2.2-1.07.51-2.37.77-3.89.77-.99,0-1.92-.09-2.78-.27-.85-.18-1.58-.44-2.19-.78v-2.41c.65.38,1.42.68,2.33.91.91.23,1.78.34,2.62.34.92,0,1.71-.14,2.39-.42.69-.29,1.22-.73,1.59-1.31.38-.58.56-1.32.56-2.22,0-1.18-.37-2.08-1.11-2.72-.74-.65-1.9-.97-3.48-.97-.52,0-1.09.05-1.72.14-.61.08-1.12.18-1.52.28l-1.22-.75.72-9.12h9.69v2.33h-7.42l-.44,5.25c.32-.07.72-.14,1.19-.2.48-.07,1.05-.11,1.7-.11Z"/></g><g id="_4"><path id="box-2" class="cls-11" d="m426.16,103.52h95.31c10.96,0,19.84,7.24,19.84,16.17v77.66c0,8.93-8.88,16.17-19.84,16.17h-95.31c-10.96,0-19.84-7.24-19.84-16.17v-77.66c0-8.93,8.88-16.17,19.84-16.17Z"/><g><path class="cls-16" d="m418.03,139.75h5.92c3.04,0,5.11,1.65,5.11,4.27,0,3-2.35,4.37-5.18,4.37h-2.75v5.15h-3.1v-13.79Zm3.1,6.27h2.36c1.43,0,2.45-.53,2.45-1.94s-1.07-1.95-2.38-1.95h-2.43v3.89Z"/><path class="cls-16" d="m430.93,146c0-1.03,0-1.94-.02-2.81h2.92c.04.23.08,1.26.08,1.82.47-1.18,1.62-2.05,3.45-2.06v2.74c-2.16-.05-3.45.51-3.45,3.34v4.51h-2.98v-7.55Z"/><path class="cls-16" d="m448.92,148.35c0,3.13-1.95,5.44-5.35,5.44s-5.28-2.29-5.28-5.38,2.01-5.45,5.42-5.45c3.16,0,5.21,2.15,5.21,5.4Zm-7.61.02c0,1.99.89,3.17,2.32,3.17s2.27-1.18,2.27-3.16c0-2.17-.83-3.19-2.31-3.19-1.38,0-2.28.98-2.28,3.17Z"/><path class="cls-16" d="m460.4,150.2c-.37,1.73-1.63,3.59-4.83,3.59s-5.07-2.23-5.07-5.34,1.94-5.49,5.21-5.49c3.62,0,4.63,2.5,4.69,3.68h-2.91c-.18-.84-.68-1.43-1.84-1.43-1.36,0-2.13,1.15-2.13,3.16,0,2.2.82,3.21,2.12,3.21,1.02,0,1.57-.58,1.84-1.36h2.92Z"/><path class="cls-16" d="m464.49,143.19c1.11,3.57,2.08,6.76,2.25,7.72h.02c.23-1.04.86-3.36,2.15-7.72h2.96l-3.61,10.65c-1.03,2.98-1.88,3.87-4.47,3.87-.26,0-.88-.02-1.39-.08v-2.3c.2.02.53.04.77.04,1.09,0,1.64-.37,2.05-1.51l-3.91-10.67h3.19Z"/><path class="cls-16" d="m483.23,148.35c0,3.13-1.95,5.44-5.35,5.44s-5.28-2.29-5.28-5.38,2.01-5.45,5.42-5.45c3.16,0,5.21,2.15,5.21,5.4Zm-7.61.02c0,1.99.89,3.17,2.32,3.17s2.27-1.18,2.27-3.16c0-2.17-.83-3.19-2.31-3.19-1.38,0-2.28.98-2.28,3.17Z"/><path class="cls-16" d="m485.29,145.8c0-.88,0-1.84-.02-2.61h2.88c.06.27.1.99.11,1.32.37-.65,1.23-1.56,3.12-1.56,2.16,0,3.56,1.41,3.56,4.01v6.59h-2.98v-6.27c0-1.16-.4-2.01-1.72-2.01s-1.99.68-1.99,2.5v5.77h-2.98v-7.75Z"/></g><path id="num-4" class="cls-17" d="m432.12,128.33h-2.7v4.3h-2.58v-4.3h-8.92v-2.06l8.88-12.75h2.62v12.56h2.7v2.25Zm-5.28-2.25v-5.47c0-.44,0-.85.02-1.23.01-.4.02-.77.03-1.12.02-.36.04-.7.06-1,.02-.31.04-.59.05-.84h-.11c-.17.34-.35.7-.56,1.08-.2.38-.41.72-.64,1.05l-5.27,7.55h6.42Z"/></g><g id="_3"><path id="box-3" class="cls-6" d="m219.06,207.04h95.31c10.96,0,19.84,8.69,19.84,19.4v71.19c0,10.72-8.88,19.4-19.84,19.4h-95.31c-10.96,0-19.84-8.69-19.84-19.4v-71.19c0-10.72,8.88-19.4,19.84-19.4Z"/><g><path class="cls-16" d="m210.92,243.7h3.1v5.38h5.76v-5.38h3.1v13.79h-3.1v-5.97h-5.76v5.97h-3.1v-13.79Z"/><path class="cls-16" d="m228.57,256.57v4.88h-2.96v-11.82c0-.84,0-1.67-.02-2.5h2.88c.04.27.1.91.1,1.29.46-.76,1.42-1.53,3.12-1.53,2.41,0,4.28,1.95,4.28,5.16,0,3.65-2.09,5.68-4.69,5.68-1.52,0-2.31-.55-2.72-1.16Zm4.39-4.41c0-1.9-.8-2.97-2.21-2.97-1.69,0-2.29,1.04-2.29,3.13,0,1.98.55,3.13,2.16,3.13s2.34-1.18,2.34-3.29Z"/><path class="cls-16" d="m248.15,252.29c0,3.13-1.95,5.44-5.35,5.44s-5.28-2.29-5.28-5.38,2.01-5.45,5.42-5.45c3.16,0,5.21,2.15,5.21,5.4Zm-7.61.02c0,1.99.89,3.17,2.32,3.17s2.27-1.18,2.27-3.16c0-2.17-.83-3.19-2.31-3.19-1.38,0-2.28.98-2.28,3.17Z"/><path class="cls-16" d="m260.32,252.29c0,3.13-1.95,5.44-5.35,5.44s-5.28-2.29-5.28-5.38,2.01-5.45,5.42-5.45c3.16,0,5.21,2.15,5.21,5.4Zm-7.61.02c0,1.99.89,3.17,2.32,3.17s2.27-1.18,2.27-3.16c0-2.17-.83-3.19-2.31-3.19-1.38,0-2.28.98-2.28,3.17Z"/><path class="cls-16" d="m262.37,257.49v-14.6h2.98v14.6h-2.98Z"/></g><path id="num-3" class="cls-14" d="m223.08,221.69c0,.85-.17,1.6-.52,2.23-.33.62-.8,1.14-1.41,1.55-.59.4-1.28.68-2.06.84v.08c1.51.2,2.65.68,3.41,1.45.77.77,1.16,1.79,1.16,3.06,0,1.09-.26,2.07-.78,2.94-.52.85-1.32,1.53-2.41,2.02-1.07.49-2.46.73-4.16.73-1.01,0-1.95-.08-2.83-.25-.86-.17-1.69-.43-2.47-.8v-2.38c.79.4,1.65.7,2.56.92.93.22,1.81.33,2.66.33,1.66,0,2.84-.32,3.56-.95.73-.65,1.09-1.53,1.09-2.66,0-.75-.2-1.36-.59-1.83-.39-.48-.96-.83-1.73-1.05-.76-.23-1.71-.34-2.86-.34h-1.78v-2.16h1.81c1.06,0,1.94-.14,2.62-.42.7-.28,1.21-.68,1.55-1.19.34-.52.52-1.12.52-1.8,0-.9-.3-1.59-.89-2.08-.58-.49-1.41-.73-2.47-.73-.67,0-1.27.07-1.81.22-.54.14-1.05.32-1.52.56-.46.23-.91.49-1.34.78l-1.28-1.8c.7-.54,1.55-1,2.55-1.38,1.01-.39,2.16-.58,3.45-.58,1.95,0,3.43.43,4.44,1.3,1.02.85,1.53,1.97,1.53,3.36Z"/></g><g id="_2"><path id="box-4" class="cls-8" d="m219.06,0h95.31c10.96,0,19.84,8.69,19.84,19.4v71.19c0,10.72-8.88,19.4-19.84,19.4h-95.31c-10.96,0-19.84-8.69-19.84-19.4V19.4c0-10.72,8.88-19.4,19.84-19.4Z"/><g><path class="cls-16" d="m214.02,36.23v13.79h-3.1v-13.79h3.1Z"/><path class="cls-16" d="m216.76,42.28c0-.88,0-1.84-.02-2.61h2.88c.06.27.1.99.11,1.32.37-.65,1.23-1.56,3.12-1.56,2.16,0,3.56,1.41,3.56,4.01v6.59h-2.98v-6.27c0-1.16-.4-2.01-1.72-2.01s-1.99.68-1.99,2.5v5.77h-2.98v-7.75Z"/><path class="cls-16" d="m237.85,47.35c0,.99.08,2.42.15,2.67h-2.84c-.08-.21-.15-.75-.15-1.01-.39.58-1.12,1.25-3.02,1.25-2.59,0-3.69-1.64-3.69-3.25,0-2.36,1.97-3.45,5.12-3.45h1.53v-.63c0-.74-.27-1.46-1.66-1.46-1.26,0-1.53.51-1.67,1.26h-2.83c.16-1.84,1.34-3.33,4.61-3.31,2.88.02,4.45,1.1,4.45,3.57v4.35Zm-2.9-2.04h-1.21c-1.79,0-2.46.53-2.46,1.53,0,.75.48,1.38,1.55,1.38,1.89,0,2.12-1.27,2.12-2.63v-.27Z"/><path class="cls-16" d="m239.68,47.87l5.32-5.94h-5.06v-2.26h8.42v2.23l-5.22,5.87h5.59l-.36,2.26h-8.7v-2.15Z"/><path class="cls-16" d="m259.73,47.01c0,1,0,2.08.02,3.01h-2.92c-.04-.28-.06-.83-.08-1.19-.64,1.04-1.59,1.43-2.96,1.43-2.19,0-3.59-1.28-3.59-3.85v-6.75h2.97v6.17c0,1.14.37,2.09,1.66,2.09,1.36,0,1.92-.7,1.92-2.75v-5.51h2.98v7.35Z"/><path class="cls-16" d="m262.41,42.34c0-.9,0-1.78-.02-2.67h2.85c.04.25.1.83.11,1.23.55-.77,1.41-1.47,2.99-1.47s2.39.77,2.77,1.58c.63-.85,1.56-1.58,3.31-1.58,1.87,0,3.41,1.11,3.41,3.8v6.79h-2.9v-6.44c0-.94-.35-1.85-1.57-1.85s-1.76.79-1.76,2.37v5.92h-2.92v-6.34c0-1.07-.27-1.94-1.54-1.94s-1.78.72-1.78,2.49v5.78h-2.94v-7.69Z"/><path class="cls-16" d="m289.28,47.35c0,.99.08,2.42.15,2.67h-2.84c-.08-.21-.15-.75-.15-1.01-.39.58-1.12,1.25-3.02,1.25-2.59,0-3.69-1.64-3.69-3.25,0-2.36,1.97-3.45,5.12-3.45h1.53v-.63c0-.74-.27-1.46-1.66-1.46-1.26,0-1.53.51-1.67,1.26h-2.83c.16-1.84,1.34-3.33,4.61-3.31,2.88.02,4.45,1.1,4.45,3.57v4.35Zm-2.9-2.04h-1.21c-1.79,0-2.46.53-2.46,1.53,0,.75.48,1.38,1.55,1.38,1.89,0,2.12-1.27,2.12-2.63v-.27Z"/><path class="cls-16" d="m223.08,69.77c-.58,2.57-2.59,4.45-6.17,4.45-4.54,0-6.69-3.09-6.69-7.02s2.21-7.17,6.83-7.17c3.81,0,5.66,2.16,6.01,4.46h-3.1c-.3-1.06-1.07-2.12-3.01-2.12-2.55,0-3.54,2.21-3.54,4.72,0,2.33.85,4.79,3.62,4.79,2.02,0,2.66-1.3,2.93-2.11h3.11Z"/><path class="cls-16" d="m234.03,71.35c0,.99.08,2.42.15,2.67h-2.84c-.08-.21-.15-.75-.15-1.01-.39.58-1.12,1.25-3.02,1.25-2.59,0-3.69-1.64-3.69-3.25,0-2.36,1.97-3.45,5.12-3.45h1.53v-.63c0-.74-.27-1.46-1.66-1.46-1.26,0-1.53.51-1.67,1.26h-2.83c.16-1.84,1.34-3.33,4.61-3.31,2.88.02,4.45,1.1,4.45,3.57v4.35Zm-2.9-2.04h-1.21c-1.79,0-2.46.53-2.46,1.53,0,.75.48,1.38,1.55,1.38,1.89,0,2.12-1.27,2.12-2.63v-.27Z"/><path class="cls-16" d="m239.68,73.11v4.88h-2.96v-11.82c0-.84,0-1.67-.02-2.5h2.88c.04.27.1.91.1,1.29.46-.76,1.42-1.53,3.12-1.53,2.41,0,4.28,1.95,4.28,5.16,0,3.65-2.09,5.68-4.69,5.68-1.52,0-2.31-.55-2.72-1.16Zm4.39-4.41c0-1.9-.8-2.97-2.21-2.97-1.69,0-2.29,1.04-2.29,3.13,0,1.98.55,3.13,2.16,3.13s2.34-1.18,2.34-3.29Z"/><path class="cls-16" d="m249.14,59.42h2.98v2.56h-2.98v-2.56Zm0,4.25h2.98v10.35h-2.98v-10.35Z"/><path class="cls-16" d="m253.76,63.67h1.66v-2.8h2.98v2.8h2.11v2.16h-2.11v5.11c0,.79.25,1.09,1.14,1.09.17,0,.46,0,.68-.03v1.97c-.59.19-1.4.2-2,.2-2.1,0-2.79-1.08-2.79-2.89v-5.45h-1.66v-2.16Z"/><path class="cls-16" d="m271.14,71.35c0,.99.08,2.42.15,2.67h-2.84c-.08-.21-.15-.75-.15-1.01-.39.58-1.12,1.25-3.02,1.25-2.59,0-3.69-1.64-3.69-3.25,0-2.36,1.97-3.45,5.12-3.45h1.53v-.63c0-.74-.27-1.46-1.66-1.46-1.26,0-1.53.51-1.67,1.26h-2.83c.16-1.84,1.34-3.33,4.61-3.31,2.88.02,4.45,1.1,4.45,3.57v4.35Zm-2.9-2.04h-1.21c-1.79,0-2.46.53-2.46,1.53,0,.75.48,1.38,1.55,1.38,1.89,0,2.12-1.27,2.12-2.63v-.27Z"/><path class="cls-16" d="m273.83,74.02v-14.6h2.98v14.6h-2.98Z"/></g><path id="num-2" class="cls-15" d="m223.63,29.3h-12.67v-2.06l5.02-5.08c.95-.97,1.73-1.81,2.36-2.53.64-.73,1.11-1.43,1.44-2.11.32-.69.48-1.43.48-2.23,0-.99-.29-1.74-.88-2.27-.58-.52-1.35-.78-2.31-.78-.88,0-1.66.16-2.36.48-.7.31-1.42.76-2.16,1.34l-1.41-1.73c.51-.44,1.06-.83,1.66-1.17.6-.35,1.26-.64,1.97-.84.71-.21,1.5-.31,2.38-.31,1.19,0,2.21.21,3.08.62.86.42,1.53,1.01,2,1.77.47.76.7,1.66.7,2.69s-.2,1.95-.61,2.81c-.41.86-.98,1.72-1.72,2.58-.74.84-1.61,1.74-2.61,2.7l-3.72,3.67v.12h9.36v2.33Z"/></g><g id="_1"><path id="box-5" class="cls-5" d="m19.84,103.52h95.31c10.96,0,19.84,7.25,19.84,16.19v77.62c0,8.94-8.88,16.19-19.84,16.19H19.84C8.88,213.52,0,206.27,0,197.33v-77.62c0-8.94,8.88-16.19,19.84-16.19Z"/><g><path class="cls-16" d="m11.71,138.87h5.92c3.04,0,5.11,1.65,5.11,4.27,0,3-2.35,4.37-5.18,4.37h-2.75v5.15h-3.1v-13.79Zm3.1,6.27h2.36c1.43,0,2.45-.53,2.45-1.94s-1.07-1.95-2.38-1.95h-2.43v3.89Z"/><path class="cls-16" d="m24.61,145.11c0-1.03,0-1.94-.02-2.81h2.92c.04.23.08,1.26.08,1.82.47-1.18,1.62-2.05,3.45-2.06v2.74c-2.16-.05-3.45.51-3.45,3.34v4.51h-2.98v-7.55Z"/><path class="cls-16" d="m42.6,147.46c0,3.13-1.95,5.44-5.35,5.44s-5.28-2.29-5.28-5.38,2.01-5.45,5.42-5.45c3.16,0,5.21,2.15,5.21,5.4Zm-7.61.02c0,1.99.89,3.17,2.32,3.17s2.27-1.18,2.27-3.16c0-2.17-.83-3.19-2.31-3.19-1.38,0-2.28.98-2.28,3.17Z"/><path class="cls-16" d="m47.73,142.31v10.14c0,2.96-.61,4.38-3.58,4.38-.26,0-.66-.02-.91-.04v-2.3c.09,0,.19,0,.28,0,.96,0,1.23-.34,1.23-1.47v-10.72h2.98Zm-2.98-1.69v-2.56h2.98v2.56h-2.98Z"/><path class="cls-16" d="m52.76,148.1c0,1.29.68,2.56,2.16,2.56,1.24,0,1.59-.48,1.88-1.11h2.98c-.38,1.27-1.56,3.35-4.93,3.35s-5.08-2.55-5.08-5.27c0-3.25,1.73-5.57,5.18-5.57,3.69,0,4.95,2.57,4.95,5.16,0,.35,0,.58-.04.87h-7.09Zm4.15-1.76c-.02-1.21-.52-2.22-1.97-2.22s-2,.95-2.12,2.22h4.09Z"/><path class="cls-16" d="m71.41,149.31c-.37,1.73-1.63,3.59-4.83,3.59s-5.07-2.23-5.07-5.34,1.94-5.49,5.21-5.49c3.62,0,4.63,2.5,4.69,3.68h-2.91c-.18-.84-.68-1.43-1.84-1.43-1.36,0-2.13,1.15-2.13,3.16,0,2.2.82,3.21,2.12,3.21,1.02,0,1.57-.58,1.84-1.36h2.92Z"/><path class="cls-16" d="m72.42,142.31h1.66v-2.8h2.98v2.8h2.11v2.16h-2.11v5.11c0,.79.25,1.09,1.14,1.09.17,0,.46,0,.68-.03v1.97c-.59.19-1.4.2-2,.2-2.1,0-2.79-1.08-2.79-2.89v-5.45h-1.66v-2.16Z"/><path class="cls-16" d="m83.12,149.55c.23.83.92,1.29,2.03,1.29s1.5-.38,1.5-1.01c0-.67-.46-.93-2-1.29-3.5-.83-4.08-1.88-4.08-3.34s1.12-3.14,4.36-3.14,4.36,1.71,4.46,3.12h-2.83c-.1-.38-.36-1.11-1.76-1.11-.98,0-1.3.42-1.3.88,0,.52.33.76,2.08,1.16,3.59.8,4.09,1.99,4.09,3.51,0,1.71-1.35,3.28-4.63,3.28s-4.61-1.52-4.85-3.35h2.92Z"/></g><path id="num-1" class="cls-7" d="m20.09,131.63h-2.59v-14.14c.01-.39.02-.76.03-1.11.02-.35.04-.69.06-1.02-.23.23-.47.45-.72.67-.24.21-.52.45-.84.72l-2.17,1.75-1.34-1.72,5.39-4.19h2.19v19.03Z"/></g></g><g id="arrows-text"><path id="arrow" class="cls-3" d="m547.97,186.06h125.98v-4.72l9.45,9.45-9.45,9.45v-4.72h-125.98v-9.45Z"/><path id="arrow-2" class="cls-2" d="m340.92,257.14h126.89c1.1,0,2-.9,2-2v-27.9h-4.72l9.45-9.45,9.45,9.45h-4.72v31.35c0,4.42-3.58,8-8,8h-130.34v-9.45Z"/><path id="arrow-3" class="cls-12" d="m341.2,59.8h126.89c1.1,0,2,.9,2,2v27.9h-4.72l9.45,9.45,9.45-9.45h-4.72v-31.35c0-4.42-3.58-8-8-8h-130.34v9.45Z"/><path id="arrow-4" class="cls-1" d="m267.82,113.38l9.45,9.45h-4.72v70.99h4.72l-9.45,9.45-9.45-9.45h4.72v-70.99h-4.72l9.45-9.45Z"/><path id="arrow-5" class="cls-10" d="m194.91,262l-9.45-9.45v4.72h-111.44c-1.1,0-2-.9-2-2v-28.17h4.72l-9.45-9.45-9.45,9.45h4.72v31.62c0,4.42,3.58,8,8,8h114.89v4.72l9.45-9.45Z"/><path id="arrow-6" class="cls-4" d="m194.91,54.78l-9.45,9.45v-4.72h-111.44c-1.1,0-2,.9-2,2v28.17h4.72l-9.45,9.45-9.45-9.45h4.72v-31.62c0-4.42,3.58-8,8-8h114.89v-4.72l9.45,9.45Z"/><g><path class="cls-16" d="m549.16,119.06h4.15c2.13,0,3.58,1.15,3.58,2.99,0,2.1-1.65,3.06-3.63,3.06h-1.93v3.61h-2.17v-9.66Zm2.17,4.39h1.65c1,0,1.71-.37,1.71-1.36s-.75-1.37-1.67-1.37h-1.7v2.73Z"/><path class="cls-16" d="m558.19,123.43c0-.72,0-1.36-.01-1.97h2.04c.03.16.05.88.05,1.27.33-.83,1.13-1.43,2.42-1.44v1.92c-1.51-.04-2.42.35-2.42,2.34v3.16h-2.08v-5.28Z"/><path class="cls-16" d="m570.79,125.08c0,2.19-1.36,3.81-3.75,3.81s-3.7-1.6-3.7-3.77,1.41-3.82,3.79-3.82c2.22,0,3.65,1.51,3.65,3.78Zm-5.33.01c0,1.4.62,2.22,1.63,2.22s1.59-.83,1.59-2.21c0-1.52-.58-2.23-1.62-2.23-.97,0-1.6.69-1.6,2.22Z"/><path class="cls-16" d="m573.53,121.47c.72,2.46,1.31,4.6,1.46,5.48h.01c.21-1.2.95-3.38,1.6-5.48h2.08l-2.66,7.25h-2.19l-2.55-7.25h2.24Z"/><path class="cls-16" d="m579.72,118.49h2.08v1.79h-2.08v-1.79Zm0,2.97h2.08v7.25h-2.08v-7.25Z"/><path class="cls-16" d="m590.58,118.49v8.23c0,.66,0,1.33.01,1.99h-2c-.04-.22-.08-.59-.09-.76-.36.57-1.01.93-2.14.93-1.9,0-3.11-1.47-3.11-3.73s1.29-3.85,3.42-3.85c1.08,0,1.66.37,1.83.69v-3.5h2.08Zm-5.19,6.61c0,1.41.57,2.18,1.59,2.18,1.43,0,1.6-1.15,1.6-2.19,0-1.24-.18-2.18-1.54-2.18-1.09,0-1.65.82-1.65,2.19Z"/><path class="cls-16" d="m594.08,125.52c0,.91.47,1.79,1.51,1.79.87,0,1.12-.34,1.31-.77h2.09c-.27.89-1.09,2.34-3.45,2.34s-3.55-1.79-3.55-3.69c0-2.27,1.21-3.9,3.63-3.9,2.58,0,3.46,1.8,3.46,3.61,0,.25,0,.41-.03.61h-4.97Zm2.91-1.23c-.01-.84-.36-1.55-1.38-1.55s-1.4.66-1.48,1.55h2.86Z"/><path class="cls-16" d="m610.88,125.08c0,2.19-1.36,3.81-3.75,3.81s-3.7-1.6-3.7-3.77,1.41-3.82,3.79-3.82c2.22,0,3.65,1.51,3.65,3.78Zm-5.33.01c0,1.4.62,2.22,1.63,2.22s1.59-.83,1.59-2.21c0-1.52-.58-2.23-1.62-2.23-.97,0-1.6.69-1.6,2.22Z"/><path class="cls-16" d="m618.94,126.61c0,.7,0,1.46.01,2.11h-2.04c-.03-.19-.04-.58-.06-.84-.45.73-1.11,1-2.07,1-1.53,0-2.51-.9-2.51-2.7v-4.72h2.08v4.32c0,.8.26,1.46,1.16,1.46.95,0,1.34-.49,1.34-1.92v-3.86h2.08v5.14Z"/><path class="cls-16" d="m620.81,123.43c0-.72,0-1.36-.01-1.97h2.04c.03.16.05.88.05,1.27.33-.83,1.13-1.43,2.42-1.44v1.92c-1.51-.04-2.42.35-2.42,2.34v3.16h-2.08v-5.28Z"/><path class="cls-16" d="m555.42,143.17c-.26,1.21-1.14,2.51-3.38,2.51s-3.55-1.56-3.55-3.74,1.36-3.85,3.65-3.85c2.54,0,3.24,1.75,3.28,2.57h-2.04c-.13-.59-.48-1-1.29-1-.95,0-1.49.8-1.49,2.21,0,1.54.57,2.25,1.48,2.25.72,0,1.1-.41,1.29-.95h2.05Z"/><path class="cls-16" d="m563.82,141.88c0,2.19-1.36,3.81-3.75,3.81s-3.7-1.6-3.7-3.77,1.41-3.82,3.79-3.82c2.22,0,3.65,1.51,3.65,3.78Zm-5.33.01c0,1.4.62,2.22,1.63,2.22s1.59-.83,1.59-2.21c0-1.52-.58-2.23-1.62-2.23-.97,0-1.6.69-1.6,2.22Z"/><path class="cls-16" d="m565.24,140.13c0-.63,0-1.25-.01-1.87h1.99c.03.18.07.58.08.86.38-.54.99-1.03,2.09-1.03s1.68.54,1.94,1.1c.44-.59,1.09-1.1,2.32-1.1,1.31,0,2.38.78,2.38,2.66v4.76h-2.03v-4.51c0-.66-.25-1.3-1.1-1.3s-1.23.55-1.23,1.66v4.15h-2.04v-4.44c0-.75-.19-1.36-1.08-1.36s-1.25.5-1.25,1.75v4.05h-2.06v-5.38Z"/><path class="cls-16" d="m577.9,140.13c0-.63,0-1.25-.01-1.87h1.99c.03.18.07.58.08.86.38-.54.99-1.03,2.09-1.03s1.68.54,1.94,1.1c.44-.59,1.09-1.1,2.32-1.1,1.31,0,2.39.78,2.39,2.66v4.76h-2.03v-4.51c0-.66-.25-1.3-1.1-1.3s-1.23.55-1.23,1.66v4.15h-2.04v-4.44c0-.75-.19-1.36-1.08-1.36s-1.25.5-1.25,1.75v4.05h-2.06v-5.38Z"/><path class="cls-16" d="m597.18,143.41c0,.7,0,1.46.01,2.11h-2.04c-.03-.19-.04-.58-.06-.84-.45.73-1.11,1-2.07,1-1.53,0-2.51-.9-2.51-2.7v-4.72h2.08v4.32c0,.8.26,1.46,1.16,1.46.95,0,1.34-.49,1.34-1.92v-3.86h2.08v5.14Z"/><path class="cls-16" d="m599.07,140.09c0-.62,0-1.29-.01-1.83h2.02c.04.19.07.69.08.92.26-.46.87-1.09,2.18-1.09,1.51,0,2.49.98,2.49,2.81v4.61h-2.08v-4.39c0-.81-.28-1.41-1.2-1.41s-1.39.47-1.39,1.75v4.04h-2.08v-5.42Z"/><path class="cls-16" d="m607.67,135.29h2.08v1.79h-2.08v-1.79Zm0,2.97h2.08v7.25h-2.08v-7.25Z"/><path class="cls-16" d="m610.91,138.27h1.16v-1.96h2.08v1.96h1.47v1.51h-1.47v3.58c0,.55.17.76.79.76.12,0,.32,0,.47-.02v1.38c-.41.13-.98.14-1.4.14-1.47,0-1.95-.76-1.95-2.02v-3.81h-1.16v-1.51Z"/><path class="cls-16" d="m618.52,138.27c.78,2.5,1.46,4.73,1.57,5.4h.01c.16-.73.6-2.36,1.5-5.4h2.07l-2.53,7.46c-.72,2.08-1.32,2.71-3.13,2.71-.18,0-.62-.01-.98-.05v-1.61c.14.02.37.03.54.03.77,0,1.15-.26,1.43-1.06l-2.74-7.47h2.23Z"/><path class="cls-16" d="m629.72,138.27c.68,2.91,1.05,4.56,1.19,5.46h.03c.16-.81.37-1.95,1.29-5.46h1.94c.85,3.56,1.11,4.61,1.21,5.39h.01c.15-.75.38-1.83,1.26-5.39h2.06l-2.23,7.25h-2.23c-.62-2.75-.98-4.2-1.15-5.15h-.01c-.12.91-.53,2.55-1.19,5.15h-2.24l-2.14-7.25h2.2Z"/><path class="cls-16" d="m639.88,135.29h2.08v1.79h-2.08v-1.79Zm0,2.97h2.08v7.25h-2.08v-7.25Z"/><path class="cls-16" d="m643.12,138.27h1.16v-1.96h2.08v1.96h1.47v1.51h-1.47v3.58c0,.55.17.76.8.76.12,0,.32,0,.47-.02v1.38c-.41.13-.98.14-1.4.14-1.47,0-1.95-.76-1.95-2.02v-3.81h-1.16v-1.51Z"/><path class="cls-16" d="m651.11,135.29v3.83c.33-.47.94-1.02,2.16-1.02,1.4,0,2.52.8,2.52,2.77v4.65h-2.07v-4.35c0-.94-.35-1.44-1.22-1.44-1.16,0-1.38.83-1.38,1.95v3.85h-2.08v-10.22h2.08Z"/><path class="cls-16" d="m550.56,159.12c0,.91.47,1.79,1.51,1.79.87,0,1.12-.34,1.31-.77h2.09c-.27.89-1.09,2.34-3.45,2.34s-3.55-1.79-3.55-3.69c0-2.27,1.21-3.9,3.63-3.9,2.58,0,3.46,1.8,3.46,3.61,0,.25,0,.41-.03.61h-4.97Zm2.91-1.23c-.01-.84-.36-1.55-1.38-1.55s-1.4.66-1.48,1.55h2.86Z"/><path class="cls-16" d="m563.21,160.44c0,.69.06,1.7.1,1.87h-1.99c-.06-.14-.1-.53-.11-.71-.27.41-.79.88-2.12.88-1.81,0-2.58-1.15-2.58-2.27,0-1.65,1.38-2.41,3.58-2.41h1.07v-.44c0-.52-.19-1.02-1.16-1.02-.88,0-1.07.36-1.17.89h-1.98c.11-1.29.94-2.33,3.23-2.32,2.02.01,3.11.77,3.11,2.5v3.05Zm-2.03-1.43h-.85c-1.26,0-1.72.37-1.72,1.07,0,.53.33.97,1.08.97,1.32,0,1.49-.89,1.49-1.84v-.19Z"/><path class="cls-16" d="m565.1,157.03c0-.72,0-1.36-.01-1.97h2.04c.03.16.05.88.05,1.27.33-.83,1.13-1.43,2.42-1.44v1.92c-1.51-.04-2.42.35-2.42,2.34v3.16h-2.08v-5.28Z"/><path class="cls-16" d="m570.77,162.31v-10.22h2.08v10.22h-2.08Z"/><path class="cls-16" d="m576.17,155.06c.78,2.5,1.46,4.73,1.58,5.4h.01c.16-.73.6-2.36,1.5-5.4h2.08l-2.53,7.46c-.72,2.08-1.32,2.71-3.13,2.71-.18,0-.62-.01-.98-.05v-1.61c.14.02.37.03.54.03.77,0,1.15-.26,1.43-1.06l-2.74-7.47h2.23Z"/><path class="cls-16" d="m585.99,157.84v1.75h-4.05v-1.75h4.05Z"/><path class="cls-16" d="m593.94,160.44c0,.69.06,1.7.1,1.87h-1.99c-.06-.14-.1-.53-.11-.71-.27.41-.79.88-2.12.88-1.81,0-2.58-1.15-2.58-2.27,0-1.65,1.38-2.41,3.58-2.41h1.07v-.44c0-.52-.19-1.02-1.16-1.02-.88,0-1.07.36-1.17.89h-1.98c.11-1.29.94-2.33,3.23-2.32,2.02.01,3.11.77,3.11,2.5v3.05Zm-2.03-1.43h-.85c-1.26,0-1.72.37-1.72,1.07,0,.53.33.97,1.08.97,1.32,0,1.49-.89,1.49-1.84v-.19Z"/><path class="cls-16" d="m602.3,159.97c-.26,1.21-1.14,2.51-3.38,2.51s-3.55-1.56-3.55-3.74,1.36-3.85,3.65-3.85c2.54,0,3.24,1.75,3.28,2.57h-2.04c-.13-.59-.48-1-1.29-1-.95,0-1.49.8-1.49,2.21,0,1.54.57,2.25,1.48,2.25.72,0,1.1-.41,1.29-.95h2.05Z"/><path class="cls-16" d="m610.21,159.97c-.26,1.21-1.14,2.51-3.38,2.51s-3.55-1.56-3.55-3.74,1.36-3.85,3.65-3.85c2.54,0,3.24,1.75,3.28,2.57h-2.03c-.13-.59-.48-1-1.29-1-.95,0-1.49.8-1.49,2.21,0,1.54.57,2.25,1.48,2.25.72,0,1.1-.41,1.29-.95h2.05Z"/><path class="cls-16" d="m613.26,159.12c0,.91.47,1.79,1.51,1.79.87,0,1.12-.34,1.31-.77h2.09c-.27.89-1.09,2.34-3.45,2.34s-3.55-1.79-3.55-3.69c0-2.27,1.21-3.9,3.63-3.9,2.58,0,3.46,1.8,3.46,3.61,0,.25,0,.41-.03.61h-4.97Zm2.91-1.23c-.01-.84-.36-1.55-1.38-1.55s-1.4.66-1.48,1.55h2.86Z"/><path class="cls-16" d="m621.22,160.14c.16.58.65.9,1.42.9s1.05-.27,1.05-.71c0-.46-.32-.65-1.4-.9-2.45-.58-2.85-1.31-2.85-2.34s.78-2.2,3.05-2.2,3.06,1.2,3.12,2.18h-1.98c-.07-.27-.25-.77-1.23-.77-.69,0-.91.29-.91.62,0,.36.23.54,1.46.81,2.51.56,2.87,1.39,2.87,2.46,0,1.2-.95,2.29-3.24,2.29s-3.23-1.06-3.39-2.35h2.05Z"/><path class="cls-16" d="m628.73,160.14c.16.58.65.9,1.42.9s1.05-.27,1.05-.71c0-.46-.32-.65-1.4-.9-2.45-.58-2.85-1.31-2.85-2.34s.78-2.2,3.05-2.2,3.06,1.2,3.12,2.18h-1.98c-.07-.27-.25-.77-1.23-.77-.69,0-.91.29-.91.62,0,.36.23.54,1.46.81,2.51.56,2.87,1.39,2.87,2.46,0,1.2-.95,2.29-3.24,2.29s-3.23-1.06-3.39-2.35h2.05Z"/><path class="cls-16" d="m550.98,178.47v3.42h-2.07v-8.28c0-.59,0-1.17-.01-1.75h2.02c.03.19.07.64.07.9.32-.53.99-1.07,2.19-1.07,1.69,0,3,1.36,3,3.61,0,2.56-1.46,3.98-3.28,3.98-1.06,0-1.62-.39-1.9-.81Zm3.07-3.09c0-1.33-.56-2.08-1.55-2.08-1.18,0-1.6.73-1.6,2.19,0,1.38.39,2.19,1.51,2.19s1.64-.83,1.64-2.3Z"/><path class="cls-16" d="m557.6,173.83c0-.72,0-1.36-.01-1.97h2.04c.03.16.05.88.05,1.27.33-.83,1.13-1.43,2.42-1.44v1.92c-1.51-.04-2.42.35-2.42,2.34v3.16h-2.08v-5.28Z"/><path class="cls-16" d="m570.2,175.48c0,2.19-1.36,3.81-3.75,3.81s-3.7-1.6-3.7-3.77,1.41-3.82,3.79-3.82c2.22,0,3.65,1.51,3.65,3.78Zm-5.33.01c0,1.4.62,2.22,1.63,2.22s1.59-.83,1.59-2.21c0-1.52-.58-2.23-1.62-2.23-.97,0-1.6.69-1.6,2.22Z"/><path class="cls-16" d="m578.62,168.89v8.23c0,.66,0,1.33.01,1.99h-2c-.04-.22-.08-.59-.09-.76-.36.57-1.01.93-2.14.93-1.9,0-3.11-1.47-3.11-3.73s1.29-3.85,3.42-3.85c1.08,0,1.67.37,1.83.69v-3.5h2.08Zm-5.19,6.61c0,1.41.57,2.18,1.59,2.18,1.43,0,1.6-1.15,1.6-2.19,0-1.24-.18-2.18-1.54-2.18-1.09,0-1.65.82-1.65,2.19Z"/><path class="cls-16" d="m587.09,177.01c0,.7,0,1.46.01,2.11h-2.04c-.03-.19-.04-.58-.06-.84-.45.73-1.11,1-2.07,1-1.53,0-2.51-.9-2.51-2.7v-4.72h2.08v4.32c0,.8.26,1.46,1.16,1.46.95,0,1.34-.49,1.34-1.92v-3.86h2.08v5.14Z"/><path class="cls-16" d="m595.54,176.77c-.26,1.21-1.14,2.51-3.38,2.51s-3.55-1.56-3.55-3.74,1.36-3.85,3.65-3.85c2.54,0,3.24,1.75,3.28,2.57h-2.03c-.13-.59-.48-1-1.29-1-.95,0-1.49.8-1.49,2.21,0,1.54.57,2.25,1.48,2.25.72,0,1.1-.41,1.29-.95h2.05Z"/><path class="cls-16" d="m596.24,171.87h1.16v-1.96h2.08v1.96h1.47v1.51h-1.47v3.58c0,.55.17.76.8.76.12,0,.32,0,.47-.02v1.38c-.41.13-.98.14-1.4.14-1.47,0-1.95-.76-1.95-2.02v-3.81h-1.16v-1.51Z"/><path class="cls-16" d="m603.73,176.94c.16.58.65.9,1.42.9s1.05-.27,1.05-.71c0-.46-.32-.65-1.4-.9-2.45-.58-2.85-1.31-2.85-2.34s.78-2.2,3.05-2.2,3.06,1.2,3.12,2.18h-1.98c-.07-.27-.25-.77-1.23-.77-.69,0-.91.29-.91.62,0,.36.23.54,1.46.81,2.51.56,2.87,1.39,2.87,2.46,0,1.2-.95,2.29-3.24,2.29s-3.23-1.06-3.39-2.35h2.05Z"/></g><g><path class="cls-16" d="m342.39,272.74h4.15c2.13,0,3.58,1.15,3.58,2.99,0,2.1-1.65,3.06-3.63,3.06h-1.93v3.61h-2.17v-9.66Zm2.17,4.39h1.65c1,0,1.71-.37,1.71-1.36s-.75-1.37-1.67-1.37h-1.7v2.73Z"/><path class="cls-16" d="m351.42,277.12c0-.72,0-1.36-.01-1.97h2.04c.03.16.05.88.05,1.27.33-.83,1.13-1.43,2.42-1.44v1.92c-1.51-.04-2.42.35-2.42,2.34v3.16h-2.08v-5.28Z"/><path class="cls-16" d="m364.02,278.76c0,2.19-1.36,3.81-3.75,3.81s-3.7-1.6-3.7-3.77,1.4-3.82,3.79-3.82c2.22,0,3.65,1.51,3.65,3.78Zm-5.33.01c0,1.4.62,2.22,1.63,2.22s1.59-.83,1.59-2.21c0-1.52-.58-2.23-1.62-2.23-.97,0-1.6.69-1.6,2.22Z"/><path class="cls-16" d="m366.76,275.15c.72,2.46,1.31,4.6,1.46,5.48h.01c.21-1.2.95-3.38,1.6-5.48h2.08l-2.66,7.25h-2.19l-2.55-7.25h2.24Z"/><path class="cls-16" d="m372.95,272.18h2.08v1.79h-2.08v-1.79Zm0,2.97h2.08v7.25h-2.08v-7.25Z"/><path class="cls-16" d="m383.81,272.18v8.23c0,.66,0,1.33.01,1.99h-2c-.04-.22-.08-.59-.09-.76-.36.57-1.01.93-2.14.93-1.9,0-3.11-1.47-3.11-3.73s1.29-3.85,3.42-3.85c1.08,0,1.66.37,1.83.69v-3.5h2.08Zm-5.19,6.61c0,1.41.57,2.18,1.59,2.18,1.43,0,1.6-1.15,1.6-2.19,0-1.24-.18-2.18-1.54-2.18-1.09,0-1.65.82-1.65,2.19Z"/><path class="cls-16" d="m387.31,279.21c0,.91.47,1.79,1.51,1.79.87,0,1.12-.34,1.31-.77h2.09c-.27.89-1.09,2.34-3.45,2.34s-3.55-1.79-3.55-3.69c0-2.27,1.21-3.9,3.63-3.9,2.59,0,3.46,1.8,3.46,3.61,0,.25,0,.41-.03.61h-4.97Zm2.91-1.23c-.01-.84-.36-1.55-1.38-1.55s-1.4.66-1.48,1.55h2.86Z"/><path class="cls-16" d="m342.39,289.54h7v1.71h-4.88v2.37h4.57v1.71h-4.57v3.87h-2.12v-9.66Z"/><path class="cls-16" d="m350.68,288.98h2.08v1.79h-2.08v-1.79Zm0,2.97h2.08v7.25h-2.08v-7.25Z"/><path class="cls-16" d="m354.64,293.92c0-.72,0-1.36-.01-1.97h2.04c.03.16.05.88.05,1.27.33-.83,1.13-1.43,2.42-1.44v1.92c-1.51-.04-2.42.35-2.42,2.34v3.16h-2.08v-5.28Z"/><path class="cls-16" d="m361.9,297.02c.16.58.65.9,1.42.9s1.05-.27,1.05-.71c0-.46-.32-.65-1.4-.9-2.45-.58-2.85-1.31-2.85-2.34s.78-2.2,3.05-2.2,3.06,1.2,3.12,2.18h-1.98c-.07-.27-.25-.77-1.23-.77-.69,0-.91.29-.91.62,0,.36.23.54,1.46.81,2.51.56,2.87,1.39,2.87,2.46,0,1.2-.95,2.29-3.24,2.29s-3.23-1.06-3.39-2.35h2.05Z"/><path class="cls-16" d="m367.04,291.95h1.16v-1.96h2.08v1.96h1.47v1.51h-1.47v3.58c0,.55.17.76.8.76.12,0,.32,0,.47-.02v1.38c-.41.13-.98.14-1.4.14-1.47,0-1.95-.76-1.95-2.02v-3.81h-1.16v-1.51Z"/><path class="cls-16" d="m376.57,288.98h2.08v3.74c.31-.47.93-.94,2.15-.94,2.05,0,3.07,1.63,3.07,3.66s-1.11,3.92-3.27,3.92c-1.12,0-1.61-.33-1.98-.86,0,.24-.04.5-.08.69h-1.99c.01-.79.01-1.58.01-2.37v-7.85Zm5.19,6.51c0-1.21-.47-2.09-1.59-2.09-1.19,0-1.61.75-1.61,2.22,0,1.22.38,2.16,1.59,2.16,1.06,0,1.61-.92,1.61-2.29Z"/><path class="cls-16" d="m391.51,297.33c0,.69.06,1.7.1,1.87h-1.99c-.06-.14-.1-.53-.11-.71-.27.41-.78.88-2.12.88-1.81,0-2.58-1.15-2.58-2.27,0-1.65,1.38-2.41,3.58-2.41h1.07v-.44c0-.52-.19-1.02-1.16-1.02-.88,0-1.07.36-1.17.89h-1.98c.11-1.29.94-2.33,3.23-2.32,2.02.01,3.11.77,3.11,2.5v3.05Zm-2.03-1.43h-.85c-1.26,0-1.72.37-1.72,1.07,0,.53.33.97,1.08.97,1.32,0,1.49-.89,1.49-1.84v-.19Z"/><path class="cls-16" d="m392.51,291.95h1.16v-1.96h2.08v1.96h1.47v1.51h-1.47v3.58c0,.55.17.76.8.76.12,0,.32,0,.47-.02v1.38c-.41.13-.98.14-1.4.14-1.47,0-1.95-.76-1.95-2.02v-3.81h-1.16v-1.51Z"/><path class="cls-16" d="m404.89,296.86c-.26,1.21-1.14,2.51-3.38,2.51s-3.55-1.56-3.55-3.74,1.36-3.85,3.65-3.85c2.54,0,3.24,1.75,3.28,2.57h-2.03c-.13-.59-.48-1-1.29-1-.95,0-1.49.8-1.49,2.21,0,1.54.57,2.25,1.48,2.25.72,0,1.1-.41,1.29-.95h2.05Z"/><path class="cls-16" d="m408.25,288.98v3.83c.33-.47.94-1.02,2.16-1.02,1.4,0,2.52.8,2.52,2.77v4.65h-2.07v-4.35c0-.94-.35-1.44-1.22-1.44-1.16,0-1.39.83-1.39,1.95v3.85h-2.08v-10.22h2.08Z"/><path class="cls-16" d="m418.32,293.82c0-.63,0-1.25-.01-1.87h1.99c.03.18.07.58.08.86.38-.54.99-1.03,2.09-1.03s1.68.54,1.94,1.1c.44-.59,1.09-1.1,2.32-1.1,1.31,0,2.39.78,2.39,2.66v4.76h-2.03v-4.51c0-.66-.25-1.3-1.1-1.3s-1.23.55-1.23,1.66v4.15h-2.04v-4.44c0-.75-.19-1.36-1.08-1.36s-1.25.5-1.25,1.75v4.05h-2.06v-5.38Z"/><path class="cls-16" d="m430.98,288.98h2.08v1.79h-2.08v-1.79Zm0,2.97h2.08v7.25h-2.08v-7.25Z"/><path class="cls-16" d="m434.95,293.78c0-.62,0-1.29-.01-1.83h2.02c.04.19.07.69.08.92.26-.46.86-1.09,2.18-1.09,1.51,0,2.49.98,2.49,2.81v4.61h-2.08v-4.39c0-.81-.28-1.41-1.2-1.41s-1.39.47-1.39,1.75v4.04h-2.08v-5.42Z"/><path class="cls-16" d="m443.55,288.98h2.08v1.79h-2.08v-1.79Zm0,2.97h2.08v7.25h-2.08v-7.25Z"/><path class="cls-16" d="m447.52,293.78c0-.62,0-1.29-.01-1.83h2.02c.04.19.07.69.08.92.26-.46.86-1.09,2.18-1.09,1.51,0,2.49.98,2.49,2.81v4.61h-2.08v-4.39c0-.81-.28-1.41-1.2-1.41s-1.39.47-1.39,1.75v4.04h-2.08v-5.42Z"/><path class="cls-16" d="m462.97,298.32c0,2.33-.89,3.8-3.74,3.8s-3.29-1.48-3.36-2.3h2.12c.15.5.53.84,1.33.84,1.35,0,1.61-.79,1.61-2.22v-.35c-.39.63-1.02,1.02-2.12,1.02-1.98,0-3.11-1.57-3.11-3.51,0-2.27,1.41-3.82,3.29-3.82,1.29,0,1.83.59,1.94.92.01-.2.07-.64.08-.76h1.98c-.01.65-.02,1.38-.02,2.08v4.29Zm-5.14-2.81c0,1.25.65,1.98,1.57,1.98,1.25,0,1.59-.83,1.59-2.05s-.22-2.06-1.55-2.06c-.9,0-1.61.67-1.61,2.12Z"/></g><g><path class="cls-16" d="m342.12,17.29h4.15c2.13,0,3.58,1.15,3.58,2.99,0,2.1-1.65,3.06-3.63,3.06h-1.93v3.61h-2.17v-9.66Zm2.17,4.39h1.65c1,0,1.71-.37,1.71-1.36s-.75-1.37-1.67-1.37h-1.7v2.73Z"/><path class="cls-16" d="m351.15,21.66c0-.72,0-1.36-.01-1.97h2.04c.03.16.05.88.05,1.27.33-.83,1.13-1.43,2.42-1.44v1.92c-1.51-.04-2.42.35-2.42,2.34v3.16h-2.08v-5.28Z"/><path class="cls-16" d="m363.75,23.31c0,2.19-1.36,3.81-3.75,3.81s-3.7-1.6-3.7-3.77,1.4-3.82,3.79-3.82c2.22,0,3.65,1.51,3.65,3.78Zm-5.33.01c0,1.4.62,2.22,1.63,2.22s1.59-.83,1.59-2.21c0-1.52-.58-2.23-1.62-2.23-.97,0-1.6.69-1.6,2.22Z"/><path class="cls-16" d="m366.49,19.7c.72,2.46,1.31,4.6,1.46,5.48h.01c.21-1.2.95-3.38,1.6-5.48h2.08l-2.66,7.25h-2.19l-2.55-7.25h2.24Z"/><path class="cls-16" d="m372.67,16.72h2.08v1.79h-2.08v-1.79Zm0,2.97h2.08v7.25h-2.08v-7.25Z"/><path class="cls-16" d="m383.53,16.72v8.23c0,.66,0,1.33.01,1.99h-2c-.04-.22-.08-.59-.09-.76-.36.57-1.01.93-2.14.93-1.9,0-3.11-1.47-3.11-3.73s1.29-3.85,3.42-3.85c1.08,0,1.66.37,1.83.69v-3.5h2.08Zm-5.19,6.61c0,1.41.57,2.18,1.59,2.18,1.43,0,1.6-1.15,1.6-2.19,0-1.24-.18-2.18-1.54-2.18-1.09,0-1.65.82-1.65,2.19Z"/><path class="cls-16" d="m387.04,23.75c0,.91.47,1.79,1.51,1.79.87,0,1.12-.34,1.31-.77h2.09c-.27.89-1.09,2.34-3.45,2.34s-3.55-1.79-3.55-3.69c0-2.27,1.21-3.9,3.63-3.9,2.59,0,3.46,1.8,3.46,3.61,0,.25,0,.41-.03.61h-4.97Zm2.91-1.23c-.01-.84-.36-1.55-1.38-1.55s-1.4.66-1.48,1.55h2.86Z"/><path class="cls-16" d="m348.76,33.52v8.23c0,.66,0,1.33.01,1.99h-2c-.04-.22-.08-.59-.09-.76-.36.57-1.01.93-2.14.93-1.9,0-3.11-1.47-3.11-3.73s1.29-3.85,3.42-3.85c1.08,0,1.66.37,1.83.69v-3.5h2.08Zm-5.19,6.61c0,1.41.57,2.18,1.59,2.18,1.43,0,1.6-1.15,1.6-2.19,0-1.24-.18-2.18-1.54-2.18-1.09,0-1.65.82-1.65,2.19Z"/><path class="cls-16" d="m357.24,41.64c0,.7,0,1.46.01,2.11h-2.04c-.03-.19-.04-.58-.06-.84-.45.73-1.11,1-2.07,1-1.53,0-2.51-.9-2.51-2.7v-4.72h2.08v4.32c0,.8.26,1.46,1.16,1.46.95,0,1.34-.49,1.34-1.92v-3.86h2.08v5.14Z"/><path class="cls-16" d="m360.83,40.55c0,.91.47,1.79,1.51,1.79.87,0,1.12-.34,1.31-.77h2.09c-.27.89-1.09,2.34-3.45,2.34s-3.55-1.79-3.55-3.69c0-2.27,1.21-3.9,3.63-3.9,2.59,0,3.46,1.8,3.46,3.61,0,.25,0,.41-.03.61h-4.97Zm2.91-1.23c-.01-.84-.36-1.55-1.38-1.55s-1.4.66-1.48,1.55h2.86Z"/><path class="cls-16" d="m377.53,33.52v8.23c0,.66,0,1.33.01,1.99h-2c-.04-.22-.08-.59-.09-.76-.36.57-1.01.93-2.14.93-1.9,0-3.11-1.47-3.11-3.73s1.29-3.85,3.42-3.85c1.08,0,1.66.37,1.83.69v-3.5h2.08Zm-5.19,6.61c0,1.41.57,2.18,1.59,2.18,1.43,0,1.6-1.15,1.6-2.19,0-1.24-.18-2.18-1.54-2.18-1.09,0-1.65.82-1.65,2.19Z"/><path class="cls-16" d="m379.37,33.52h2.08v1.79h-2.08v-1.79Zm0,2.97h2.08v7.25h-2.08v-7.25Z"/><path class="cls-16" d="m383.33,43.75v-10.22h2.08v10.22h-2.08Z"/><path class="cls-16" d="m387.28,33.52h2.08v1.79h-2.08v-1.79Zm0,2.97h2.08v7.25h-2.08v-7.25Z"/><path class="cls-16" d="m398.08,42.86c0,2.33-.89,3.8-3.74,3.8s-3.29-1.48-3.36-2.3h2.12c.15.5.53.84,1.33.84,1.35,0,1.61-.79,1.61-2.22v-.35c-.39.63-1.02,1.02-2.12,1.02-1.98,0-3.11-1.57-3.11-3.51,0-2.27,1.41-3.82,3.29-3.82,1.29,0,1.83.59,1.94.92.01-.2.07-.64.08-.76h1.98c-.01.65-.02,1.38-.02,2.08v4.29Zm-5.14-2.81c0,1.25.65,1.98,1.57,1.98,1.25,0,1.59-.83,1.59-2.05s-.22-2.06-1.55-2.06c-.9,0-1.61.67-1.61,2.12Z"/><path class="cls-16" d="m401.64,40.55c0,.91.47,1.79,1.51,1.79.87,0,1.12-.34,1.31-.77h2.09c-.27.89-1.09,2.34-3.45,2.34s-3.55-1.79-3.55-3.69c0-2.27,1.21-3.9,3.63-3.9,2.59,0,3.46,1.8,3.46,3.61,0,.25,0,.41-.03.61h-4.97Zm2.91-1.23c-.01-.84-.36-1.55-1.38-1.55s-1.4.66-1.48,1.55h2.86Z"/><path class="cls-16" d="m408.11,38.32c0-.62,0-1.29-.01-1.83h2.02c.04.19.07.69.08.92.26-.46.86-1.09,2.18-1.09,1.51,0,2.49.98,2.49,2.81v4.61h-2.08v-4.39c0-.81-.28-1.41-1.2-1.41s-1.39.47-1.39,1.75v4.04h-2.08v-5.42Z"/><path class="cls-16" d="m423.23,41.4c-.26,1.21-1.14,2.51-3.38,2.51s-3.55-1.56-3.55-3.74,1.36-3.85,3.65-3.85c2.54,0,3.24,1.75,3.28,2.57h-2.03c-.13-.59-.48-1-1.29-1-.95,0-1.49.8-1.49,2.21,0,1.54.57,2.25,1.48,2.25.72,0,1.1-.41,1.29-.95h2.05Z"/><path class="cls-16" d="m426.28,40.55c0,.91.47,1.79,1.51,1.79.87,0,1.12-.34,1.31-.77h2.09c-.27.89-1.09,2.34-3.45,2.34s-3.55-1.79-3.55-3.69c0-2.27,1.21-3.9,3.63-3.9,2.59,0,3.46,1.8,3.46,3.61,0,.25,0,.41-.03.61h-4.97Zm2.91-1.23c-.01-.84-.36-1.55-1.38-1.55s-1.4.66-1.48,1.55h2.86Z"/></g><g><path class="cls-16" d="m181.32,152.98h4.15c2.13,0,3.58,1.15,3.58,2.99,0,2.1-1.65,3.06-3.63,3.06h-1.93v3.61h-2.17v-9.66Zm2.17,4.39h1.65c1,0,1.71-.37,1.71-1.36s-.75-1.37-1.67-1.37h-1.7v2.73Z"/><path class="cls-16" d="m196.36,160.77c0,.69.06,1.7.1,1.87h-1.99c-.06-.14-.1-.53-.11-.71-.27.41-.78.88-2.12.88-1.81,0-2.58-1.15-2.58-2.27,0-1.65,1.38-2.41,3.58-2.41h1.07v-.44c0-.52-.19-1.02-1.16-1.02-.88,0-1.07.36-1.17.89h-1.98c.11-1.29.94-2.33,3.23-2.32,2.02.01,3.11.77,3.11,2.5v3.05Zm-2.03-1.43h-.85c-1.26,0-1.72.37-1.72,1.07,0,.53.33.97,1.08.97,1.32,0,1.49-.89,1.49-1.84v-.19Z"/><path class="cls-16" d="m198.24,157.36c0-.72,0-1.36-.01-1.97h2.04c.03.16.05.88.05,1.27.33-.83,1.13-1.43,2.42-1.44v1.92c-1.51-.04-2.42.35-2.42,2.34v3.16h-2.08v-5.28Z"/><path class="cls-16" d="m203.53,155.39h1.16v-1.96h2.08v1.96h1.47v1.51h-1.47v3.58c0,.55.17.76.8.76.12,0,.32,0,.47-.02v1.38c-.41.13-.98.14-1.4.14-1.47,0-1.95-.76-1.95-2.02v-3.81h-1.16v-1.51Z"/><path class="cls-16" d="m209.48,157.22c0-.62,0-1.29-.01-1.83h2.02c.04.19.07.69.08.92.26-.46.86-1.09,2.18-1.09,1.51,0,2.49.98,2.49,2.81v4.61h-2.08v-4.39c0-.81-.28-1.41-1.2-1.41s-1.39.47-1.39,1.75v4.04h-2.08v-5.42Z"/><path class="cls-16" d="m219.74,159.45c0,.91.47,1.79,1.51,1.79.87,0,1.12-.34,1.31-.77h2.09c-.27.89-1.09,2.34-3.45,2.34s-3.55-1.79-3.55-3.69c0-2.27,1.21-3.9,3.63-3.9,2.59,0,3.46,1.8,3.46,3.61,0,.25,0,.41-.03.61h-4.97Zm2.91-1.23c-.01-.84-.36-1.55-1.38-1.55s-1.4.66-1.48,1.55h2.86Z"/><path class="cls-16" d="m226.19,157.36c0-.72,0-1.36-.01-1.97h2.04c.03.16.05.88.05,1.27.33-.83,1.13-1.43,2.42-1.44v1.92c-1.51-.04-2.42.35-2.42,2.34v3.16h-2.08v-5.28Z"/><path class="cls-16" d="m233.46,160.46c.16.58.65.9,1.42.9s1.05-.27,1.05-.71c0-.46-.32-.65-1.4-.9-2.45-.58-2.85-1.31-2.85-2.34s.78-2.2,3.05-2.2,3.06,1.2,3.12,2.18h-1.98c-.07-.27-.25-.77-1.23-.77-.69,0-.91.29-.91.62,0,.36.23.54,1.46.81,2.51.56,2.87,1.39,2.87,2.46,0,1.2-.95,2.29-3.24,2.29s-3.23-1.06-3.39-2.35h2.05Z"/><path class="cls-16" d="m241.43,152.42v3.83c.33-.47.94-1.02,2.16-1.02,1.4,0,2.52.8,2.52,2.77v4.65h-2.07v-4.35c0-.94-.35-1.44-1.22-1.44-1.16,0-1.39.83-1.39,1.95v3.85h-2.08v-10.22h2.08Z"/><path class="cls-16" d="m247.98,152.42h2.08v1.79h-2.08v-1.79Zm0,2.97h2.08v7.25h-2.08v-7.25Z"/><path class="cls-16" d="m254.01,162v3.42h-2.07v-8.28c0-.59,0-1.17-.01-1.75h2.02c.03.19.07.64.07.9.32-.53.99-1.07,2.19-1.07,1.69,0,3,1.36,3,3.61,0,2.56-1.46,3.98-3.28,3.98-1.06,0-1.62-.39-1.9-.81Zm3.07-3.09c0-1.33-.56-2.08-1.55-2.08-1.18,0-1.6.73-1.6,2.19,0,1.38.39,2.19,1.51,2.19s1.64-.83,1.64-2.3Z"/></g><g><path class="cls-16" d="m66.33,17.22v9.66h-2.17v-9.66h2.17Z"/><path class="cls-16" d="m68.25,21.45c0-.62,0-1.29-.01-1.83h2.02c.04.19.07.69.08.92.26-.46.86-1.09,2.18-1.09,1.51,0,2.49.98,2.49,2.81v4.61h-2.08v-4.39c0-.81-.28-1.41-1.2-1.41s-1.39.47-1.39,1.75v4.04h-2.08v-5.42Z"/><path class="cls-16" d="m78.15,19.62c.72,2.46,1.31,4.6,1.46,5.48h.01c.21-1.2.95-3.38,1.6-5.48h2.08l-2.66,7.25h-2.19l-2.55-7.25h2.24Z"/><path class="cls-16" d="m85.87,23.68c0,.91.47,1.79,1.51,1.79.87,0,1.12-.34,1.31-.77h2.09c-.27.89-1.09,2.34-3.45,2.34s-3.55-1.79-3.55-3.69c0-2.27,1.21-3.9,3.63-3.9,2.59,0,3.46,1.8,3.46,3.61,0,.25,0,.41-.03.61h-4.97Zm2.91-1.23c-.01-.84-.36-1.55-1.38-1.55s-1.4.66-1.48,1.55h2.86Z"/><path class="cls-16" d="m93.83,24.69c.16.58.65.9,1.42.9s1.05-.27,1.05-.71c0-.46-.32-.65-1.4-.9-2.45-.58-2.85-1.31-2.85-2.34s.78-2.2,3.05-2.2,3.06,1.2,3.12,2.18h-1.98c-.07-.27-.25-.77-1.23-.77-.69,0-.91.29-.91.62,0,.36.23.54,1.46.81,2.51.56,2.87,1.39,2.87,2.46,0,1.2-.95,2.29-3.24,2.29s-3.23-1.06-3.39-2.35h2.05Z"/><path class="cls-16" d="m98.98,19.62h1.16v-1.96h2.08v1.96h1.47v1.51h-1.47v3.58c0,.55.17.76.8.76.12,0,.32,0,.47-.02v1.38c-.41.13-.98.14-1.4.14-1.47,0-1.95-.76-1.95-2.02v-3.81h-1.16v-1.51Z"/><path class="cls-16" d="m111.84,23.23c0,2.19-1.36,3.81-3.75,3.81s-3.7-1.6-3.7-3.77,1.4-3.82,3.79-3.82c2.22,0,3.65,1.51,3.65,3.78Zm-5.33.01c0,1.4.62,2.22,1.63,2.22s1.59-.83,1.59-2.21c0-1.52-.58-2.23-1.62-2.23-.97,0-1.6.69-1.6,2.22Z"/><path class="cls-16" d="m113.27,21.59c0-.72,0-1.36-.01-1.97h2.04c.03.16.05.88.05,1.27.33-.83,1.13-1.43,2.42-1.44v1.92c-1.51-.04-2.42.35-2.42,2.34v3.16h-2.08v-5.28Z"/><path class="cls-16" d="m63.91,38.39c0-.72,0-1.36-.01-1.97h2.04c.03.16.05.88.05,1.27.33-.83,1.13-1.43,2.42-1.44v1.92c-1.51-.04-2.42.35-2.42,2.34v3.16h-2.08v-5.28Z"/><path class="cls-16" d="m71.16,40.48c0,.91.47,1.79,1.51,1.79.87,0,1.12-.34,1.31-.77h2.09c-.27.89-1.09,2.34-3.45,2.34s-3.55-1.79-3.55-3.69c0-2.27,1.21-3.9,3.63-3.9,2.59,0,3.46,1.8,3.46,3.61,0,.25,0,.41-.03.61h-4.97Zm2.91-1.23c-.01-.84-.36-1.55-1.38-1.55s-1.4.66-1.48,1.55h2.86Z"/><path class="cls-16" d="m77.57,43.67v-10.22h2.08v10.22h-2.08Z"/><path class="cls-16" d="m87.71,41.8c0,.69.06,1.7.1,1.87h-1.99c-.06-.14-.1-.53-.11-.71-.27.41-.78.88-2.12.88-1.81,0-2.58-1.15-2.58-2.27,0-1.65,1.38-2.41,3.58-2.41h1.07v-.44c0-.52-.19-1.02-1.16-1.02-.88,0-1.07.36-1.17.89h-1.98c.11-1.29.94-2.33,3.23-2.32,2.02.01,3.11.77,3.11,2.5v3.05Zm-2.03-1.43h-.85c-1.26,0-1.72.37-1.72,1.07,0,.53.33.97,1.08.97,1.32,0,1.49-.89,1.49-1.84v-.19Z"/><path class="cls-16" d="m88.71,36.42h1.16v-1.96h2.08v1.96h1.47v1.51h-1.47v3.58c0,.55.17.76.8.76.12,0,.32,0,.47-.02v1.38c-.41.13-.98.14-1.4.14-1.47,0-1.95-.76-1.95-2.02v-3.81h-1.16v-1.51Z"/><path class="cls-16" d="m94.59,33.45h2.08v1.79h-2.08v-1.79Zm0,2.97h2.08v7.25h-2.08v-7.25Z"/><path class="cls-16" d="m105.55,40.03c0,2.19-1.36,3.81-3.75,3.81s-3.7-1.6-3.7-3.77,1.4-3.82,3.79-3.82c2.22,0,3.65,1.51,3.65,3.78Zm-5.33.01c0,1.4.62,2.22,1.63,2.22s1.59-.83,1.59-2.21c0-1.52-.58-2.23-1.62-2.23-.97,0-1.6.69-1.6,2.22Z"/><path class="cls-16" d="m106.99,38.25c0-.62,0-1.29-.01-1.83h2.02c.04.19.07.69.08.92.26-.46.86-1.09,2.18-1.09,1.51,0,2.49.98,2.49,2.81v4.61h-2.08v-4.39c0-.81-.28-1.41-1.2-1.41s-1.39.47-1.39,1.75v4.04h-2.08v-5.42Z"/><path class="cls-16" d="m117,41.49c.16.58.65.9,1.42.9s1.05-.27,1.05-.71c0-.46-.32-.65-1.4-.9-2.45-.58-2.85-1.31-2.85-2.34s.78-2.2,3.05-2.2,3.06,1.2,3.12,2.18h-1.98c-.07-.27-.25-.77-1.23-.77-.69,0-.91.29-.91.62,0,.36.23.54,1.46.81,2.51.56,2.87,1.39,2.87,2.46,0,1.2-.95,2.29-3.24,2.29s-3.23-1.06-3.39-2.35h2.05Z"/><path class="cls-16" d="m124.98,33.45v3.83c.33-.47.94-1.02,2.16-1.02,1.4,0,2.52.8,2.52,2.77v4.65h-2.07v-4.35c0-.94-.35-1.44-1.22-1.44-1.16,0-1.39.83-1.39,1.95v3.85h-2.08v-10.22h2.08Z"/><path class="cls-16" d="m131.53,33.45h2.08v1.79h-2.08v-1.79Zm0,2.97h2.08v7.25h-2.08v-7.25Z"/><path class="cls-16" d="m137.55,43.03v3.42h-2.07v-8.28c0-.59,0-1.17-.01-1.75h2.02c.03.19.07.64.07.9.32-.53.99-1.07,2.19-1.07,1.69,0,3,1.36,3,3.61,0,2.56-1.46,3.98-3.28,3.98-1.06,0-1.62-.39-1.9-.81Zm3.07-3.09c0-1.33-.56-2.08-1.55-2.08-1.18,0-1.6.73-1.6,2.19,0,1.38.39,2.19,1.51,2.19s1.64-.83,1.64-2.3Z"/></g><g><path class="cls-16" d="m64.17,272.74h7v1.71h-4.88v2.37h4.57v1.71h-4.57v3.87h-2.12v-9.66Z"/><path class="cls-16" d="m72.45,272.18h2.08v1.79h-2.08v-1.79Zm0,2.97h2.08v7.25h-2.08v-7.25Z"/><path class="cls-16" d="m76.41,277.12c0-.72,0-1.36-.01-1.97h2.04c.03.16.05.88.05,1.27.33-.83,1.13-1.43,2.42-1.44v1.92c-1.51-.04-2.42.35-2.42,2.34v3.16h-2.08v-5.28Z"/><path class="cls-16" d="m83.67,280.22c.16.58.65.9,1.42.9s1.05-.27,1.05-.71c0-.46-.32-.65-1.4-.9-2.45-.58-2.85-1.31-2.85-2.34s.78-2.2,3.05-2.2,3.06,1.2,3.12,2.18h-1.98c-.07-.27-.25-.77-1.23-.77-.69,0-.91.29-.91.62,0,.36.23.54,1.46.81,2.51.56,2.87,1.39,2.87,2.46,0,1.2-.95,2.29-3.24,2.29s-3.23-1.06-3.39-2.35h2.05Z"/><path class="cls-16" d="m88.82,275.15h1.16v-1.96h2.08v1.96h1.47v1.51h-1.47v3.58c0,.55.17.76.8.76.12,0,.32,0,.47-.02v1.38c-.41.13-.98.14-1.4.14-1.47,0-1.95-.76-1.95-2.02v-3.81h-1.16v-1.51Z"/><path class="cls-16" d="m98.34,272.18h2.08v3.74c.31-.47.93-.94,2.15-.94,2.05,0,3.07,1.63,3.07,3.66s-1.11,3.92-3.27,3.92c-1.12,0-1.61-.33-1.98-.86,0,.24-.04.5-.08.69h-1.99c.01-.79.01-1.58.01-2.37v-7.85Zm5.19,6.51c0-1.21-.47-2.09-1.59-2.09-1.19,0-1.61.75-1.61,2.22,0,1.22.38,2.16,1.59,2.16,1.06,0,1.61-.92,1.61-2.29Z"/><path class="cls-16" d="m113.28,280.53c0,.69.06,1.7.1,1.87h-1.99c-.06-.14-.1-.53-.11-.71-.27.41-.78.88-2.12.88-1.81,0-2.58-1.15-2.58-2.27,0-1.65,1.38-2.41,3.58-2.41h1.07v-.44c0-.52-.19-1.02-1.16-1.02-.88,0-1.07.36-1.17.89h-1.98c.11-1.29.94-2.33,3.23-2.32,2.02.01,3.11.77,3.11,2.5v3.05Zm-2.03-1.43h-.85c-1.26,0-1.72.37-1.72,1.07,0,.53.33.97,1.08.97,1.32,0,1.49-.89,1.49-1.84v-.19Z"/><path class="cls-16" d="m114.28,275.15h1.16v-1.96h2.08v1.96h1.47v1.51h-1.47v3.58c0,.55.17.76.8.76.12,0,.32,0,.47-.02v1.38c-.41.13-.98.14-1.4.14-1.47,0-1.95-.76-1.95-2.02v-3.81h-1.16v-1.51Z"/><path class="cls-16" d="m126.66,280.06c-.26,1.21-1.14,2.51-3.38,2.51s-3.55-1.56-3.55-3.74,1.36-3.85,3.65-3.85c2.54,0,3.24,1.75,3.28,2.57h-2.03c-.13-.59-.48-1-1.29-1-.95,0-1.49.8-1.49,2.21,0,1.54.57,2.25,1.48,2.25.72,0,1.1-.41,1.29-.95h2.05Z"/><path class="cls-16" d="m130.02,272.18v3.83c.33-.47.94-1.02,2.16-1.02,1.4,0,2.52.8,2.52,2.77v4.65h-2.07v-4.35c0-.94-.35-1.44-1.22-1.44-1.16,0-1.39.83-1.39,1.95v3.85h-2.08v-10.22h2.08Z"/><path class="cls-16" d="m140.09,277.02c0-.63,0-1.25-.01-1.87h1.99c.03.18.07.58.08.86.38-.54.99-1.03,2.09-1.03s1.68.54,1.94,1.1c.44-.59,1.09-1.1,2.32-1.1,1.31,0,2.39.78,2.39,2.66v4.76h-2.03v-4.51c0-.66-.25-1.3-1.1-1.3s-1.23.55-1.23,1.66v4.15h-2.04v-4.44c0-.75-.19-1.36-1.08-1.36s-1.25.5-1.25,1.75v4.05h-2.06v-5.38Z"/><path class="cls-16" d="m152.75,272.18h2.08v1.79h-2.08v-1.79Zm0,2.97h2.08v7.25h-2.08v-7.25Z"/><path class="cls-16" d="m156.72,276.98c0-.62,0-1.29-.01-1.83h2.02c.04.19.07.69.08.92.26-.46.86-1.09,2.18-1.09,1.51,0,2.49.98,2.49,2.81v4.61h-2.08v-4.39c0-.81-.28-1.41-1.2-1.41s-1.39.47-1.39,1.75v4.04h-2.08v-5.42Z"/><path class="cls-16" d="m165.32,272.18h2.08v1.79h-2.08v-1.79Zm0,2.97h2.08v7.25h-2.08v-7.25Z"/><path class="cls-16" d="m169.29,276.98c0-.62,0-1.29-.01-1.83h2.02c.04.19.07.69.08.92.26-.46.86-1.09,2.18-1.09,1.51,0,2.49.98,2.49,2.81v4.61h-2.08v-4.39c0-.81-.28-1.41-1.2-1.41s-1.39.47-1.39,1.75v4.04h-2.08v-5.42Z"/><path class="cls-16" d="m184.74,281.52c0,2.33-.89,3.8-3.74,3.8s-3.29-1.48-3.36-2.3h2.12c.15.5.53.84,1.33.84,1.35,0,1.61-.79,1.61-2.22v-.35c-.39.63-1.02,1.02-2.12,1.02-1.98,0-3.11-1.57-3.11-3.51,0-2.27,1.41-3.82,3.29-3.82,1.29,0,1.83.59,1.94.92.01-.2.07-.64.08-.76h1.98c-.01.65-.02,1.38-.02,2.08v4.29Zm-5.14-2.81c0,1.25.65,1.98,1.57,1.98,1.25,0,1.59-.83,1.59-2.05s-.22-2.06-1.55-2.06c-.9,0-1.61.67-1.61,2.12Z"/></g></g></svg>