<?xml version="1.0" encoding="UTF-8"?><svg xmlns="http://www.w3.org/2000/svg" xmlns:xlink="http://www.w3.org/1999/xlink" viewBox="0 0 821.86 317.04"><defs><style>.cls-1{fill:url(#linear-gradient-4);}.cls-1,.cls-2,.cls-3,.cls-4,.cls-5,.cls-6,.cls-7,.cls-8,.cls-9,.cls-10,.cls-11,.cls-12{fill-rule:evenodd;}.cls-13{fill:url(#green-grad);}.cls-2{fill:url(#linear-gradient-2);}.cls-3{fill:url(#linear-gradient);}.cls-4{fill:url(#linear-gradient-5);}.cls-5{fill:url(#glass-grad-5);}.cls-6{fill:url(#glass-grad-3);}.cls-14{fill:url(#green-grad-3);}.cls-7{fill:url(#green-grad-5);}.cls-8{fill:url(#glass-grad-4);}.cls-9{fill:url(#glass-grad);}.cls-15{fill:url(#green-grad-4);}.cls-16{fill:#e1eeef;}.cls-17{fill:url(#green-grad-2);}.cls-10{fill:url(#green-grad-6);}.cls-11{fill:url(#glass-grad-2);stroke:url(#gold-grad);stroke-miterlimit:10;stroke-width:2px;}.cls-12{fill:url(#linear-gradient-3);}</style><linearGradient id="glass-grad" x1="698.32" y1="102.48" x2="810.4" y2="214.56" gradientUnits="userSpaceOnUse"><stop offset="0" stop-color="#e1eeef" stop-opacity=".4"/><stop offset="1" stop-color="#a1d0d0" stop-opacity=".2"/></linearGradient><linearGradient id="green-grad" x1="697.58" y1="115.95" x2="710.93" y2="129.31" gradientUnits="userSpaceOnUse"><stop offset="0" stop-color="#54e280"/><stop offset="1" stop-color="#1ec498"/></linearGradient><linearGradient id="glass-grad-2" x1="-260.38" y1="2504.08" x2="-252.3" y2="2496" gradientTransform="translate(4029.71 34838.2) scale(13.87 -13.87)" xlink:href="#glass-grad"/><linearGradient id="gold-grad" x1="417.07" y1="101.77" x2="530.57" y2="215.27" gradientUnits="userSpaceOnUse"><stop offset="0" stop-color="#ffcc4a"/><stop offset="1" stop-color="#e85f1a"/></linearGradient><linearGradient id="green-grad-2" x1="421.53" y1="118.78" x2="432.39" y2="129.65" xlink:href="#green-grad"/><linearGradient id="glass-grad-3" x1="211.22" y1="206.53" x2="322.22" y2="317.54" xlink:href="#glass-grad"/><linearGradient id="green-grad-3" x1="209.72" y1="220.37" x2="223.13" y2="233.78" xlink:href="#green-grad"/><linearGradient id="glass-grad-4" x1="-273.59" y1="2502.07" x2="-265.24" y2="2493.71" gradientTransform="translate(3844.9 33230.29) scale(13.28 -13.28)" xlink:href="#glass-grad"/><linearGradient id="green-grad-4" x1="209.66" y1="13.82" x2="224.38" y2="28.55" xlink:href="#green-grad"/><linearGradient id="glass-grad-5" x1="-289.67" y1="2504.01" x2="-281.58" y2="2495.93" gradientTransform="translate(4028.2 34825.09) scale(13.87 -13.87)" xlink:href="#glass-grad"/><linearGradient id="green-grad-5" x1="12.99" y1="116.31" x2="24.2" y2="127.52" xlink:href="#green-grad"/><linearGradient id="linear-gradient" x1="-251.7" y1="2439.98" x2="-243.74" y2="2432.01" gradientTransform="translate(3158.53 27258.62) scale(11.09 -11.09)" gradientUnits="userSpaceOnUse"><stop offset="0" stop-color="#54e280"/><stop offset="1" stop-color="#1ec498"/></linearGradient><linearGradient id="linear-gradient-2" x1="-252.92" y1="2989.52" x2="-242.77" y2="2999.68" gradientTransform="translate(3158.53 -33149.58) scale(11.09)" xlink:href="#linear-gradient"/><linearGradient id="linear-gradient-3" x1="66.58" y1="2799" x2="73.56" y2="2792.03" gradientTransform="translate(-22378.63 -409.31) rotate(90) scale(8.1 -8.1)" xlink:href="#linear-gradient"/><linearGradient id="green-grad-6" x1="-346.53" y1="2440.94" x2="-356.43" y2="2431.04" gradientTransform="translate(-3784.67 27258.61) rotate(-180) scale(11.09)" xlink:href="#green-grad"/><linearGradient id="linear-gradient-4" x1="-347.79" y1="2991.04" x2="-355.42" y2="2998.67" gradientTransform="translate(-3784.67 -33149.58) rotate(-180) scale(11.09 -11.09)" xlink:href="#linear-gradient"/><linearGradient id="linear-gradient-5" x1="-224.49" y1="2416.74" x2="-216.73" y2="2408.98" gradientTransform="translate(2828.13 24384.04) scale(10.03 -10.03)" xlink:href="#linear-gradient"/></defs><g id="boxes"><g id="_5"><path id="box" class="cls-9" d="m706.71,103.52h95.31c10.96,0,19.84,7.24,19.84,16.17v77.66c0,8.93-8.88,16.17-19.84,16.17h-95.31c-10.96,0-19.84-7.24-19.84-16.17v-77.66c0-8.93,8.88-16.17,19.84-16.17Z"/><g><path class="cls-16" d="m699.37,140.57h13.36v13.31h-13.68v-1.84h11.51v-9.63h-11.19v-1.84Z"/><path class="cls-16" d="m731.12,155c-4.93-1.45-9.45-2.6-13.57-3.45l.41-2c5.15,1.07,9.65,2.22,13.5,3.46l-.34,2Zm-.37-11.45c-3.77-1.03-7.6-1.86-11.5-2.48l.32-1.87c4.07.59,7.89,1.4,11.46,2.43l-.28,1.92Zm-.99,5.17c-3.14-.98-6.55-1.78-10.24-2.39l.34-1.92c3.75.6,7.15,1.4,10.2,2.39l-.3,1.92Z"/><path class="cls-16" d="m738.61,143.22h9.18c-.15,2.6-.43,5.53-.87,8.81l-.08.62h3.45v1.67h-13.42v-1.67h8c.47-3.16.75-5.74.84-7.75h-7.11v-1.67Z"/><path class="cls-16" d="m754.14,151.47h16.26v1.91h-16.26v-1.91Zm1.85-10.06h12.56v1.89h-12.56v-1.89Z"/><path class="cls-16" d="m772.72,144.79h16.35v1.8h-6.76c-.07,1.54-.26,2.77-.57,3.7-.46,1.41-1.24,2.53-2.34,3.37-.67.5-1.58.99-2.75,1.45l-1.3-1.57c2-.77,3.33-1.77,4-3,.49-.87.76-2.19.82-3.95h-7.46v-1.8Zm2-5.01h12.15v1.8h-12.15v-1.8Z"/><path class="cls-16" d="m799.26,154.98v-7.32c-1.4.88-3.12,1.69-5.16,2.44l-1.01-1.63c2.31-.75,4.28-1.68,5.91-2.8,1.68-1.14,3.15-2.42,4.41-3.84l1.59.96c-1.26,1.39-2.53,2.56-3.81,3.51v8.69h-1.93Z"/></g><path id="num-5" class="cls-13" d="m704.73,120.78c1.26,0,2.36.22,3.3.66s1.67,1.08,2.19,1.92c.53.84.8,1.86.8,3.06,0,1.32-.28,2.46-.84,3.42-.56.95-1.39,1.68-2.47,2.2-1.07.51-2.37.77-3.89.77-.99,0-1.92-.09-2.78-.27-.85-.18-1.58-.44-2.19-.78v-2.41c.65.38,1.42.68,2.33.91.91.23,1.78.34,2.62.34.92,0,1.71-.14,2.39-.42.69-.29,1.22-.73,1.59-1.31.38-.58.56-1.32.56-2.22,0-1.18-.37-2.08-1.11-2.72-.74-.65-1.9-.97-3.48-.97-.52,0-1.09.05-1.72.14-.61.08-1.12.18-1.52.28l-1.22-.75.72-9.12h9.69v2.33h-7.42l-.44,5.25c.32-.07.72-.14,1.19-.2.48-.07,1.05-.11,1.7-.11Z"/></g><g id="_4"><path id="box-2" class="cls-11" d="m426.16,103.52h95.31c10.96,0,19.84,7.24,19.84,16.17v77.66c0,8.93-8.88,16.17-19.84,16.17h-95.31c-10.96,0-19.84-7.24-19.84-16.17v-77.66c0-8.93,8.88-16.17,19.84-16.17Z"/><g><path class="cls-16" d="m417.78,140.9h11.72l2.26,1.98c-.24,2.57-.77,4.6-1.58,6.07-.95,1.73-2.42,3.08-4.41,4.05-1.24.6-2.9,1.14-4.96,1.62l-1.05-1.78c2.03-.36,3.64-.82,4.83-1.39,1.93-.92,3.3-2.32,4.11-4.2.5-1.17.78-2.67.86-4.51h-11.77v-1.84Zm14.88-3.11c.41,0,.8.11,1.17.33.37.21.65.49.85.86.18.33.27.67.27,1.03,0,.57-.21,1.08-.64,1.52-.45.46-1.01.69-1.67.69-.33,0-.64-.07-.95-.21-.38-.17-.68-.42-.92-.74-.28-.39-.42-.81-.42-1.27,0-.36.09-.7.28-1.04.19-.33.44-.6.76-.81.38-.24.81-.36,1.27-.36Zm0,1.08c-.23,0-.44.06-.64.18-.36.22-.54.54-.54.96,0,.3.11.56.32.77.23.23.52.35.86.35.19,0,.37-.04.54-.12.43-.21.64-.54.64-1,0-.32-.12-.59-.36-.82-.22-.22-.49-.33-.82-.33Z"/><path class="cls-16" d="m437.2,140.13h14.32v13.57h-14.32v-13.57Zm2.13,1.87v9.83h10.07v-9.83h-10.07Z"/><path class="cls-16" d="m460.78,147.31c-1.5-.63-3.33-1.28-5.49-1.94l.78-1.76c1.86.47,3.67,1.1,5.42,1.89l-.71,1.81Zm-4.32,4.84c2.49-.2,4.44-.56,5.85-1.09,2.09-.77,3.73-2.14,4.92-4.11.8-1.32,1.43-2.99,1.89-5l1.84,1.03c-.59,2.53-1.41,4.54-2.47,6.04-1.24,1.75-2.97,3.05-5.19,3.88-1.56.58-3.65.99-6.25,1.22l-.58-1.97Zm6.19-9.34c-1.79-.77-3.63-1.42-5.49-1.94l.59-1.74c2.1.5,3.95,1.12,5.54,1.85l-.64,1.84Z"/><path class="cls-16" d="m483.29,138.71h2.09v3.38h4.33v1.8h-4.33v8.69c0,.64-.12,1.11-.36,1.4-.27.34-.83.51-1.68.51-.96,0-1.9-.03-2.82-.09l-.49-1.91c.96.08,1.86.12,2.71.12.29,0,.45-.06.5-.18.03-.07.05-.18.05-.32v-7.33c-1.19,1.67-2.49,3.15-3.9,4.45-1.28,1.17-2.82,2.24-4.62,3.21l-1.31-1.71c3.36-1.65,6.16-3.93,8.4-6.84h-8v-1.8h9.43v-3.38Z"/><path class="cls-16" d="m499.43,143.43c-1.92-.83-3.92-1.49-6-1.99l.64-1.89c2.4.53,4.42,1.18,6.05,1.97l-.69,1.91Zm-5.77,8.75c3.01-.25,5.32-.76,6.92-1.56,1.89-.94,3.33-2.38,4.34-4.32.66-1.25,1.19-2.89,1.6-4.92l1.75,1.24c-.49,2.17-1.09,3.89-1.79,5.17-1.27,2.33-3.2,4.01-5.8,5.05-1.64.66-3.84,1.12-6.59,1.41l-.43-2.07Z"/></g><path id="num-4" class="cls-17" d="m432.12,128.33h-2.7v4.3h-2.58v-4.3h-8.92v-2.06l8.88-12.75h2.62v12.56h2.7v2.25Zm-5.28-2.25v-5.47c0-.44,0-.85.02-1.23.01-.4.02-.77.03-1.12.02-.36.04-.7.06-1,.02-.31.04-.59.05-.84h-.11c-.17.34-.35.7-.56,1.08-.2.38-.41.72-.64,1.05l-5.27,7.55h6.42Z"/></g><g id="_3"><path id="box-3" class="cls-6" d="m219.06,207.04h95.31c10.96,0,19.84,8.69,19.84,19.4v71.19c0,10.72-8.88,19.4-19.84,19.4h-95.31c-10.96,0-19.84-8.69-19.84-19.4v-71.19c0-10.72,8.88-19.4,19.84-19.4Z"/><g><path class="cls-16" d="m210.92,243.7h3.1v5.38h5.76v-5.38h3.1v13.79h-3.1v-5.97h-5.76v5.97h-3.1v-13.79Z"/><path class="cls-16" d="m228.57,256.57v4.88h-2.96v-11.82c0-.84,0-1.67-.02-2.5h2.88c.04.27.1.91.1,1.29.46-.76,1.42-1.53,3.12-1.53,2.41,0,4.28,1.95,4.28,5.16,0,3.65-2.09,5.68-4.69,5.68-1.52,0-2.31-.55-2.72-1.16Zm4.39-4.41c0-1.9-.8-2.97-2.21-2.97-1.69,0-2.29,1.04-2.29,3.13,0,1.98.55,3.13,2.16,3.13s2.34-1.18,2.34-3.29Z"/><path class="cls-16" d="m248.15,252.29c0,3.13-1.95,5.44-5.35,5.44s-5.28-2.29-5.28-5.38,2.01-5.45,5.42-5.45c3.16,0,5.21,2.15,5.21,5.4Zm-7.61.02c0,1.99.89,3.17,2.32,3.17s2.27-1.18,2.27-3.16c0-2.17-.83-3.19-2.31-3.19-1.38,0-2.28.98-2.28,3.17Z"/><path class="cls-16" d="m260.32,252.29c0,3.13-1.95,5.44-5.35,5.44s-5.28-2.29-5.28-5.38,2.01-5.45,5.42-5.45c3.16,0,5.21,2.15,5.21,5.4Zm-7.61.02c0,1.99.89,3.17,2.32,3.17s2.27-1.18,2.27-3.16c0-2.17-.83-3.19-2.31-3.19-1.38,0-2.28.98-2.28,3.17Z"/><path class="cls-16" d="m262.37,257.49v-14.6h2.98v14.6h-2.98Z"/></g><path id="num-3" class="cls-14" d="m223.08,221.69c0,.85-.17,1.6-.52,2.23-.33.62-.8,1.14-1.41,1.55-.59.4-1.28.68-2.06.84v.08c1.51.2,2.65.68,3.41,1.45.77.77,1.16,1.79,1.16,3.06,0,1.09-.26,2.07-.78,2.94-.52.85-1.32,1.53-2.41,2.02-1.07.49-2.46.73-4.16.73-1.01,0-1.95-.08-2.83-.25-.86-.17-1.69-.43-2.47-.8v-2.38c.79.4,1.65.7,2.56.92.93.22,1.81.33,2.66.33,1.66,0,2.84-.32,3.56-.95.73-.65,1.09-1.53,1.09-2.66,0-.75-.2-1.36-.59-1.83-.39-.48-.96-.83-1.73-1.05-.76-.23-1.71-.34-2.86-.34h-1.78v-2.16h1.81c1.06,0,1.94-.14,2.62-.42.7-.28,1.21-.68,1.55-1.19.34-.52.52-1.12.52-1.8,0-.9-.3-1.59-.89-2.08-.58-.49-1.41-.73-2.47-.73-.67,0-1.27.07-1.81.22-.54.14-1.05.32-1.52.56-.46.23-.91.49-1.34.78l-1.28-1.8c.7-.54,1.55-1,2.55-1.38,1.01-.39,2.16-.58,3.45-.58,1.95,0,3.43.43,4.44,1.3,1.02.85,1.53,1.97,1.53,3.36Z"/></g><g id="_2"><path id="box-4" class="cls-8" d="m219.06,0h95.31c10.96,0,19.84,8.69,19.84,19.4v71.19c0,10.72-8.88,19.4-19.84,19.4h-95.31c-10.96,0-19.84-8.69-19.84-19.4V19.4c0-10.72,8.88-19.4,19.84-19.4Z"/><g><path class="cls-16" d="m218.2,50.95v-9.02c-1.85,1.2-3.96,2.2-6.33,3.02l-1.1-1.78c2.69-.87,5.06-2,7.09-3.38,2-1.35,3.77-2.9,5.33-4.65l1.76,1.06c-1.38,1.53-2.92,2.93-4.62,4.21v10.53h-2.13Z"/><path class="cls-16" d="m236.39,35.12h2.09v4.12h6.92v1.84h-6.92c0,1.78-.1,3.12-.29,4.01-.59,2.79-2.48,4.85-5.67,6.2l-1.29-1.63c2.12-.84,3.56-2,4.33-3.45.4-.78.65-1.7.75-2.77.05-.54.08-1.33.08-2.35h-7.29v-1.84h7.29v-4.12Z"/><path class="cls-16" d="m248.99,36.59h10.09l1.12,1.32c-.54,2.02-1.45,3.98-2.73,5.88,1.98,1.49,3.93,3.23,5.83,5.2l-1.5,1.66c-1.67-1.83-3.5-3.62-5.49-5.35-2.06,2.38-4.58,4.18-7.56,5.41l-1.11-1.82c2.16-.83,3.93-1.83,5.31-3,1.62-1.37,2.91-2.95,3.89-4.75.49-.91.85-1.82,1.08-2.74h-8.93v-1.8Zm12.36,1.77c-.38-.97-1-2.05-1.85-3.24l1.44-.5c.7.93,1.33,1.99,1.89,3.18l-1.48.56Zm2.51-.4c-.48-1.19-1.1-2.28-1.85-3.28l1.38-.43c.73.86,1.35,1.89,1.85,3.09l-1.38.62Z"/><path class="cls-16" d="m266.73,36.7h14.26l1.36,1.19c-.94,1.96-2.06,3.67-3.36,5.15-1,1.14-2.16,2.2-3.48,3.19,1.03,1.07,1.87,2.01,2.52,2.82l-1.68,1.42c-2.13-2.72-4.81-5.36-8.04-7.92l1.44-1.39c1.35,1.04,2.82,2.29,4.41,3.74,1.65-1.22,3.04-2.61,4.19-4.15.55-.74,1-1.5,1.36-2.26h-12.99v-1.8Z"/><path class="cls-16" d="m218.45,56.65l.54,3.19,6.31-.42.14,1.8-6.13.41.6,3.53,6.67-.47.15,1.79-6.52.49.96,5.54-2.15.25-.95-5.63-7.56.56-.15-1.85,7.38-.53-.6-3.54-5.92.4-.13-1.82,5.74-.38-.53-3.09,2.15-.24Z"/><path class="cls-16" d="m235.27,59.51l.57,2.99,6.73-1.05,1.16.83c-.69,2.76-1.91,4.92-3.65,6.48l-1.49-1.15c.78-.61,1.44-1.34,1.97-2.2.43-.67.72-1.34.88-2.01l-5.29.84,1.51,8.21-1.87.33-1.55-8.24-3.81.62-.26-1.78,3.74-.58-.57-2.96,1.93-.31Z"/><path class="cls-16" d="m249.29,57.15h2.13v5.62c3.13-.83,5.82-1.86,8.06-3.11l1.2,1.67c-2.87,1.38-5.96,2.49-9.25,3.31v4.07c0,.51.23.81.69.91.56.12,1.82.18,3.79.18s4.22-.1,6.55-.31v1.99c-2.12.15-4.33.22-6.62.22s-3.95-.06-4.65-.18c-.83-.15-1.38-.51-1.64-1.08-.16-.35-.24-.8-.24-1.34v-11.95Zm13.33-.86c.41,0,.8.11,1.17.33.36.21.65.49.85.86.18.33.27.67.27,1.03,0,.57-.21,1.08-.64,1.52-.45.46-1.01.69-1.67.69-.33,0-.65-.07-.95-.2-.38-.17-.68-.42-.92-.75-.28-.39-.42-.81-.42-1.27,0-.36.09-.7.28-1.04.19-.33.44-.6.76-.81.38-.24.81-.36,1.27-.36Zm0,1.08c-.23,0-.44.06-.64.18-.36.22-.54.54-.54.96,0,.3.11.56.32.77.23.23.52.35.86.35.19,0,.37-.04.54-.12.43-.21.64-.54.64-1,0-.32-.12-.59-.36-.82-.22-.22-.49-.33-.82-.33Z"/><path class="cls-16" d="m280.65,58.59l1.31,1.03c-.85,3.75-2.23,6.65-4.14,8.71-1.06,1.14-2.43,2.13-4.11,2.99-1.19.6-2.47,1.08-3.84,1.44l-1.06-1.73c3.13-.79,5.55-2.04,7.28-3.76-1.42-1.23-2.99-2.32-4.71-3.27l1.2-1.42c1.67.84,3.26,1.87,4.77,3.09,1.19-1.83,1.93-3.6,2.24-5.31h-6.42c-1.47,2.21-3.21,3.9-5.2,5.07l-1.34-1.4c1.93-1.12,3.51-2.6,4.75-4.44.64-.94,1.13-1.95,1.49-3.03l1.98.47c-.2.53-.43,1.05-.68,1.56h6.49Z"/><path class="cls-16" d="m288.49,57.6h2.05v3.2c0,3.06-.24,5.3-.71,6.71-.63,1.87-1.94,3.43-3.94,4.68l-1.4-1.56c1.39-.94,2.36-1.91,2.93-2.92.47-.85.79-1.99.94-3.42.08-.81.13-1.96.13-3.45v-3.23Zm4.67-.51h2.05v12.49c1.21-.6,2.27-1.46,3.19-2.58,1-1.22,1.74-2.66,2.24-4.33l1.61,1.49c-.61,1.74-1.44,3.23-2.5,4.46-1.33,1.55-3.08,2.77-5.24,3.67l-1.34-1.12v-14.08Z"/></g><path id="num-2" class="cls-15" d="m223.63,29.3h-12.67v-2.06l5.02-5.08c.95-.97,1.73-1.81,2.36-2.53.64-.73,1.11-1.43,1.44-2.11.32-.69.48-1.43.48-2.23,0-.99-.29-1.74-.88-2.27-.58-.52-1.35-.78-2.31-.78-.88,0-1.66.16-2.36.48-.7.31-1.42.76-2.16,1.34l-1.41-1.73c.51-.44,1.06-.83,1.66-1.17.6-.35,1.26-.64,1.97-.84.71-.21,1.5-.31,2.38-.31,1.19,0,2.21.21,3.08.62.86.42,1.53,1.01,2,1.77.47.76.7,1.66.7,2.69s-.2,1.95-.61,2.81c-.41.86-.98,1.72-1.72,2.58-.74.84-1.61,1.74-2.61,2.7l-3.72,3.67v.12h9.36v2.33Z"/></g><g id="_1"><path id="box-5" class="cls-5" d="m19.84,103.52h95.31c10.96,0,19.84,7.25,19.84,16.19v77.62c0,8.94-8.88,16.19-19.84,16.19H19.84C8.88,213.52,0,206.27,0,197.33v-77.62c0-8.94,8.88-16.19,19.84-16.19Z"/><g><path class="cls-16" d="m11.46,140.02h11.72l2.26,1.98c-.24,2.57-.77,4.6-1.58,6.07-.95,1.73-2.42,3.08-4.41,4.05-1.24.6-2.9,1.14-4.96,1.62l-1.05-1.78c2.03-.36,3.64-.82,4.83-1.39,1.93-.92,3.3-2.32,4.11-4.2.5-1.17.78-2.67.86-4.51h-11.77v-1.84Zm14.88-3.11c.41,0,.8.11,1.17.33.37.21.65.49.85.86.18.33.27.67.27,1.03,0,.57-.21,1.08-.64,1.52-.45.46-1.01.69-1.67.69-.33,0-.64-.07-.95-.21-.38-.17-.68-.42-.92-.74-.28-.39-.42-.81-.42-1.27,0-.36.09-.7.28-1.04.19-.33.44-.6.76-.81.38-.24.81-.36,1.27-.36Zm0,1.08c-.23,0-.44.06-.64.18-.36.22-.54.54-.54.96,0,.3.11.56.32.77.23.23.52.35.86.35.19,0,.37-.04.54-.12.43-.21.64-.54.64-1,0-.32-.12-.59-.36-.82-.22-.22-.49-.33-.82-.33Z"/><path class="cls-16" d="m30.88,139.25h14.32v13.57h-14.32v-13.57Zm2.13,1.87v9.83h10.07v-9.83h-10.07Z"/><path class="cls-16" d="m54.46,146.43c-1.5-.63-3.33-1.28-5.49-1.94l.78-1.76c1.86.47,3.67,1.1,5.42,1.89l-.71,1.81Zm-4.32,4.84c2.35-.18,4.22-.51,5.6-.98,3.55-1.21,5.82-3.96,6.81-8.25l1.87,1.08c-.81,3.29-2.32,5.73-4.53,7.34-1.45,1.05-3.24,1.8-5.38,2.25-1.03.22-2.29.39-3.79.53l-.58-1.97Zm6.19-9.34c-1.79-.77-3.63-1.42-5.49-1.94l.59-1.74c2.1.5,3.95,1.12,5.54,1.85l-.64,1.84Zm5.37-.83c-.39-.93-1.01-1.96-1.87-3.09l1.44-.5c.77,1.01,1.39,2.03,1.86,3.06l-1.43.54Zm2.77-.48c-.51-1.15-1.12-2.2-1.83-3.13l1.35-.42c.72.81,1.34,1.8,1.84,2.97l-1.36.58Z"/><path class="cls-16" d="m69.6,141.95h11.63v1.67h-4.94v7.75h5.76v1.67h-13.27v-1.67h5.64v-7.75h-4.82v-1.67Z"/><path class="cls-16" d="m99.54,140l1.42,1.13c-.69,3.7-1.95,6.53-3.79,8.49-1.67,1.78-4.19,3.16-7.56,4.13l-1.14-1.78c3.08-.75,5.43-1.96,7.04-3.64,1.56-1.62,2.61-3.79,3.14-6.53h-6.15c-1.28,1.86-2.78,3.35-4.5,4.46l-1.5-1.46c1.4-.87,2.54-1.81,3.42-2.83,1-1.16,1.78-2.56,2.34-4.19l1.98.52c-.22.62-.46,1.18-.71,1.7h6Z"/><path class="cls-16" d="m108.53,137.77h2.13v5.04c3.63,1.08,6.64,2.18,9.02,3.3l-1.02,1.9c-2.29-1.12-4.96-2.18-8-3.19v8.93h-2.13v-15.99Z"/></g><path id="num-1" class="cls-7" d="m20.09,131.63h-2.59v-14.14c.01-.39.02-.76.03-1.11.02-.35.04-.69.06-1.02-.23.23-.47.45-.72.67-.24.21-.52.45-.84.72l-2.17,1.75-1.34-1.72,5.39-4.19h2.19v19.03Z"/></g></g><g id="arrows-text"><path id="arrow" class="cls-3" d="m340.92,257.14h126.89c1.1,0,2-.9,2-2v-27.9h-4.72l9.45-9.45,9.45,9.45h-4.72v31.35c0,4.42-3.58,8-8,8h-130.34v-9.45Z"/><path id="arrow-2" class="cls-2" d="m341.2,59.8h126.89c1.1,0,2,.9,2,2v27.9h-4.72l9.45,9.45,9.45-9.45h-4.72v-31.35c0-4.42-3.58-8-8-8h-130.34v9.45Z"/><path id="arrow-3" class="cls-12" d="m267.82,113.38l9.45,9.45h-4.72v70.99h4.72l-9.45,9.45-9.45-9.45h4.72v-70.99h-4.72l9.45-9.45Z"/><path id="arrow-4" class="cls-10" d="m194.91,262l-9.45-9.45v4.72h-111.44c-1.1,0-2-.9-2-2v-28.17h4.72l-9.45-9.45-9.45,9.45h4.72v31.62c0,4.42,3.58,8,8,8h114.89v4.72l9.45-9.45Z"/><path id="arrow-5" class="cls-1" d="m194.91,54.78l-9.45,9.45v-4.72h-111.44c-1.1,0-2,.9-2,2v28.17h4.72l-9.45,9.45-9.45-9.45h4.72v-31.62c0-4.42,3.58-8,8-8h114.89v-4.72l9.45,9.45Z"/><path id="arrow-6" class="cls-4" d="m547.97,168.43h125.98v-4.72l9.45,9.45-9.45,9.45v-4.72h-125.98v-9.45Z"/><g><path class="cls-16" d="m552.01,136.87h2.55v-2.08h1.61v2.08h4.69v1.3h-4.69v2.41h5.87v1.29h-4.37v4.03c0,.25.08.4.23.45.16.05.5.08,1.01.08s.87-.04,1.04-.12c.18-.08.3-.25.35-.53.04-.21.08-.62.11-1.24v-.29s1.53.49,1.53.49c-.03,1.01-.11,1.71-.24,2.11-.12.36-.32.6-.61.73-.38.17-1.14.25-2.29.25s-1.83-.07-2.18-.21c-.38-.16-.58-.51-.58-1.07v-4.68h-2.1c-.03.96-.11,1.72-.23,2.28-.22.95-.64,1.73-1.27,2.32-.86.81-1.96,1.35-3.3,1.63l-.8-1.3c1.53-.36,2.59-.94,3.19-1.72.51-.66.77-1.73.79-3.21h-3.86v-1.29h6.11v-2.41h-3.11c-.39.78-.85,1.48-1.37,2.09l-1.21-.94c.91-1.08,1.63-2.49,2.15-4.25l1.45.27c-.14.52-.29,1.04-.47,1.54Z"/><path class="cls-16" d="m566.68,140.74v7.35h-1.57v-5.76c-.5.45-1.02.88-1.55,1.29l-.83-1.32c1.64-1.09,3.13-2.62,4.48-4.58l1.22.77c-.54.81-1.12,1.56-1.75,2.26Zm-3.85-2.67c1.49-.8,2.76-1.88,3.8-3.23l1.25.8c-1.29,1.56-2.69,2.78-4.2,3.65l-.84-1.22Zm11.43,2.59v6.05c0,.49-.14.83-.43,1.03-.24.16-.62.23-1.16.23-.88,0-1.72-.03-2.53-.08l-.28-1.47c.84.08,1.58.12,2.22.12.27,0,.43-.05.49-.15.05-.08.07-.19.07-.33v-5.39h-4.42v-1.4h8.52v1.4h-2.48Zm-5.08-5.12h6.59v1.37h-6.59v-1.37Z"/><path class="cls-16" d="m587,137.09c.54-.64,1.04-1.33,1.5-2.06l1.41.72c-.78,1.03-1.69,2.04-2.73,3.04h4.04v1.22h-5.42c-.49.4-1.11.84-1.86,1.34h5.26v6.74h-1.55v-.66h-5.62v.66h-1.55v-4.71c-.87.46-1.72.86-2.54,1.21l-.79-1.31c2.41-.85,4.59-1.94,6.54-3.27h-6.28v-1.22h5.42v-1.32h-3.65v-1.16h3.65v-1.52h1.57v1.52h2.6v.78Zm-4.86,5.37l-.06.03-.06.04v1.24h5.62v-1.31h-5.5Zm-.11,2.41v1.38h5.62v-1.38h-5.62Zm4.64-7.4h-2.26v1.32h.89c.38-.32.84-.76,1.38-1.32Z"/><path class="cls-16" d="m594.99,142.38s-.02.05-.04.09c-.53,1.2-1.23,2.31-2.11,3.32l-.94-1.4c1.32-1.28,2.27-2.71,2.87-4.31h-2.64v-1.3h2.87v-1.8c-.61.12-1.29.22-2.05.31l-.65-1.2c2.1-.25,4-.66,5.7-1.23l.84,1.16c-.66.22-1.43.44-2.31.65v2.12h2.69v1.3h-2.69v1.03c.91.5,1.81,1.16,2.7,1.99l-.89,1.29c-.49-.54-1.09-1.13-1.82-1.77v5.48h-1.53v-5.7Zm5.05-6.04h1.48v8.09h-1.48v-8.09Zm3.33-1.29h1.51v11.37c0,.49-.1.85-.31,1.07-.24.26-.7.4-1.39.4-.84,0-1.64-.04-2.41-.12l-.28-1.54c.78.13,1.6.2,2.45.2.21,0,.34-.07.38-.21.03-.08.04-.18.04-.32v-10.83Z"/><path class="cls-16" d="m608.36,146.33v-3.77c-.28.19-.68.42-1.18.69l-.89-1.16c.85-.39,1.54-.8,2.09-1.23.83-.67,1.54-1.45,2.11-2.35h-3.71v-1.22h3.83c-.33-.68-.74-1.35-1.21-2l1.46-.59c.58.68,1.05,1.41,1.43,2.19l-.96.4h2.96c.55-.75,1.08-1.63,1.6-2.65l1.57.56c-.45.75-.94,1.44-1.48,2.08h4.07v1.22h-3.79c1,1.44,2.43,2.54,4.27,3.32l-.84,1.23c-.5-.24-.92-.46-1.26-.67v3.95h1.89v1.24h-13.81v-1.24h1.87Zm.74-4.31h8.74c-1.35-.92-2.43-2.09-3.24-3.51h-2.47c-.87,1.43-1.88,2.6-3.03,3.51Zm2.23,1.2h-1.54v3.11h1.54v-3.11Zm1.31,0v3.11h1.48v-3.11h-1.48Zm2.79,0v3.11h1.57v-3.11h-1.57Z"/><path class="cls-16" d="m628.63,146.01c2.78-.67,4.17-2.21,4.17-4.6,0-1.04-.28-1.94-.84-2.69-.62-.85-1.58-1.39-2.85-1.63-.28,2.11-.66,3.85-1.14,5.2-.33.94-.74,1.83-1.24,2.67-.71,1.19-1.52,1.79-2.42,1.79-.67,0-1.27-.29-1.8-.88-.34-.37-.61-.82-.82-1.36-.27-.7-.41-1.45-.41-2.25,0-1.3.37-2.5,1.11-3.59.75-1.12,1.73-1.93,2.93-2.43.88-.37,1.84-.55,2.88-.55,1.63,0,3.02.42,4.16,1.26,1.4,1.03,2.1,2.5,2.1,4.4,0,3.18-1.67,5.19-5,6.04l-.84-1.37Zm-1.06-8.98c-.84.09-1.54.31-2.1.65-.36.22-.72.52-1.07.89-.98,1.05-1.48,2.26-1.48,3.64,0,1.01.21,1.8.62,2.37.25.35.51.53.76.53.34,0,.72-.36,1.15-1.09,1.04-1.76,1.75-4.09,2.12-6.99Z"/><path class="cls-16" d="m643.18,135.89h5.88v1.15h-13.2v-1.15h5.77v-1.11h1.55v1.11Zm2.02,10.78h-4.6v.56h-1.46v-3.8h6.47v3.19c.32.04.66.05,1.01.05.24,0,.38-.04.43-.12.04-.06.06-.16.06-.29v-3.53h-9.33v5.35h-1.57v-6.46h12.47v5.1c0,.44-.12.76-.38.96-.23.19-.61.28-1.12.28-.39,0-.95-.03-1.7-.09l-.3-1.2Zm1.8-8.91v3.12h-9.07v-3.12h9.07Zm-7.52,1.07v.99h5.95v-.99h-5.95Zm4.68,5.69h-3.56v1.05h3.56v-1.05Z"/><path class="cls-16" d="m657.05,143.71c-.88,2.48-1.86,3.72-2.95,3.72-.78,0-1.44-.52-2-1.57-.43-.81-.72-1.7-.88-2.68-.19-1.18-.29-2.71-.29-4.57,0-.81.03-1.67.09-2.6l1.67.12c-.06.92-.09,1.8-.09,2.64,0,2.93.28,4.96.85,6.12.23.47.45.71.65.71.13,0,.3-.15.5-.44.41-.59.8-1.41,1.18-2.45l1.26.99Zm4.49,1.63c-.24-1.92-.54-3.48-.89-4.66-.43-1.44-.92-2.75-1.48-3.94l1.51-.36c.78,1.49,1.36,2.93,1.74,4.31.31,1.12.57,2.55.77,4.28l-1.65.38Z"/><path class="cls-16" d="m549.1,153.72h9.11l1.76,1.54c-.19,2-.6,3.58-1.23,4.72-.74,1.35-1.88,2.4-3.43,3.15-.96.47-2.25.89-3.86,1.26l-.82-1.39c1.58-.28,2.83-.64,3.75-1.08,1.5-.72,2.57-1.8,3.19-3.27.39-.91.61-2.08.67-3.51h-9.16v-1.43Zm11.58-2.42c.32,0,.62.08.91.25.28.16.5.38.66.67.14.25.21.52.21.8,0,.45-.17.84-.5,1.18-.35.36-.78.54-1.3.54-.26,0-.5-.05-.74-.16-.29-.13-.53-.32-.72-.57-.22-.3-.33-.63-.33-.99,0-.28.07-.55.22-.81s.34-.47.59-.63c.3-.19.63-.28.99-.28Zm0,.84c-.17,0-.34.05-.5.14-.28.17-.42.42-.42.75,0,.23.08.43.25.6.18.18.4.27.67.27.15,0,.29-.03.42-.1.33-.16.5-.42.5-.78,0-.25-.09-.46-.28-.64-.17-.17-.38-.25-.64-.25Z"/><path class="cls-16" d="m564.21,153.12h11.14v10.55h-11.14v-10.55Zm1.65,1.46v7.64h7.83v-7.64h-7.83Z"/><path class="cls-16" d="m587.64,153.63l1.58,1.36c-.41,2.1-1.28,3.94-2.6,5.52-.86,1.03-1.95,1.91-3.28,2.63-1.02.56-2.13.99-3.33,1.3l-.82-1.34c2.43-.62,4.32-1.59,5.66-2.93-1.06-.89-2.23-1.69-3.51-2.41l.93-1.1c1.37.7,2.56,1.47,3.58,2.31.95-1.39,1.53-2.71,1.75-3.96h-4.88c-1.09,1.6-2.39,2.85-3.9,3.74l-1.04-1.09c1.5-.87,2.73-2.02,3.7-3.45.5-.73.88-1.52,1.16-2.36l1.54.36c-.15.42-.36.9-.64,1.43h4.1Zm.81.38c-.29-.78-.69-1.55-1.19-2.3l1.12-.25c.47.59.88,1.33,1.22,2.24l-1.15.31Zm1.98-.23c-.28-.77-.69-1.54-1.21-2.29l1.11-.23c.48.61.88,1.34,1.21,2.19l-1.11.32Z"/><path class="cls-16" d="m603.08,153.71l1.11.88c-.53,2.88-1.52,5.08-2.95,6.6-1.3,1.39-3.26,2.46-5.88,3.21l-.89-1.39c2.4-.58,4.23-1.53,5.48-2.83,1.22-1.26,2.03-2.95,2.44-5.08h-4.78c-.99,1.45-2.16,2.61-3.5,3.47l-1.16-1.13c1.09-.67,1.98-1.41,2.66-2.2.78-.9,1.38-1.99,1.82-3.26l1.54.4c-.17.48-.35.92-.55,1.32h4.66Z"/><path class="cls-16" d="m610.07,151.97h1.65v3.92c2.83.84,5.17,1.7,7.02,2.57l-.79,1.48c-1.78-.87-3.85-1.7-6.22-2.48v6.95h-1.65v-12.43Z"/></g><g><path class="cls-16" d="m342.82,272.04h11.25c-.07,2.41-.36,4.29-.87,5.65-.61,1.59-1.65,2.83-3.14,3.75-1.11.68-2.64,1.25-4.58,1.69l-.82-1.39c1.96-.36,3.47-.87,4.52-1.55,1.15-.74,1.98-1.77,2.48-3.08.37-.97.57-2.18.61-3.64h-9.46v-1.43Z"/><path class="cls-16" d="m358.06,273.72h9.36l.82.7c-.31,1.25-.84,2.23-1.58,2.94-.59.56-1.39,1.02-2.4,1.37l-.82-1.11c1.74-.5,2.75-1.37,3.04-2.62h-8.42v-1.29Zm3.8,2.41h1.49v1.09c0,1.57-.19,2.79-.58,3.64-.44.96-1.33,1.77-2.67,2.43l-1.04-1.09c.8-.37,1.38-.75,1.74-1.13.42-.45.7-.94.84-1.48.15-.56.22-1.35.22-2.39v-1.08Z"/><path class="cls-16" d="m371.29,276.07h12.5v1.54h-12.5v-1.54Z"/><path class="cls-16" d="m386.96,271.83h8.56l.94.8c-.8,1.82-1.75,3.48-2.86,4.97,1.57,1.18,3.07,2.52,4.49,4.01l-1.18,1.29c-1.4-1.53-2.82-2.91-4.26-4.14-1.55,1.76-3.52,3.16-5.89,4.18l-.85-1.42c1.76-.69,3.23-1.56,4.41-2.59,1.1-.97,2.1-2.16,3.02-3.58.49-.76.87-1.47,1.14-2.12h-7.52v-1.4Z"/><path class="cls-16" d="m403.3,270.82h1.65v3.92c2.82.84,5.16,1.7,7.02,2.57l-.79,1.48c-1.78-.87-3.85-1.7-6.22-2.48v6.95h-1.65v-12.43Z"/><path class="cls-16" d="m414.55,281.64c.82-1.17,1.53-2.6,2.12-4.29.64-1.85,1.05-3.73,1.22-5.64l1.63.32c-.42,2.8-.99,5.15-1.7,7.05-.51,1.39-1.14,2.6-1.89,3.64l-1.38-1.09Zm11.46,1.16c-1.71-2.74-3.04-6.33-3.97-10.78l1.54-.46c.82,3.97,2.1,7.38,3.83,10.21l-1.41,1.03Zm-.75-9.47c-.27-.72-.75-1.57-1.43-2.52l1.11-.39c.54.72,1.03,1.54,1.47,2.47l-1.15.44Zm2.04-.31c-.36-.91-.84-1.76-1.43-2.55l1.06-.33c.56.67,1.04,1.47,1.44,2.41l-1.08.48Z"/><path class="cls-16" d="m431.82,278.3c-.34-1.4-.8-2.7-1.38-3.89l1.35-.64c.6,1.18,1.09,2.52,1.47,3.99l-1.43.53Zm1.09,3.64c1.58-.41,2.79-.95,3.62-1.64.83-.69,1.47-1.68,1.9-2.98.34-1.03.59-2.35.75-3.97l1.51.43c-.28,2.14-.68,3.78-1.19,4.92-.62,1.39-1.54,2.47-2.77,3.23-.78.48-1.78.91-3,1.29l-.83-1.26Zm2.21-4.25c-.27-1.12-.7-2.41-1.31-3.88l1.4-.56c.54,1.15,1,2.46,1.36,3.92l-1.46.52Z"/><path class="cls-16" d="m449.57,275.76v-2.63c-1.2.15-2.55.25-4.05.31l-.46-1.32c3.76-.17,6.69-.58,8.78-1.24l.93,1.24c-1.06.31-2.26.58-3.61.79v2.86h5.42v1.4h-5.45c-.1,1.47-.47,2.66-1.1,3.56-.8,1.15-1.94,2.02-3.42,2.61l-1.03-1.27c1.48-.58,2.53-1.35,3.14-2.3.44-.69.71-1.55.8-2.6h-5.66v-1.4h5.7Z"/><path class="cls-16" d="m342.32,288.84h11.09l1.06.92c-.73,1.52-1.6,2.86-2.61,4.01-.78.88-1.68,1.71-2.7,2.48.8.83,1.46,1.56,1.96,2.19l-1.31,1.11c-1.66-2.12-3.74-4.17-6.25-6.16l1.12-1.08c1.05.81,2.19,1.78,3.43,2.91,1.28-.95,2.37-2.03,3.26-3.23.43-.58.78-1.16,1.06-1.76h-10.1v-1.4Z"/><path class="cls-16" d="m362.72,299.93v-7.01c-1.44.93-3.08,1.71-4.93,2.35l-.86-1.39c2.1-.68,3.93-1.55,5.51-2.62,1.55-1.05,2.93-2.26,4.15-3.62l1.37.83c-1.07,1.19-2.27,2.28-3.59,3.27v8.19h-1.65Z"/><path class="cls-16" d="m371.22,297.29h12.65v1.48h-12.65v-1.48Zm1.44-7.83h9.77v1.47h-9.77v-1.47Z"/><path class="cls-16" d="m391.3,291.33c-1.5-.64-3.05-1.16-4.66-1.54l.5-1.47c1.87.41,3.44.92,4.71,1.53l-.54,1.48Zm-4.49,6.8c2.34-.19,4.14-.59,5.38-1.21,1.47-.73,2.59-1.85,3.38-3.36.51-.98.93-2.25,1.24-3.83l1.36.96c-.38,1.69-.85,3.03-1.39,4.02-.98,1.81-2.49,3.12-4.51,3.93-1.28.51-2.99.88-5.12,1.09l-.33-1.61Z"/><path class="cls-16" d="m410.03,289.53l1.28,1.22c-.53,2.59-1.49,4.63-2.87,6.1-1.3,1.39-3.26,2.46-5.88,3.21l-.89-1.38c2.29-.56,4.06-1.44,5.32-2.67,1.38-1.33,2.28-3.03,2.71-5.08h-4.71c-.93,1.33-2.06,2.43-3.4,3.3l-1.15-1.13c1.08-.67,1.96-1.39,2.65-2.18.78-.9,1.4-2,1.86-3.28l1.53.41c-.2.54-.42,1.03-.65,1.48h4.22Zm.46.14c-.28-.76-.71-1.52-1.26-2.28l1.19-.26c.48.59.91,1.34,1.29,2.25l-1.22.29Zm2.14-.08c-.3-.86-.72-1.67-1.25-2.43l1.16-.24c.48.63.9,1.4,1.25,2.31l-1.16.36Z"/><path class="cls-16" d="m415.48,289.15h3.83c.42-.65.74-1.17.96-1.57l1.58.22c-.14.25-.39.65-.75,1.2l-.09.14h5v1.35h-5.95c-.62.82-1.21,1.53-1.77,2.13.89-.51,1.71-.77,2.45-.77,1.15,0,1.9.55,2.25,1.66,1.21-.39,2.45-.77,3.71-1.15l.61,1.33-.25.07-.7.18c-1.33.35-2.39.64-3.18.89.06.59.1,1.36.12,2.3l-1.55.08c0-.54-.01-1.13-.03-1.76v-.14c-2.18.72-3.27,1.44-3.27,2.16,0,.37.28.63.84.77.54.13,1.5.2,2.9.2,1.28,0,2.63-.07,4.04-.21l.17,1.46c-1.37.1-2.78.15-4.25.15-1.81,0-3.09-.13-3.85-.4-.94-.33-1.41-.92-1.41-1.77,0-.72.33-1.36,1-1.91.69-.57,1.91-1.16,3.65-1.76-.09-.35-.22-.6-.38-.74-.18-.16-.41-.24-.7-.24-.47,0-1.06.17-1.77.51-.88.42-1.81,1.05-2.82,1.89l-.94-1.04c1.47-1.32,2.62-2.61,3.46-3.88h-2.89v-1.35Z"/><path class="cls-16" d="m438.66,298.74c.51.1,1.02.15,1.55.15h2.58c-.15.25-.31.69-.46,1.33h-2.15c-1.25,0-2.28-.18-3.07-.55-.71-.33-1.35-.88-1.92-1.65-.32.9-.79,1.75-1.4,2.54l-1.16-.95c.95-1.15,1.55-2.65,1.8-4.5l1.41.28c-.05.33-.11.7-.2,1.11.38.73.9,1.29,1.57,1.68v-3.45h-4.02v-.81c-.3.14-.65.31-1.06.49v4.85c0,.45-.1.76-.31.94-.2.18-.54.27-1.03.27s-1-.04-1.48-.11l-.29-1.48c.61.08,1.03.12,1.28.12.15,0,.24-.03.28-.09.03-.05.05-.14.05-.26v-3.62c-.6.24-1.13.44-1.59.59l-.43-1.4c.67-.18,1.35-.4,2.02-.64v-2.5h-1.8v-1.36h1.8v-2.52h1.51v2.52h1.35v1.36h-1.35v1.91c.3-.12.7-.3,1.21-.54l.15,1.07h9.1v1.19h-3.94v1.27h3.21v1.15h-3.21v1.57Zm2.92-10.96v4.94h-7.34v-4.94h7.34Zm-5.91,1.04v.88h4.45v-.88h-4.45Zm0,1.93v.92h4.45v-.92h-4.45Z"/><path class="cls-16" d="m446.39,290.95v9.58h-1.5v-6.84c-.29.44-.65.91-1.06,1.43l-.7-1.52c.77-1,1.43-2.17,1.98-3.49.34-.82.68-1.82,1.03-2.99l1.51.35c-.4,1.31-.82,2.47-1.26,3.48Zm.39,8.6c1.26-.82,2.28-1.82,3.04-3.01l1.33.74c-.87,1.32-1.93,2.45-3.18,3.38l-1.19-1.11Zm3.93-9.56h2.62v-2.63h1.54v2.63h1.79v1.35h-1.79v3.55h2.28v1.36h-10.28v-1.36h2.34v-3.55h-1.79v-1.35h1.79v-2.63h1.5v2.63Zm0,1.35v3.55h2.62v-3.55h-2.62Zm5.16,9.26c-.95-1.23-1.99-2.33-3.12-3.29l1.16-.81c1.23.92,2.29,1.94,3.2,3.05l-1.24,1.05Z"/></g><g><path class="cls-16" d="m348.94,35.01h6.15v1.37h-6.17v1.59h4.83v5.73c0,.43-.11.75-.32.94-.22.2-.63.29-1.22.29-.67,0-1.31-.03-1.93-.09l-.25-1.39c.75.09,1.31.14,1.68.14.22,0,.36-.03.41-.1.04-.06.06-.17.06-.32v-3.86h-3.26v7.35h-1.57v-7.35h-3.09v5.74h-1.57v-7.07h4.66v-1.59h-6.08v-1.37h6.06v-1.65h1.6v1.65Z"/><path class="cls-16" d="m366.71,42.16c-.31.83-.71,1.55-1.19,2.17-.61.8-1.43,1.51-2.47,2.13l-.99-.84c1.51-.82,2.63-1.97,3.34-3.46h-.99c-.9,1.64-2.29,2.88-4.17,3.73l-.9-.9c1.64-.72,2.87-1.66,3.7-2.83h-.95c-.43.42-.87.77-1.32,1.04l-.79-.75c-1.16.68-2.43,1.29-3.81,1.82l-.53-1.39c.6-.17,1.24-.39,1.92-.66v-4.6h-1.67v-1.36h1.67v-2.91h1.47v2.91h1.4v1.36h-1.4v3.99c.36-.16.8-.37,1.33-.63l.18.88c.57-.44,1.05-.96,1.43-1.56h-2.01v-1.15h9.75v1.15h-6.2c-.13.23-.29.48-.49.77h6.15c-.1,2.35-.28,3.91-.54,4.68-.13.38-.35.63-.65.76-.22.1-.54.14-.96.14-.49,0-.97-.03-1.44-.1l-.26-1.3c.44.1.89.15,1.33.15.32,0,.52-.1.61-.3.18-.4.32-1.38.43-2.93h-.96Zm1.67-8.4v4.71h-7.31v-4.71h7.31Zm-5.88,1.04v.81h4.46v-.81h-4.46Zm0,1.8v.84h4.46v-.84h-4.46Z"/><path class="cls-16" d="m372.76,33.93h1.65v7.48h-1.65v-7.48Zm7.29-.14h1.65v4.89c0,1.72-.14,3-.43,3.83-.24.72-.57,1.29-.99,1.71-.87.9-2.26,1.56-4.17,1.99l-.82-1.4c2.1-.41,3.44-1.09,4.03-2.04.37-.61.6-1.37.67-2.3.03-.43.05-1.02.05-1.78v-4.9Z"/><path class="cls-16" d="m393.86,33.79h1.6v2.76h2.85v1.4h-2.85v.43c0,2.32-.35,4.07-1.04,5.24-.67,1.12-1.84,1.98-3.53,2.58l-.99-1.22c1.65-.55,2.75-1.39,3.31-2.53.44-.88.65-2.23.65-4.05v-.45h-4.31v3.92h-1.6v-3.92h-2.65v-1.4h2.65v-2.66h1.6v2.66h4.31v-2.76Z"/><path class="cls-16" d="m400.08,39h12.5v1.54h-12.5v-1.54Z"/><path class="cls-16" d="m420.22,38.69v-2.63c-1.2.15-2.55.25-4.05.31l-.46-1.32c3.76-.17,6.69-.58,8.78-1.24l.93,1.24c-1.06.31-2.26.58-3.61.79v2.86h5.42v1.4h-5.45c-.1,1.47-.47,2.66-1.1,3.56-.8,1.15-1.94,2.02-3.42,2.61l-1.03-1.27c1.48-.58,2.53-1.35,3.14-2.3.44-.69.71-1.55.8-2.6h-5.66v-1.4h5.7Z"/><path class="cls-16" d="m429.74,35.28h3.83c.42-.65.74-1.17.96-1.57l1.58.22c-.14.25-.39.65-.75,1.2l-.09.14h5v1.35h-5.95c-.62.82-1.21,1.53-1.77,2.13.89-.51,1.71-.77,2.45-.77,1.15,0,1.9.55,2.25,1.66,1.21-.39,2.45-.77,3.71-1.15l.61,1.33-.25.07-.7.18c-1.33.35-2.39.64-3.18.89.06.59.1,1.36.12,2.3l-1.55.08c0-.54-.01-1.13-.03-1.76v-.14c-2.18.72-3.27,1.44-3.27,2.16,0,.37.28.63.84.77.54.13,1.5.2,2.9.2,1.28,0,2.63-.07,4.04-.21l.17,1.46c-1.37.1-2.78.15-4.25.15-1.81,0-3.09-.13-3.85-.4-.94-.33-1.41-.92-1.41-1.77,0-.72.33-1.36,1-1.91.69-.57,1.91-1.16,3.65-1.76-.09-.35-.22-.6-.38-.74-.18-.16-.41-.24-.7-.24-.47,0-1.06.17-1.77.51-.88.42-1.81,1.05-2.82,1.89l-.94-1.04c1.47-1.32,2.62-2.61,3.46-3.88h-2.89v-1.35Z"/><path class="cls-16" d="m452.92,44.87c.51.1,1.02.15,1.55.15h2.58c-.15.25-.31.69-.46,1.33h-2.15c-1.25,0-2.28-.18-3.07-.55-.71-.33-1.35-.88-1.92-1.65-.32.9-.79,1.75-1.4,2.54l-1.16-.95c.95-1.15,1.55-2.65,1.8-4.5l1.41.28c-.05.33-.11.7-.2,1.11.38.73.9,1.29,1.57,1.68v-3.45h-4.02v-.81c-.3.14-.65.31-1.06.49v4.85c0,.45-.1.76-.31.94-.2.18-.54.27-1.03.27s-1-.04-1.48-.11l-.29-1.48c.61.08,1.03.12,1.28.12.15,0,.24-.03.28-.09.03-.05.05-.14.05-.26v-3.62c-.6.24-1.13.44-1.59.59l-.43-1.4c.67-.18,1.35-.4,2.02-.64v-2.5h-1.8v-1.36h1.8v-2.52h1.51v2.52h1.35v1.36h-1.35v1.91c.3-.12.7-.3,1.21-.54l.15,1.07h9.1v1.19h-3.94v1.27h3.21v1.15h-3.21v1.57Zm2.92-10.96v4.94h-7.34v-4.94h7.34Zm-5.91,1.04v.88h4.45v-.88h-4.45Zm0,1.93v.92h4.45v-.92h-4.45Z"/><path class="cls-16" d="m460.65,37.08v9.58h-1.5v-6.84c-.29.44-.65.91-1.06,1.43l-.7-1.52c.77-1,1.43-2.17,1.98-3.49.34-.82.68-1.82,1.03-2.99l1.51.35c-.4,1.31-.82,2.47-1.26,3.48Zm.39,8.6c1.26-.82,2.28-1.82,3.04-3.01l1.33.74c-.87,1.32-1.93,2.45-3.18,3.38l-1.19-1.11Zm3.93-9.56h2.62v-2.63h1.54v2.63h1.79v1.35h-1.79v3.55h2.28v1.36h-10.28v-1.36h2.34v-3.55h-1.79v-1.35h1.79v-2.63h1.5v2.63Zm0,1.35v3.55h2.62v-3.55h-2.62Zm5.16,9.26c-.95-1.23-1.99-2.33-3.12-3.29l1.16-.81c1.23.92,2.29,1.94,3.2,3.05l-1.24,1.05Z"/></g><g><path class="cls-16" d="m158.78,161.88c.82-1.17,1.53-2.6,2.12-4.29.64-1.85,1.05-3.73,1.22-5.64l1.63.32c-.42,2.8-.99,5.15-1.7,7.05-.51,1.39-1.14,2.6-1.89,3.64l-1.38-1.09Zm11.31,1.16c-.84-1.36-1.61-3.01-2.31-4.93-.67-1.84-1.22-3.79-1.65-5.85l1.54-.46c.81,3.93,2.09,7.33,3.84,10.21l-1.41,1.03Zm.52-12.52c.32,0,.62.08.91.25.28.16.5.39.66.67.14.25.21.52.21.8,0,.45-.17.84-.5,1.18-.35.36-.78.54-1.3.54-.26,0-.5-.05-.74-.16-.29-.13-.53-.33-.72-.58-.22-.3-.33-.63-.33-.99,0-.28.07-.55.22-.81.15-.26.35-.47.6-.63.3-.19.62-.28.98-.28Zm0,.84c-.17,0-.34.05-.5.14-.28.17-.42.42-.42.75,0,.23.08.43.25.6.18.18.4.27.67.27.15,0,.29-.03.42-.1.33-.16.5-.42.5-.78,0-.25-.09-.46-.28-.64-.17-.17-.38-.25-.64-.25Z"/><path class="cls-16" d="m173.66,156.31h12.5v1.54h-12.5v-1.54Z"/><path class="cls-16" d="m191.14,151.06h1.65v3.92c2.82.84,5.16,1.7,7.02,2.57l-.79,1.48c-1.78-.87-3.85-1.7-6.22-2.48v6.95h-1.65v-12.43Z"/><path class="cls-16" d="m208.32,151.05h1.62v3.21h5.38v1.43h-5.38c0,1.39-.08,2.42-.23,3.12-.46,2.17-1.93,3.78-4.41,4.82l-1-1.27c1.65-.66,2.77-1.55,3.36-2.69.31-.61.51-1.32.58-2.15.04-.42.06-1.03.06-1.83h-5.67v-1.43h5.67v-3.21Z"/><path class="cls-16" d="m217.27,156.31h12.5v1.54h-12.5v-1.54Z"/><path class="cls-16" d="m237.31,151.16v4.4h-4.13v8.41h-1.53v-12.81h5.66Zm-4.13,1.03v.72h2.73v-.72h-2.73Zm0,1.63v.75h2.73v-.75h-2.73Zm5,7.38c-.25.52-.62.98-1.12,1.38-.51.41-1.22.76-2.14,1.07l-.79-1.11c1.69-.45,2.71-1.24,3.06-2.38h-3.22v-1.11h3.34v-.84h-2.97v-1.04h1.49c-.18-.36-.39-.69-.6-.99l1.31-.48c.33.55.58,1.04.75,1.47h1.43c.29-.53.53-1.03.7-1.5l1.38.38c-.2.43-.42.81-.64,1.12h1.58v1.04h-3.05v.84h3.44v1.11h-3.47c1.05.56,2.04,1.2,2.97,1.92l-.99,1.1c-.71-.68-1.53-1.34-2.47-1.99Zm6.29-10.04v11.46c0,.51-.14.86-.41,1.05-.21.14-.54.21-.99.21-.42,0-.84-.03-1.26-.08l-.28-1.4c.37.06.73.09,1.08.09.22,0,.33-.1.33-.31v-6.61h-4.22v-4.4h5.74Zm-4.33,1.03v.72h2.8v-.72h-2.8Zm0,1.63v.75h2.8v-.75h-2.8Z"/><path class="cls-16" d="m253.92,157.6c.61-.04,1.06-.06,1.36-.08.74-.04,1.29-.07,1.67-.1l.27-.02c-.27-.4-.58-.81-.94-1.24l1.15-.6c.76.83,1.47,1.83,2.14,3.01l-1.19.76c-.19-.36-.36-.67-.5-.9-.58.08-1.26.15-2.03.23l-.84.07v5.24h-1.54v-5.11l-.52.03c-.98.07-2.06.13-3.24.18l-.47-1.33c.69-.01,1.31-.03,1.85-.05l.87-.03c.1-.08.29-.24.57-.48.04-.04.07-.06.09-.08-.97-.88-1.9-1.65-2.8-2.3l1.01-1c.31.23.59.45.84.65l.08.07c.58-.6,1.1-1.26,1.55-1.99-1.33.13-2.33.21-2.99.24l-.55-.92c-.25.71-.52,1.41-.84,2.1v10.01h-1.53v-7.13c-.36.57-.78,1.16-1.24,1.76l-.72-1.52c.85-1.1,1.56-2.36,2.14-3.79.29-.72.62-1.65.97-2.78l1.54.39c-.11.35-.19.59-.23.72h.23c2.73-.16,5.16-.46,7.29-.93l.97,1.11c-1.5.29-3.02.52-4.55.7l1.09.39c-.79.93-1.55,1.74-2.26,2.41.24.21.57.52.99.92,1-.89,1.93-1.82,2.78-2.77l1.29.8c-1.13,1.13-2.39,2.24-3.79,3.36Zm-4.78,5.01c.88-.96,1.54-2,1.98-3.14l1.38.56c-.64,1.49-1.36,2.66-2.14,3.5l-1.22-.92Zm9.01.55c-.6-1.23-1.31-2.32-2.15-3.29l1.22-.7c.86.93,1.61,1.98,2.25,3.14l-1.32.85Z"/></g><g><path class="cls-16" d="m70.98,37.99h3.46v-3.4h1.58v4.76h-5.05v5.05h3.91v-3.15h1.61v5.41h-1.61v-.87h-9.32v.87h-1.6v-5.41h1.6v3.15h3.83v-5.05h-4.95v-4.76h1.58v3.4h3.37v-4.63h1.58v4.63Z"/><path class="cls-16" d="m82.83,38.47l-.77-1c1.29-.21,2.22-.52,2.8-.92.54-.37.84-.8.92-1.27h-1.33c-.34.41-.72.78-1.14,1.1l-1.18-.7c.89-.61,1.54-1.41,1.97-2.41l1.44.18c-.12.26-.24.51-.36.72h5.33l.75.64c-.33.59-.68,1.17-1.06,1.74l-1.33-.42c.05-.08.09-.14.12-.18.26-.35.4-.58.45-.69h-2.19c.17.31.49.65.97,1.01.79.61,1.97,1.06,3.53,1.36l-.71,1.23c-.38-.09-.77-.2-1.15-.33v5.8h-2.6c1.35.3,2.78.71,4.29,1.24l-1.23,1.13c-1.61-.64-3.16-1.18-4.66-1.62l.92-.76h-3.93l.93.67c-1.42.77-2.99,1.37-4.71,1.8l-1.04-1.19c1.59-.32,2.99-.75,4.18-1.29h-2.32v-5.87h3.14Zm-5-.83c1.58-.56,2.93-1.14,4.05-1.76l.48,1.05c-1.3.77-2.6,1.42-3.9,1.95l-.64-1.23Zm3.31-1.98c-.96-.53-1.86-.95-2.7-1.26l.87-1.01c.94.31,1.85.7,2.73,1.18l-.9,1.09Zm7.15,3.72h-7.06v.73h7.06v-.73Zm0,1.6h-7.06v.75h7.06v-.75Zm0,1.63h-7.06v.79h7.06v-.79Zm-5.38-4.14h6.75c-1.38-.5-2.38-1.19-3-2.08-.64,1.04-1.89,1.73-3.75,2.08Z"/><path class="cls-16" d="m98.56,33.85v4.4h-4.13v8.41h-1.53v-12.81h5.66Zm-4.13,1.03v.72h2.73v-.72h-2.73Zm0,1.63v.75h2.73v-.75h-2.73Zm5,7.38c-.25.52-.62.98-1.12,1.38-.51.41-1.22.76-2.14,1.07l-.79-1.11c1.69-.45,2.71-1.24,3.06-2.38h-3.22v-1.11h3.34v-.84h-2.97v-1.04h1.49c-.18-.36-.39-.69-.6-.99l1.31-.48c.33.55.58,1.04.75,1.47h1.43c.29-.53.53-1.03.7-1.5l1.38.38c-.2.43-.42.81-.64,1.12h1.58v1.04h-3.05v.84h3.44v1.11h-3.47c1.05.56,2.04,1.2,2.97,1.92l-.99,1.1c-.71-.68-1.53-1.34-2.47-1.99Zm6.29-10.04v11.46c0,.51-.14.86-.41,1.05-.21.14-.54.21-.99.21-.42,0-.84-.03-1.26-.08l-.28-1.4c.37.06.73.09,1.08.09.22,0,.33-.1.33-.31v-6.61h-4.22v-4.4h5.74Zm-4.33,1.03v.72h2.8v-.72h-2.8Zm0,1.63v.75h2.8v-.75h-2.8Z"/><path class="cls-16" d="m115.17,40.29c.61-.04,1.06-.06,1.36-.08.74-.04,1.29-.07,1.67-.1l.27-.02c-.27-.4-.58-.81-.94-1.24l1.15-.6c.76.83,1.47,1.83,2.14,3.01l-1.19.76c-.19-.36-.36-.67-.5-.9-.58.08-1.26.15-2.03.23l-.84.07v5.24h-1.54v-5.11l-.52.03c-.98.07-2.06.13-3.24.18l-.47-1.33c.69-.01,1.31-.03,1.85-.05l.87-.03c.1-.08.29-.24.57-.48.04-.04.07-.06.09-.08-.97-.88-1.9-1.65-2.8-2.3l1.01-1c.31.23.59.45.84.65l.08.07c.58-.6,1.1-1.26,1.55-1.99-1.33.13-2.33.21-2.99.24l-.55-.92c-.25.71-.52,1.41-.84,2.1v10.01h-1.53v-7.13c-.36.57-.78,1.16-1.24,1.76l-.72-1.52c.85-1.1,1.56-2.36,2.14-3.79.29-.72.62-1.65.97-2.78l1.54.39c-.11.35-.19.59-.23.72h.23c2.73-.16,5.16-.46,7.29-.93l.97,1.11c-1.5.29-3.02.52-4.55.7l1.09.39c-.79.93-1.55,1.74-2.26,2.41.24.21.57.52.99.92,1-.89,1.93-1.82,2.78-2.77l1.29.8c-1.13,1.13-2.39,2.24-3.79,3.36Zm-4.78,5.01c.88-.96,1.54-2,1.98-3.14l1.38.56c-.64,1.49-1.36,2.66-2.14,3.5l-1.22-.92Zm9.01.55c-.6-1.23-1.31-2.32-2.15-3.29l1.22-.7c.86.93,1.61,1.98,2.25,3.14l-1.32.85Z"/></g><g><path class="cls-16" d="m64.6,272.04h11.25c-.07,2.41-.36,4.29-.87,5.65-.61,1.59-1.65,2.83-3.14,3.75-1.11.68-2.64,1.25-4.58,1.69l-.82-1.39c1.96-.36,3.47-.87,4.52-1.55,1.15-.74,1.98-1.77,2.48-3.08.37-.97.57-2.18.61-3.64h-9.46v-1.43Z"/><path class="cls-16" d="m79.83,273.72h9.36l.82.7c-.31,1.25-.84,2.23-1.58,2.94-.59.56-1.39,1.02-2.4,1.37l-.82-1.11c1.74-.5,2.75-1.37,3.04-2.62h-8.42v-1.29Zm3.8,2.41h1.49v1.09c0,1.57-.19,2.79-.58,3.64-.44.96-1.33,1.77-2.67,2.43l-1.04-1.09c.8-.37,1.38-.75,1.74-1.13.42-.45.7-.94.84-1.48.15-.56.22-1.35.22-2.39v-1.08Z"/><path class="cls-16" d="m93.06,276.07h12.5v1.54h-12.5v-1.54Z"/><path class="cls-16" d="m108.73,271.83h8.56l.94.8c-.8,1.82-1.75,3.48-2.86,4.97,1.57,1.18,3.07,2.52,4.49,4.01l-1.18,1.29c-1.4-1.53-2.82-2.91-4.26-4.14-1.55,1.76-3.52,3.16-5.89,4.18l-.85-1.42c1.76-.69,3.23-1.56,4.41-2.59,1.1-.97,2.1-2.16,3.02-3.58.49-.76.87-1.47,1.14-2.12h-7.52v-1.4Z"/><path class="cls-16" d="m125.07,270.82h1.65v3.92c2.82.84,5.16,1.7,7.02,2.57l-.79,1.48c-1.78-.87-3.85-1.7-6.22-2.48v6.95h-1.65v-12.43Z"/><path class="cls-16" d="m136.32,281.64c.82-1.17,1.53-2.6,2.12-4.29.64-1.85,1.05-3.73,1.22-5.64l1.63.32c-.42,2.8-.99,5.15-1.7,7.05-.51,1.39-1.14,2.6-1.89,3.64l-1.38-1.09Zm11.46,1.16c-1.71-2.74-3.04-6.33-3.97-10.78l1.54-.46c.82,3.97,2.1,7.38,3.83,10.21l-1.41,1.03Zm-.75-9.47c-.27-.72-.75-1.57-1.43-2.52l1.11-.39c.54.72,1.03,1.54,1.47,2.47l-1.15.44Zm2.04-.31c-.36-.91-.84-1.76-1.43-2.55l1.06-.33c.56.67,1.04,1.47,1.44,2.41l-1.08.48Z"/><path class="cls-16" d="m153.59,278.3c-.34-1.4-.8-2.7-1.38-3.89l1.35-.64c.6,1.18,1.09,2.52,1.47,3.99l-1.43.53Zm1.09,3.64c1.58-.41,2.79-.95,3.62-1.64.83-.69,1.47-1.68,1.9-2.98.34-1.03.59-2.35.75-3.97l1.51.43c-.28,2.14-.68,3.78-1.19,4.92-.62,1.39-1.54,2.47-2.77,3.23-.78.48-1.78.91-3,1.29l-.83-1.26Zm2.21-4.25c-.27-1.12-.7-2.41-1.31-3.88l1.4-.56c.54,1.15,1,2.46,1.36,3.92l-1.46.52Z"/><path class="cls-16" d="m171.34,275.76v-2.63c-1.2.15-2.55.25-4.05.31l-.46-1.32c3.76-.17,6.69-.58,8.78-1.24l.93,1.24c-1.06.31-2.26.58-3.61.79v2.86h5.42v1.4h-5.45c-.1,1.47-.47,2.66-1.1,3.56-.8,1.15-1.94,2.02-3.42,2.61l-1.03-1.27c1.48-.58,2.53-1.35,3.14-2.3.44-.69.71-1.55.8-2.6h-5.66v-1.4h5.7Z"/><path class="cls-16" d="m64.09,288.84h11.09l1.06.92c-.73,1.52-1.6,2.86-2.61,4.01-.78.88-1.68,1.71-2.7,2.48.8.83,1.46,1.56,1.96,2.19l-1.31,1.11c-1.66-2.12-3.74-4.17-6.25-6.16l1.12-1.08c1.05.81,2.19,1.78,3.43,2.91,1.28-.95,2.37-2.03,3.26-3.23.43-.58.78-1.16,1.06-1.76h-10.1v-1.4Z"/><path class="cls-16" d="m84.49,299.93v-7.01c-1.44.93-3.08,1.71-4.93,2.35l-.86-1.39c2.1-.68,3.93-1.55,5.51-2.62,1.55-1.05,2.93-2.26,4.15-3.62l1.37.83c-1.07,1.19-2.27,2.28-3.59,3.27v8.19h-1.65Z"/><path class="cls-16" d="m92.99,297.29h12.65v1.48h-12.65v-1.48Zm1.44-7.83h9.77v1.47h-9.77v-1.47Z"/><path class="cls-16" d="m113.07,291.33c-1.5-.64-3.05-1.16-4.66-1.54l.5-1.47c1.87.41,3.44.92,4.71,1.53l-.54,1.48Zm-4.49,6.8c2.34-.19,4.14-.59,5.38-1.21,1.47-.73,2.59-1.85,3.38-3.36.51-.98.93-2.25,1.24-3.83l1.36.96c-.38,1.69-.85,3.03-1.39,4.02-.98,1.81-2.49,3.12-4.51,3.93-1.28.51-2.99.88-5.12,1.09l-.33-1.61Z"/><path class="cls-16" d="m131.8,289.53l1.28,1.22c-.53,2.59-1.49,4.63-2.87,6.1-1.3,1.39-3.26,2.46-5.88,3.21l-.89-1.38c2.29-.56,4.06-1.44,5.32-2.67,1.38-1.33,2.28-3.03,2.71-5.08h-4.71c-.93,1.33-2.06,2.43-3.4,3.3l-1.15-1.13c1.08-.67,1.96-1.39,2.65-2.18.78-.9,1.4-2,1.86-3.28l1.53.41c-.2.54-.42,1.03-.65,1.48h4.22Zm.46.14c-.28-.76-.71-1.52-1.26-2.28l1.19-.26c.48.59.91,1.34,1.29,2.25l-1.22.29Zm2.14-.08c-.3-.86-.72-1.67-1.25-2.43l1.16-.24c.48.63.9,1.4,1.25,2.31l-1.16.36Z"/></g></g></svg>