<?xml version="1.0" encoding="UTF-8"?><svg xmlns="http://www.w3.org/2000/svg" xmlns:xlink="http://www.w3.org/1999/xlink" viewBox="0 0 821.86 317.04"><defs><style>.cls-1{fill:url(#linear-gradient-4);}.cls-1,.cls-2,.cls-3,.cls-4,.cls-5,.cls-6,.cls-7,.cls-8,.cls-9,.cls-10,.cls-11,.cls-12{fill-rule:evenodd;}.cls-13{font-size:14px;}.cls-13,.cls-14{font-family:BIZ-UDGothic-Bold, 'BIZ UDGothic';}.cls-13,.cls-14,.cls-15{fill:#e1eeef;font-weight:700;}.cls-16{fill:url(#green-grad);}.cls-14{font-size:18px;}.cls-2{fill:url(#linear-gradient-2);}.cls-3{fill:url(#linear-gradient);}.cls-17{letter-spacing:-.02em;}.cls-18{letter-spacing:0em;}.cls-4{fill:url(#linear-gradient-5);}.cls-5{fill:url(#glass-grad-5);}.cls-6{fill:url(#glass-grad-3);}.cls-19{fill:url(#green-grad-3);}.cls-7{fill:url(#green-grad-5);}.cls-8{fill:url(#glass-grad-4);}.cls-9{fill:url(#glass-grad);}.cls-20{fill:url(#green-grad-4);}.cls-15{font-family:AcuminConcept-Bold, 'Acumin Variable Concept';font-size:20px;font-variation-settings:'wght' 700, 'wdth' 100, 'slnt' 0;}.cls-21{fill:url(#green-grad-2);}.cls-10{fill:url(#green-grad-6);}.cls-11{fill:url(#glass-grad-2);stroke:url(#gold-grad);stroke-miterlimit:10;stroke-width:2px;}.cls-12{fill:url(#linear-gradient-3);}</style><linearGradient id="glass-grad" x1="698.32" y1="102.48" x2="810.4" y2="214.56" gradientUnits="userSpaceOnUse"><stop offset="0" stop-color="#e1eeef" stop-opacity=".4"/><stop offset="1" stop-color="#a1d0d0" stop-opacity=".2"/></linearGradient><linearGradient id="green-grad" x1="697.58" y1="115.95" x2="710.93" y2="129.31" gradientUnits="userSpaceOnUse"><stop offset="0" stop-color="#54e280"/><stop offset="1" stop-color="#1ec498"/></linearGradient><linearGradient id="glass-grad-2" x1="-260.38" y1="2504.08" x2="-252.3" y2="2496" gradientTransform="translate(4029.71 34838.2) scale(13.87 -13.87)" xlink:href="#glass-grad"/><linearGradient id="gold-grad" x1="417.07" y1="101.77" x2="530.57" y2="215.27" gradientUnits="userSpaceOnUse"><stop offset="0" stop-color="#ffcc4a"/><stop offset="1" stop-color="#e85f1a"/></linearGradient><linearGradient id="green-grad-2" x1="421.53" y1="118.78" x2="432.39" y2="129.65" xlink:href="#green-grad"/><linearGradient id="glass-grad-3" x1="211.22" y1="206.53" x2="322.22" y2="317.54" xlink:href="#glass-grad"/><linearGradient id="green-grad-3" x1="209.72" y1="220.37" x2="223.13" y2="233.78" xlink:href="#green-grad"/><linearGradient id="glass-grad-4" x1="-273.59" y1="2502.07" x2="-265.24" y2="2493.71" gradientTransform="translate(3844.9 33230.29) scale(13.28 -13.28)" xlink:href="#glass-grad"/><linearGradient id="green-grad-4" x1="209.66" y1="13.82" x2="224.38" y2="28.55" xlink:href="#green-grad"/><linearGradient id="glass-grad-5" x1="-289.67" y1="2504.01" x2="-281.58" y2="2495.93" gradientTransform="translate(4028.2 34825.09) scale(13.87 -13.87)" xlink:href="#glass-grad"/><linearGradient id="green-grad-5" x1="12.99" y1="116.31" x2="24.2" y2="127.52" xlink:href="#green-grad"/><linearGradient id="linear-gradient" x1="-251.7" y1="2439.98" x2="-243.74" y2="2432.01" gradientTransform="translate(3158.53 27258.62) scale(11.09 -11.09)" gradientUnits="userSpaceOnUse"><stop offset="0" stop-color="#54e280"/><stop offset="1" stop-color="#1ec498"/></linearGradient><linearGradient id="linear-gradient-2" x1="-252.92" y1="2989.52" x2="-242.77" y2="2999.68" gradientTransform="translate(3158.53 -33149.58) scale(11.09)" xlink:href="#linear-gradient"/><linearGradient id="linear-gradient-3" x1="66.58" y1="2799" x2="73.56" y2="2792.03" gradientTransform="translate(-22378.63 -409.31) rotate(90) scale(8.1 -8.1)" xlink:href="#linear-gradient"/><linearGradient id="green-grad-6" x1="-346.53" y1="2440.94" x2="-356.43" y2="2431.04" gradientTransform="translate(-3784.67 27258.61) rotate(-180) scale(11.09)" xlink:href="#green-grad"/><linearGradient id="linear-gradient-4" x1="-347.79" y1="2991.04" x2="-355.42" y2="2998.67" gradientTransform="translate(-3784.67 -33149.58) rotate(-180) scale(11.09 -11.09)" xlink:href="#linear-gradient"/><linearGradient id="linear-gradient-5" x1="-224.49" y1="2416.74" x2="-216.73" y2="2408.98" gradientTransform="translate(2828.13 24384.04) scale(10.03 -10.03)" xlink:href="#linear-gradient"/></defs><g id="boxes"><g id="_5"><path id="box" class="cls-9" d="m706.71,103.52h95.31c10.96,0,19.84,7.24,19.84,16.17v77.66c0,8.93-8.88,16.17-19.84,16.17h-95.31c-10.96,0-19.84-7.24-19.84-16.17v-77.66c0-8.93,8.88-16.17,19.84-16.17Z"/><text class="cls-14" transform="translate(696.86 153.93) scale(1.04 1)"><tspan x="0" y="0">コミュニティ</tspan></text><path id="num-5" class="cls-16" d="m704.73,120.78c1.26,0,2.36.22,3.3.66s1.67,1.08,2.19,1.92c.53.84.8,1.86.8,3.06,0,1.32-.28,2.46-.84,3.42-.56.95-1.39,1.68-2.47,2.2-1.07.51-2.37.77-3.89.77-.99,0-1.92-.09-2.78-.27-.85-.18-1.58-.44-2.19-.78v-2.41c.65.38,1.42.68,2.33.91.91.23,1.78.34,2.62.34.92,0,1.71-.14,2.39-.42.69-.29,1.22-.73,1.59-1.31.38-.58.56-1.32.56-2.22,0-1.18-.37-2.08-1.11-2.72-.74-.65-1.9-.97-3.48-.97-.52,0-1.09.05-1.72.14-.61.08-1.12.18-1.52.28l-1.22-.75.72-9.12h9.69v2.33h-7.42l-.44,5.25c.32-.07.72-.14,1.19-.2.48-.07,1.05-.11,1.7-.11Z"/></g><g id="_4"><path id="box-2" class="cls-11" d="m426.16,103.52h95.31c10.96,0,19.84,7.24,19.84,16.17v77.66c0,8.93-8.88,16.17-19.84,16.17h-95.31c-10.96,0-19.84-7.24-19.84-16.17v-77.66c0-8.93,8.88-16.17,19.84-16.17Z"/><text class="cls-14" transform="translate(416.32 153.54) scale(1.04 1)"><tspan x="0" y="0">プロシオン</tspan></text><path id="num-4" class="cls-21" d="m432.12,128.33h-2.7v4.3h-2.58v-4.3h-8.92v-2.06l8.88-12.75h2.62v12.56h2.7v2.25Zm-5.28-2.25v-5.47c0-.44,0-.85.02-1.23.01-.4.02-.77.03-1.12.02-.36.04-.7.06-1,.02-.31.04-.59.05-.84h-.11c-.17.34-.35.7-.56,1.08-.2.38-.41.72-.64,1.05l-5.27,7.55h6.42Z"/></g><g id="_3"><path id="box-3" class="cls-6" d="m219.06,207.04h95.31c10.96,0,19.84,8.69,19.84,19.4v71.19c0,10.72-8.88,19.4-19.84,19.4h-95.31c-10.96,0-19.84-8.69-19.84-19.4v-71.19c0-10.72,8.88-19.4,19.84-19.4Z"/><text class="cls-15" transform="translate(209.22 257.49) scale(1.04 1)"><tspan class="cls-17" x="0" y="0">H</tspan><tspan class="cls-18" x="14.5" y="0">po</tspan><tspan x="38.3" y="0">ol</tspan></text><path id="num-3" class="cls-19" d="m223.08,221.69c0,.85-.17,1.6-.52,2.23-.33.62-.8,1.14-1.41,1.55-.59.4-1.28.68-2.06.84v.08c1.51.2,2.65.68,3.41,1.45.77.77,1.16,1.79,1.16,3.06,0,1.09-.26,2.07-.78,2.94-.52.85-1.32,1.53-2.41,2.02-1.07.49-2.46.73-4.16.73-1.01,0-1.95-.08-2.83-.25-.86-.17-1.69-.43-2.47-.8v-2.38c.79.4,1.65.7,2.56.92.93.22,1.81.33,2.66.33,1.66,0,2.84-.32,3.56-.95.73-.65,1.09-1.53,1.09-2.66,0-.75-.2-1.36-.59-1.83-.39-.48-.96-.83-1.73-1.05-.76-.23-1.71-.34-2.86-.34h-1.78v-2.16h1.81c1.06,0,1.94-.14,2.62-.42.7-.28,1.21-.68,1.55-1.19.34-.52.52-1.12.52-1.8,0-.9-.3-1.59-.89-2.08-.58-.49-1.41-.73-2.47-.73-.67,0-1.27.07-1.81.22-.54.14-1.05.32-1.52.56-.46.23-.91.49-1.34.78l-1.28-1.8c.7-.54,1.55-1,2.55-1.38,1.01-.39,2.16-.58,3.45-.58,1.95,0,3.43.43,4.44,1.3,1.02.85,1.53,1.97,1.53,3.36Z"/></g><g id="_2"><path id="box-4" class="cls-8" d="m219.06,0h95.31c10.96,0,19.84,8.69,19.84,19.4v71.19c0,10.72-8.88,19.4-19.84,19.4h-95.31c-10.96,0-19.84-8.69-19.84-19.4V19.4c0-10.72,8.88-19.4,19.84-19.4Z"/><text class="cls-14" transform="translate(209.22 50.02) scale(1.04 1)"><tspan x="0" y="0">イナズマ</tspan><tspan x="0" y="21.6">キャピタル</tspan></text><path id="num-2" class="cls-20" d="m223.63,29.3h-12.67v-2.06l5.02-5.08c.95-.97,1.73-1.81,2.36-2.53.64-.73,1.11-1.43,1.44-2.11.32-.69.48-1.43.48-2.23,0-.99-.29-1.74-.88-2.27-.58-.52-1.35-.78-2.31-.78-.88,0-1.66.16-2.36.48-.7.31-1.42.76-2.16,1.34l-1.41-1.73c.51-.44,1.06-.83,1.66-1.17.6-.35,1.26-.64,1.97-.84.71-.21,1.5-.31,2.38-.31,1.19,0,2.21.21,3.08.62.86.42,1.53,1.01,2,1.77.47.76.7,1.66.7,2.69s-.2,1.95-.61,2.81c-.41.86-.98,1.72-1.72,2.58-.74.84-1.61,1.74-2.61,2.7l-3.72,3.67v.12h9.36v2.33Z"/></g><g id="_1"><path id="box-5" class="cls-5" d="m19.84,103.52h95.31c10.96,0,19.84,7.25,19.84,16.19v77.62c0,8.94-8.88,16.19-19.84,16.19H19.84C8.88,213.52,0,206.27,0,197.33v-77.62c0-8.94,8.88-16.19,19.84-16.19Z"/><text class="cls-14" transform="translate(10 152.66) scale(1.04 1)"><tspan x="0" y="0">プロジェクト</tspan></text><path id="num-1" class="cls-7" d="m20.09,131.63h-2.59v-14.14c.01-.39.02-.76.03-1.11.02-.35.04-.69.06-1.02-.23.23-.47.45-.72.67-.24.21-.52.45-.84.72l-2.17,1.75-1.34-1.72,5.39-4.19h2.19v19.03Z"/></g></g><g id="arrows-text"><path id="arrow" class="cls-3" d="m340.92,257.14h126.89c1.1,0,2-.9,2-2v-27.9h-4.72l9.45-9.45,9.45,9.45h-4.72v31.35c0,4.42-3.58,8-8,8h-130.34v-9.45Z"/><path id="arrow-2" class="cls-2" d="m341.2,59.8h126.89c1.1,0,2,.9,2,2v27.9h-4.72l9.45,9.45,9.45-9.45h-4.72v-31.35c0-4.42-3.58-8-8-8h-130.34v9.45Z"/><path id="arrow-3" class="cls-12" d="m267.82,113.38l9.45,9.45h-4.72v70.99h4.72l-9.45,9.45-9.45-9.45h4.72v-70.99h-4.72l9.45-9.45Z"/><path id="arrow-4" class="cls-10" d="m194.91,262l-9.45-9.45v4.72h-111.44c-1.1,0-2-.9-2-2v-28.17h4.72l-9.45-9.45-9.45,9.45h4.72v31.62c0,4.42,3.58,8,8,8h114.89v4.72l9.45-9.45Z"/><path id="arrow-5" class="cls-1" d="m194.91,54.78l-9.45,9.45v-4.72h-111.44c-1.1,0-2,.9-2,2v28.17h4.72l-9.45,9.45-9.45-9.45h4.72v-31.62c0-4.42,3.58-8,8-8h114.89v-4.72l9.45,9.45Z"/><path id="arrow-6" class="cls-4" d="m547.97,168.43h125.98v-4.72l9.45,9.45-9.45,9.45v-4.72h-125.98v-9.45Z"/><text class="cls-13" transform="translate(547.97 146.75) scale(1.04 1)"><tspan x="0" y="0">先行者利益の高い</tspan><tspan x="0" y="16.8">プロダクト</tspan></text><text class="cls-13" transform="translate(341.2 282.4) scale(1.04 1)"><tspan x="0" y="0">ファーストバッチ</tspan><tspan x="0" y="16.8">マイニングを提供</tspan></text><text class="cls-13" transform="translate(340.92 45.33) scale(1.04 1)"><tspan x="0" y="0">市場リサーチを提供</tspan></text><text class="cls-13" transform="translate(158.11 162.64) scale(1.04 1)"><tspan x="0" y="0">パートナー関係</tspan></text><text class="cls-13" transform="translate(62.97 45.33) scale(1.04 1)"><tspan x="0" y="0">出資関係</tspan></text><text class="cls-13" transform="translate(62.97 282.4) scale(1.04 1)"><tspan x="0" y="0">ファーストバッチ</tspan><tspan x="0" y="16.8">マイニング</tspan></text></g></svg>