<?xml version="1.0" encoding="utf-8"?>
<!-- Generator: Adobe Illustrator 26.1.0, SVG Export Plug-In . SVG Version: 6.00 Build 0)  -->
<svg version="1.1" id="Layer_1" xmlns="http://www.w3.org/2000/svg" xmlns:xlink="http://www.w3.org/1999/xlink" x="0px" y="0px"
	 viewBox="0 0 31.3 32" style="enable-background:new 0 0 31.3 32;" xml:space="preserve">
<style type="text/css">
	.st0{fill:#FFFFFF;}
</style>
<path class="st0" d="M14.1,0c-0.4,0.1-0.9,0.3-1.1,0.7C7.4,7.4,3,16,0.6,25.1c-0.8,2.7-1.6,5.9,3,4.1c10.3-3.4,13.2,8.4,25.2-0.7
	c0.6-0.5,1.1-1,1.6-1.6s0.8-1.1,0.8-1.1s-6.5,3.1-13.1,0.3c-5.2-2.6-8.7-2.5-13.9-0.6C5,20.8,11.1,9.3,14.2,5
	c2.6,5.2,5.6,11,8.8,15.8c0.3,0.6,1.1,1.2,0.8,1.6c-0.1,0.1-0.2,0.2-0.3,0.2c-3.5,0.1-4.7-5.1-7.7-9.1c-0.5-0.6-0.9-1-1.4-1
	c-1,0.2-1,0.6-1.9,2.3c-1,2.4-2.4,5.2-3.2,6.9c-0.4,0.8-0.5,1.2-0.5,1.2s3.5-5,4.8-6.6c0.4-0.4,0.7-0.3,0.8-0.1
	c1.5,2.4,2,4.6,3.4,6.7c0.6,1,1.6,1.7,2.6,2.1c1.1,0.4,2.4,0.5,4.2,0.3c4.5-0.7,2.7-3.1,1.3-5.6c-2.3-4-7-13.4-9.3-18.3
	c-0.1-0.4-0.6-0.9-1-1.1C15.1,0,14.6-0.1,14.1,0z"/>
</svg>
