<?xml version="1.0" encoding="utf-8"?>
<!-- Generator: Adobe Illustrator 26.1.0, SVG Export Plug-In . SVG Version: 6.00 Build 0)  -->
<svg version="1.1" id="Layer_1" xmlns="http://www.w3.org/2000/svg" xmlns:xlink="http://www.w3.org/1999/xlink" x="0px" y="0px"
	 viewBox="0 0 276.8 211.2" style="enable-background:new 0 0 276.8 211.2;" xml:space="preserve">
<g>
	<polygon points="233.6,26 190.4,0 147.1,26 147.1,164.3 138.5,159.1 138.3,159.2 138.3,26.1 138.5,26 95.1,0 51.9,26 51.9,164.4 
		43.2,159.1 43.2,26 43.2,26 0,0 0,52 0,185.2 43.2,211.2 86.4,185.2 58.7,168.5 58.7,30.1 95.1,52 95.1,185.2 138.5,211.2 
		181.7,185.2 153.8,168.4 153.8,30.1 190.4,52 190.4,185.2 233.6,211.2 276.8,185.2 233.6,159.1 	"/>
</g>
</svg>
