<?xml version="1.0" encoding="utf-8"?>
<!-- Generator: Adobe Illustrator 26.3.1, SVG Export Plug-In . SVG Version: 6.00 Build 0)  -->
<svg version="1.1" id="Layer_1" xmlns="http://www.w3.org/2000/svg" xmlns:xlink="http://www.w3.org/1999/xlink" x="0px" y="0px"
	 viewBox="0 0 240 240" style="enable-background:new 0 0 240 240;" xml:space="preserve">
<style type="text/css">
	.st0{fill-rule:evenodd;clip-rule:evenodd;fill:#FFFFFF;}
</style>
<circle cx="120" cy="120" r="120"/>
<path class="st0" d="M82,55.1L86.2,45h67.5l4.2,10.1l-29.8,30.5L158,116v8.2l-29.5,30.2l29.5,30.2l-4.2,10.3H86.2L82,184.9
	l29.5-30.2L82,124.2V116l29.8-30.5L82,55.1z M120,76.9l19.5-20.2h-39.1L120,76.9z M120,94l-25.5,26l25.3,26l25.5-26L120,94L120,94z
	 M120,163.1L100.5,183h39.1L120,163.1z"/>
</svg>
