<?xml version="1.0" encoding="utf-8"?>
<!-- Generator: Adobe Illustrator 26.3.1, SVG Export Plug-In . SVG Version: 6.00 Build 0)  -->
<svg version="1.1" id="Layer_1" xmlns="http://www.w3.org/2000/svg" xmlns:xlink="http://www.w3.org/1999/xlink" x="0px" y="0px"
	 viewBox="0 0 1600 900" style="enable-background:new 0 0 1600 900;" xml:space="preserve">
<style type="text/css">
	.st0{clip-path:url(#SVGID_00000036964588382268296290000005894379235489402286_);}
	.st1{fill-rule:evenodd;clip-rule:evenodd;fill-opacity:0;}
	.st2{fill:none;stroke:#999999;stroke-linejoin:round;stroke-miterlimit:10;}
	.st3{fill:#FFFFFF;}
	.st4{fill-rule:evenodd;clip-rule:evenodd;fill:#12141D;}
	.st5{fill-rule:evenodd;clip-rule:evenodd;fill:url(#SVGID_00000010274225186135908580000016181997087378728872_);}
	.st6{fill-rule:evenodd;clip-rule:evenodd;fill:url(#SVGID_00000069359109350184706260000009792337655334578589_);}
	.st7{fill-rule:evenodd;clip-rule:evenodd;fill:url(#SVGID_00000041975428105846615220000011301399016279065272_);}
	.st8{fill-rule:evenodd;clip-rule:evenodd;fill:url(#SVGID_00000087393422104294805740000005468596241106771098_);}
	.st9{fill:none;stroke:#EEEEEE;stroke-linejoin:round;stroke-miterlimit:10;}
</style>
<g>
	<g>
		<g>
			<defs>
				<rect id="SVGID_1_" width="1600" height="900"/>
			</defs>
			<clipPath id="SVGID_00000054955911691075194710000007616943617932658080_">
				<use xlink:href="#SVGID_1_"  style="overflow:visible;"/>
			</clipPath>
			<g style="clip-path:url(#SVGID_00000054955911691075194710000007616943617932658080_);">
				<path class="st1" d="M0,0h1600v900H0V0z"/>
				<g transform="matrix(1.0 0.0 0.0 1.1002444987775062 0.0 0.0)">
					<g>
						<g>
							<g>
								<defs>
									<rect id="SVGID_00000023998774891218258280000016313047890160004785_" y="-135.7" width="1600" height="1089.5"/>
								</defs>
								<clipPath id="SVGID_00000075130338277460920350000009479010739021536693_">
									<use xlink:href="#SVGID_00000023998774891218258280000016313047890160004785_"  style="overflow:visible;"/>
								</clipPath>
								
									<image style="overflow:visible;clip-path:url(#SVGID_00000075130338277460920350000009479010739021536693_);enable-background:new    ;" width="1600" height="818" xlink:href="D:\Dropbox\Active Projects\Axiom Group\Procyon\Website Prototype\project-aleo\aleo-background-blur.jpg" >
								</image>
							</g>
						</g>
					</g>
				</g>
				<path class="st1" d="M632.3,450L632.3,450c0-92.8,75.2-168,168-168l0,0c44.6,0,87.3,17.7,118.8,49.2s49.2,74.2,49.2,118.8l0,0
					c0,92.8-75.2,168-168,168l0,0C707.6,618,632.3,542.8,632.3,450z"/>
				<path class="st2" d="M632.3,450L632.3,450c0-92.8,75.2-168,168-168l0,0c44.6,0,87.3,17.7,118.8,49.2s49.2,74.2,49.2,118.8l0,0
					c0,92.8-75.2,168-168,168l0,0C707.6,618,632.3,542.8,632.3,450z"/>
				<path class="st1" d="M45.6,48.5h558.5v113.1H45.6V48.5z"/>
				<path class="st3" d="M82,101.9L79.2,94H68.3l-2.8,7.9h-4.9l10.6-28.7h5.2L87,101.9H82z M78,89.9l-2.7-7.8
					c-0.1-0.3-0.3-0.8-0.5-1.4s-0.4-1.2-0.6-1.9c-0.2-0.6-0.3-1.2-0.5-1.6c-0.1,0.5-0.3,1.1-0.5,1.8c-0.2,0.7-0.4,1.3-0.5,1.8
					c-0.2,0.6-0.3,1-0.4,1.3l-2.7,7.8C69.6,89.9,78,89.9,78,89.9z M94.9,101.9h-4.6V71.5h4.6V101.9z M110.1,79.9
					c1.9,0,3.6,0.4,5,1.2c1.4,0.8,2.4,1.9,3.2,3.4c0.8,1.5,1.1,3.2,1.1,5.2v2.5H105c0.1,2.1,0.6,3.7,1.7,4.8
					c1.1,1.1,2.6,1.7,4.5,1.7c1.4,0,2.6-0.1,3.7-0.4s2.2-0.7,3.4-1.2v3.7c-1.1,0.5-2.2,0.9-3.3,1.1c-1.1,0.2-2.5,0.4-4,0.4
					c-2.1,0-4-0.4-5.6-1.2c-1.6-0.8-2.9-2.1-3.8-3.7s-1.4-3.7-1.4-6.1s0.4-4.5,1.2-6.2c0.8-1.7,2-3,3.5-3.9
					C106.4,80.3,108.1,79.9,110.1,79.9z M110.1,83.3c-1.4,0-2.6,0.5-3.5,1.4s-1.4,2.3-1.6,4.1h9.8c0-1.1-0.2-2-0.5-2.9
					c-0.3-0.8-0.9-1.5-1.6-2C112,83.5,111.1,83.3,110.1,83.3z M143.6,91c0,1.8-0.2,3.4-0.7,4.8s-1.2,2.6-2,3.5c-0.9,1-2,1.7-3.2,2.2
					c-1.3,0.5-2.7,0.8-4.3,0.8c-1.5,0-2.9-0.2-4.1-0.8c-1.2-0.5-2.3-1.2-3.2-2.2c-0.9-1-1.6-2.1-2.1-3.5s-0.7-3-0.7-4.8
					c0-2.4,0.4-4.4,1.2-6.1c0.8-1.7,2-2.9,3.5-3.8c1.5-0.9,3.4-1.3,5.5-1.3c2,0,3.8,0.4,5.3,1.3s2.7,2.1,3.6,3.8
					C143.2,86.6,143.6,88.7,143.6,91z M128,91c0,1.6,0.2,2.9,0.6,4c0.4,1.1,1,2,1.8,2.6s1.9,0.9,3.1,0.9c1.3,0,2.3-0.3,3.1-0.9
					s1.4-1.4,1.8-2.6c0.4-1.1,0.6-2.5,0.6-4c0-1.6-0.2-2.9-0.6-4c-0.4-1.1-1-1.9-1.8-2.5s-1.8-0.9-3.1-0.9c-1.9,0-3.3,0.6-4.2,1.9
					C128.4,86.8,128,88.6,128,91z M177.5,101.9l-2.8-7.9h-10.9l-2.8,7.9h-5l10.6-28.7h5.2l10.6,28.7
					C182.4,101.9,177.5,101.9,177.5,101.9z M173.5,89.9l-2.7-7.8c-0.1-0.3-0.3-0.8-0.5-1.4s-0.4-1.2-0.6-1.9
					c-0.2-0.6-0.3-1.2-0.5-1.6c-0.1,0.5-0.3,1.1-0.5,1.8c-0.2,0.7-0.4,1.3-0.5,1.8c-0.2,0.6-0.3,1-0.4,1.3l-2.7,7.8
					C165.1,89.9,173.5,89.9,173.5,89.9z M190.4,101.9h-4.6V71.5h4.6V101.9z M203.1,111.5c-2.9,0-5.2-0.5-6.7-1.6
					c-1.6-1.1-2.3-2.5-2.3-4.4c0-1.3,0.4-2.4,1.2-3.4c0.8-0.9,2-1.6,3.6-1.9c-0.6-0.3-1.1-0.7-1.5-1.2c-0.4-0.6-0.6-1.2-0.6-1.8
					c0-0.8,0.2-1.5,0.7-2.1s1.1-1.1,2-1.7c-1.1-0.5-2-1.3-2.7-2.3c-0.7-1.1-1-2.4-1-3.8c0-1.6,0.3-2.9,1-4s1.6-1.9,2.9-2.5
					c1.3-0.6,2.8-0.9,4.6-0.9c0.4,0,0.8,0,1.3,0.1c0.5,0,0.9,0.1,1.3,0.2c0.4,0.1,0.7,0.1,0.9,0.2h7.5V83l-3.7,0.7
					c0.3,0.5,0.6,1.1,0.8,1.7s0.3,1.3,0.3,2c0,2.2-0.8,4-2.3,5.3s-3.7,1.9-6.4,1.9c-0.6,0-1.3-0.1-1.9-0.2c-0.5,0.3-0.8,0.6-1.1,0.9
					c-0.2,0.3-0.4,0.7-0.4,1.2c0,0.3,0.1,0.6,0.4,0.8c0.3,0.2,0.6,0.4,1.1,0.5s1.1,0.2,1.8,0.2h3.7c2.4,0,4.2,0.5,5.4,1.5
					c1.3,1,1.9,2.5,1.9,4.4c0,2.5-1,4.4-3,5.7C209.8,110.8,206.9,111.5,203.1,111.5z M203.2,108.3c1.6,0,3-0.2,4-0.5
					c1.1-0.3,1.9-0.8,2.5-1.3c0.6-0.6,0.8-1.3,0.8-2.1c0-0.7-0.2-1.2-0.5-1.6c-0.4-0.4-0.9-0.6-1.6-0.8c-0.7-0.1-1.6-0.2-2.6-0.2
					h-3.4c-0.9,0-1.6,0.1-2.3,0.4c-0.6,0.3-1.1,0.7-1.5,1.2s-0.5,1.1-0.5,1.8c0,1,0.4,1.8,1.3,2.3
					C200.4,108,201.6,108.3,203.2,108.3z M204.2,91.4c1.3,0,2.3-0.4,3-1.1s1-1.8,1-3.1c0-1.5-0.3-2.6-1-3.3c-0.7-0.7-1.7-1.1-3-1.1
					s-2.3,0.4-3,1.1s-1,1.8-1,3.3c0,1.3,0.3,2.3,1,3.1S202.9,91.4,204.2,91.4z M238.2,91c0,1.8-0.2,3.4-0.7,4.8s-1.2,2.6-2,3.5
					c-0.9,1-2,1.7-3.2,2.2c-1.3,0.5-2.7,0.8-4.3,0.8c-1.5,0-2.9-0.2-4.1-0.8c-1.2-0.5-2.3-1.2-3.2-2.2s-1.6-2.1-2.1-3.5
					s-0.7-3-0.7-4.8c0-2.4,0.4-4.4,1.2-6.1s2-2.9,3.5-3.8s3.4-1.3,5.5-1.3c2,0,3.8,0.4,5.3,1.3s2.7,2.1,3.6,3.8
					C237.8,86.6,238.2,88.7,238.2,91z M222.5,91c0,1.6,0.2,2.9,0.6,4c0.4,1.1,1,2,1.8,2.6s1.9,0.9,3.1,0.9c1.3,0,2.3-0.3,3.1-0.9
					s1.4-1.4,1.8-2.6c0.4-1.1,0.6-2.5,0.6-4c0-1.6-0.2-2.9-0.6-4c-0.4-1.1-1-1.9-1.8-2.5s-1.8-0.9-3.1-0.9c-1.9,0-3.3,0.6-4.2,1.9
					C223,86.8,222.5,88.6,222.5,91z M254.4,79.9c0.4,0,0.8,0,1.2,0.1c0.4,0,0.8,0.1,1.1,0.2l-0.4,4.3c-0.3-0.1-0.6-0.1-1-0.2
					c-0.4,0-0.7-0.1-1.1-0.1c-0.8,0-1.6,0.1-2.3,0.4s-1.4,0.7-2,1.2s-1,1.2-1.4,2c-0.3,0.8-0.5,1.7-0.5,2.8v11.3h-4.6V80.3h3.6
					l0.6,3.8h0.2c0.4-0.8,1-1.5,1.6-2.1s1.4-1.1,2.2-1.5C252.5,80,253.5,79.9,254.4,79.9z M265.3,80.3v21.6h-4.6V80.3H265.3z
					 M263.1,72c0.7,0,1.3,0.2,1.8,0.6s0.8,1,0.8,1.9s-0.3,1.6-0.8,2s-1.1,0.6-1.8,0.6c-0.7,0-1.3-0.2-1.8-0.6s-0.8-1-0.8-2
					c0-0.9,0.2-1.6,0.8-1.9C261.7,72.2,262.4,72,263.1,72z M280,98.6c0.6,0,1.2-0.1,1.8-0.2c0.6-0.1,1.1-0.2,1.6-0.4v3.5
					c-0.5,0.2-1.2,0.4-2,0.6s-1.6,0.2-2.5,0.2c-1.2,0-2.3-0.2-3.3-0.6s-1.7-1.1-2.3-2.1c-0.6-1-0.9-2.4-0.9-4.2V83.8h-3v-2l3.2-1.6
					l1.5-4.6h2.9v4.8h6.2v3.5H277v11.6c0,1.1,0.3,1.9,0.8,2.4C278.3,98.3,279.1,98.6,280,98.6z M292.3,71.5v7.6c0,0.8,0,1.6-0.1,2.3
					c0,0.8-0.1,1.3-0.1,1.8h0.2c0.5-0.8,1-1.4,1.7-1.9s1.4-0.9,2.2-1.1c0.8-0.2,1.7-0.4,2.6-0.4c1.7,0,3.1,0.3,4.2,0.8
					c1.2,0.6,2.1,1.4,2.7,2.6s0.9,2.7,0.9,4.5v14.1H302V88.6c0-1.7-0.3-2.9-1-3.8c-0.7-0.8-1.8-1.3-3.2-1.3c-1.4,0-2.5,0.3-3.3,0.9
					s-1.4,1.4-1.8,2.5c-0.3,1.1-0.5,2.5-0.5,4.1v10.8h-4.6V71.5H292.3z M337.6,79.9c2.4,0,4.2,0.6,5.5,1.9c1.2,1.2,1.9,3.3,1.9,6
					v14.1h-4.6V88.6c0-1.6-0.3-2.9-1-3.7c-0.6-0.8-1.6-1.2-2.9-1.2c-1.8,0-3.1,0.6-3.9,1.8c-0.8,1.2-1.2,2.9-1.2,5.1v11.5h-4.6V88.6
					c0-1.1-0.1-2-0.4-2.7s-0.7-1.3-1.3-1.7c-0.6-0.4-1.3-0.6-2.2-0.6c-1.3,0-2.3,0.3-3,0.9c-0.8,0.6-1.3,1.4-1.6,2.5
					c-0.3,1.1-0.5,2.5-0.5,4.1v10.8h-4.6V80.3h3.6l0.6,2.9h0.2c0.4-0.8,1-1.4,1.7-1.9s1.4-0.9,2.2-1.1c0.8-0.2,1.7-0.4,2.5-0.4
					c1.6,0,3,0.3,4.1,0.9s1.9,1.4,2.5,2.6h0.3c0.7-1.2,1.6-2,2.8-2.6C334.9,80.1,336.2,79.9,337.6,79.9z"/>
				<path class="st3" d="M68.6,118.1c2.5,0,4.2,0.5,5.4,1.5c1.1,1,1.7,2.4,1.7,4.2c0,0.8-0.1,1.6-0.4,2.4c-0.2,0.7-0.7,1.4-1.2,2
					c-0.6,0.6-1.3,1-2.3,1.3c-0.9,0.3-2.1,0.5-3.5,0.5h-2v7.1h-3.1v-19C63.2,118.1,68.6,118.1,68.6,118.1z M68.4,120.6h-2.2v6.7h1.7
					c1,0,1.8-0.1,2.5-0.3c0.7-0.2,1.2-0.6,1.6-1.1s0.5-1.2,0.5-2c0-1.1-0.3-1.9-1-2.5C70.8,120.9,69.8,120.6,68.4,120.6z
					 M86.4,122.4c0.2,0,0.5,0,0.8,0s0.5,0.1,0.8,0.1l-0.3,2.9c-0.2-0.1-0.4-0.1-0.7-0.1c-0.3,0-0.5,0-0.7,0c-0.6,0-1.1,0.1-1.6,0.3
					c-0.5,0.2-0.9,0.4-1.3,0.8s-0.7,0.8-0.9,1.3c-0.2,0.5-0.3,1.2-0.3,1.9v7.5h-3.1v-14.4h2.4l0.4,2.5H82c0.3-0.5,0.6-1,1.1-1.4
					c0.4-0.4,0.9-0.8,1.5-1C85.2,122.5,85.8,122.4,86.4,122.4z M103.4,129.9c0,1.2-0.2,2.3-0.5,3.2s-0.8,1.7-1.4,2.4
					c-0.6,0.6-1.3,1.1-2.2,1.5c-0.8,0.3-1.8,0.5-2.8,0.5s-1.9-0.2-2.7-0.5c-0.8-0.3-1.5-0.8-2.1-1.5c-0.6-0.6-1.1-1.4-1.4-2.4
					c-0.3-0.9-0.5-2-0.5-3.2c0-1.6,0.3-2.9,0.8-4c0.6-1.1,1.3-1.9,2.4-2.5c1-0.6,2.2-0.9,3.7-0.9c1.3,0,2.5,0.3,3.5,0.9
					s1.8,1.4,2.4,2.5C103.1,126.9,103.4,128.3,103.4,129.9z M93,129.9c0,1.1,0.1,2,0.4,2.7s0.7,1.3,1.2,1.7s1.2,0.6,2.1,0.6
					s1.5-0.2,2.1-0.6c0.5-0.4,0.9-1,1.2-1.7c0.3-0.8,0.4-1.7,0.4-2.7s-0.1-1.9-0.4-2.7c-0.2-0.7-0.6-1.3-1.2-1.7
					c-0.5-0.4-1.2-0.6-2.1-0.6c-1.3,0-2.2,0.4-2.8,1.3C93.2,127,93,128.3,93,129.9z M119.7,129.9c0,1.2-0.2,2.3-0.5,3.2
					s-0.8,1.7-1.4,2.4c-0.6,0.6-1.3,1.1-2.2,1.5c-0.8,0.3-1.8,0.5-2.8,0.5s-1.9-0.2-2.7-0.5c-0.8-0.3-1.5-0.8-2.1-1.5
					c-0.6-0.6-1.1-1.4-1.4-2.4c-0.3-0.9-0.5-2-0.5-3.2c0-1.6,0.3-2.9,0.8-4c0.6-1.1,1.3-1.9,2.4-2.5c1-0.6,2.2-0.9,3.7-0.9
					c1.3,0,2.5,0.3,3.5,0.9s1.8,1.4,2.4,2.5C119.4,126.9,119.7,128.3,119.7,129.9z M109.2,129.9c0,1.1,0.1,2,0.4,2.7
					s0.7,1.3,1.2,1.7s1.2,0.6,2.1,0.6s1.5-0.2,2.1-0.6c0.5-0.4,0.9-1,1.2-1.7c0.3-0.8,0.4-1.7,0.4-2.7s-0.1-1.9-0.4-2.7
					c-0.2-0.7-0.6-1.3-1.2-1.7c-0.5-0.4-1.2-0.6-2.1-0.6c-1.3,0-2.2,0.4-2.8,1.3C109.5,127,109.2,128.3,109.2,129.9z M130.4,125
					h-3.5v12.1h-3.1V125h-2.4v-1.5l2.4-0.9v-1c0-1.2,0.2-2.2,0.6-2.9c0.4-0.7,0.9-1.2,1.7-1.6c0.7-0.3,1.6-0.5,2.6-0.5
					c0.7,0,1.3,0.1,1.8,0.2c0.6,0.1,1,0.2,1.4,0.4l-0.8,2.3c-0.3-0.1-0.6-0.2-1-0.3c-0.4-0.1-0.8-0.1-1.2-0.1
					c-0.7,0-1.2,0.2-1.5,0.7c-0.3,0.4-0.5,1.1-0.5,1.9v1h3.5V125z M152.5,129.9c0,1.2-0.2,2.3-0.5,3.2s-0.8,1.7-1.4,2.4
					c-0.6,0.6-1.3,1.1-2.2,1.5c-0.8,0.3-1.8,0.5-2.8,0.5s-1.9-0.2-2.7-0.5s-1.5-0.8-2.1-1.5c-0.6-0.6-1.1-1.4-1.4-2.4
					c-0.3-0.9-0.5-2-0.5-3.2c0-1.6,0.3-2.9,0.8-4c0.6-1.1,1.3-1.9,2.4-2.5c1-0.6,2.2-0.9,3.7-0.9c1.3,0,2.5,0.3,3.5,0.9
					s1.8,1.4,2.4,2.5C152.2,126.9,152.5,128.3,152.5,129.9z M142.1,129.9c0,1.1,0.1,2,0.4,2.7c0.3,0.7,0.7,1.3,1.2,1.7
					s1.2,0.6,2.1,0.6c0.9,0,1.5-0.2,2.1-0.6c0.5-0.4,0.9-1,1.2-1.7c0.3-0.8,0.4-1.7,0.4-2.7s-0.1-1.9-0.4-2.7
					c-0.2-0.7-0.6-1.3-1.2-1.7c-0.5-0.4-1.2-0.6-2.1-0.6c-1.3,0-2.2,0.4-2.8,1.3C142.4,127,142.1,128.3,142.1,129.9z M163.2,125
					h-3.5v12.1h-3.1V125h-2.4v-1.5l2.4-0.9v-1c0-1.2,0.2-2.2,0.6-2.9c0.4-0.7,0.9-1.2,1.7-1.6c0.7-0.3,1.6-0.5,2.6-0.5
					c0.7,0,1.3,0.1,1.8,0.2c0.6,0.1,1,0.2,1.4,0.4l-0.8,2.3c-0.3-0.1-0.6-0.2-1-0.3c-0.4-0.1-0.8-0.1-1.2-0.1
					c-0.7,0-1.2,0.2-1.5,0.7c-0.3,0.4-0.5,1.1-0.5,1.9v1h3.5V125z M183.9,131.9c0,1.1-0.3,2.1-0.8,2.9c-0.6,0.8-1.3,1.4-2.4,1.9
					c-1,0.4-2.2,0.7-3.7,0.7c-0.7,0-1.3,0-2-0.1c-0.6-0.1-1.2-0.2-1.8-0.3c-0.6-0.2-1.1-0.3-1.5-0.6v-3c0.8,0.3,1.6,0.7,2.6,0.9
					c1,0.3,1.9,0.4,2.9,0.4c0.8,0,1.5-0.1,2-0.3s0.9-0.5,1.2-0.9s0.4-0.9,0.4-1.4c0-0.6-0.2-1-0.5-1.4s-0.8-0.8-1.4-1.1
					c-0.6-0.3-1.4-0.7-2.3-1c-0.6-0.3-1.2-0.5-1.8-0.9c-0.6-0.3-1.1-0.7-1.5-1.1s-0.8-1-1-1.5c-0.2-0.6-0.4-1.3-0.4-2.1
					c0-1.1,0.3-2,0.8-2.8s1.2-1.4,2.2-1.8c0.9-0.4,2.1-0.6,3.3-0.6c1,0,1.9,0.1,2.8,0.3c0.9,0.2,1.8,0.5,2.6,0.9l-1,2.5
					c-0.8-0.3-1.5-0.6-2.3-0.8c-0.7-0.2-1.5-0.3-2.2-0.3s-1.2,0.1-1.7,0.3c-0.5,0.2-0.8,0.5-1,0.8c-0.2,0.4-0.4,0.8-0.4,1.3
					c0,0.6,0.1,1,0.4,1.4c0.3,0.4,0.7,0.7,1.3,1s1.3,0.7,2.2,1c1.1,0.4,1.9,0.9,2.7,1.4c0.7,0.5,1.3,1,1.7,1.7
					C183.7,130.1,183.9,130.9,183.9,131.9z M199.8,122.7v14.4h-2.4l-0.4-1.9h-0.2c-0.3,0.5-0.7,0.9-1.2,1.2s-1,0.6-1.6,0.7
					c-0.6,0.2-1.2,0.2-1.8,0.2c-1.1,0-2-0.2-2.8-0.5c-0.8-0.4-1.3-0.9-1.8-1.7c-0.4-0.8-0.6-1.8-0.6-3v-9.4h3.1v8.8
					c0,1.1,0.2,2,0.7,2.5c0.5,0.6,1.2,0.8,2.1,0.8c0.9,0,1.7-0.2,2.2-0.6c0.6-0.4,0.9-0.9,1.2-1.7c0.2-0.8,0.3-1.7,0.3-2.8v-7.2h3.2
					V122.7z M210,137.4c-1.4,0-2.5-0.3-3.5-0.8s-1.8-1.3-2.3-2.4c-0.5-1.1-0.8-2.5-0.8-4.2c0-1.8,0.3-3.2,0.9-4.3
					c0.6-1.1,1.4-1.9,2.5-2.5c1.1-0.5,2.3-0.8,3.6-0.8c0.9,0,1.6,0.1,2.3,0.3c0.7,0.2,1.3,0.4,1.8,0.6l-0.9,2.5
					c-0.5-0.2-1.1-0.4-1.6-0.5c-0.6-0.1-1.1-0.2-1.6-0.2c-0.8,0-1.5,0.2-2.1,0.6s-1,0.9-1.2,1.7c-0.3,0.7-0.4,1.7-0.4,2.7
					c0,1.1,0.1,1.9,0.4,2.7s0.7,1.3,1.2,1.6c0.6,0.4,1.2,0.5,2,0.5s1.5-0.1,2.1-0.3s1.2-0.4,1.8-0.7v2.7c-0.5,0.3-1.1,0.5-1.8,0.7
					C211.7,137.3,210.9,137.4,210,137.4z M223.2,137.4c-1.4,0-2.5-0.3-3.5-0.8s-1.8-1.3-2.3-2.4c-0.5-1.1-0.8-2.5-0.8-4.2
					c0-1.8,0.3-3.2,0.9-4.3c0.6-1.1,1.4-1.9,2.5-2.5c1.1-0.5,2.3-0.8,3.6-0.8c0.9,0,1.6,0.1,2.3,0.3c0.7,0.2,1.3,0.4,1.8,0.6
					l-0.9,2.5c-0.5-0.2-1.1-0.4-1.6-0.5c-0.6-0.1-1.1-0.2-1.6-0.2c-0.8,0-1.5,0.2-2.1,0.6s-1,0.9-1.2,1.7c-0.3,0.7-0.4,1.7-0.4,2.7
					c0,1.1,0.1,1.9,0.4,2.7s0.7,1.3,1.2,1.6c0.6,0.4,1.2,0.5,2,0.5s1.5-0.1,2.1-0.3s1.2-0.4,1.8-0.7v2.7c-0.5,0.3-1.1,0.5-1.8,0.7
					C224.9,137.3,224.1,137.4,223.2,137.4z M233.7,122.7v14.4h-3.1v-14.4C230.6,122.7,233.7,122.7,233.7,122.7z M232.2,117.2
					c0.5,0,0.9,0.1,1.2,0.4c0.3,0.2,0.5,0.7,0.5,1.3c0,0.6-0.2,1-0.5,1.3s-0.8,0.4-1.2,0.4c-0.5,0-0.9-0.1-1.2-0.4s-0.5-0.7-0.5-1.3
					c0-0.6,0.2-1,0.5-1.3C231.3,117.3,231.7,117.2,232.2,117.2z M245.6,122.4c1.6,0,2.9,0.4,3.8,1.3c0.9,0.8,1.4,2.2,1.4,4v9.4h-3
					v-8.8c0-1.1-0.2-2-0.7-2.5c-0.5-0.6-1.2-0.8-2.1-0.8c-1.4,0-2.4,0.4-2.9,1.3s-0.8,2.1-0.8,3.7v7.2h-3.1v-14.4h2.4l0.4,2h0.2
					c0.3-0.5,0.7-0.9,1.2-1.2c0.5-0.3,1-0.6,1.6-0.7C244.4,122.5,245,122.4,245.6,122.4z M260.8,137.4c-1.4,0-2.5-0.3-3.5-0.8
					s-1.8-1.3-2.3-2.4c-0.5-1.1-0.8-2.5-0.8-4.2c0-1.8,0.3-3.2,0.9-4.3c0.6-1.1,1.4-1.9,2.5-2.5c1.1-0.5,2.3-0.8,3.6-0.8
					c0.9,0,1.6,0.1,2.3,0.3c0.7,0.2,1.3,0.4,1.8,0.6l-0.9,2.5c-0.5-0.2-1.1-0.4-1.6-0.5c-0.6-0.1-1.1-0.2-1.6-0.2
					c-0.8,0-1.5,0.2-2.1,0.6s-1,0.9-1.2,1.7c-0.3,0.7-0.4,1.7-0.4,2.7c0,1.1,0.1,1.9,0.4,2.7s0.7,1.3,1.2,1.6c0.6,0.4,1.2,0.5,2,0.5
					s1.5-0.1,2.1-0.3s1.2-0.4,1.8-0.7v2.7c-0.5,0.3-1.1,0.5-1.8,0.7C262.5,137.3,261.7,137.4,260.8,137.4z M273.6,134.9
					c0.4,0,0.8,0,1.2-0.1c0.4-0.1,0.8-0.2,1.1-0.3v2.3c-0.3,0.1-0.8,0.3-1.3,0.4s-1.1,0.2-1.7,0.2c-0.8,0-1.6-0.1-2.2-0.4
					c-0.6-0.3-1.2-0.8-1.5-1.4c-0.4-0.7-0.6-1.6-0.6-2.8V125h-2v-1.4l2.1-1.1l1-3.1h1.9v3.2h4.1v2.3h-4.1v7.7c0,0.7,0.2,1.3,0.5,1.6
					S273,134.9,273.6,134.9z M308.6,118.1l-5,19h-3.4l-3.2-11.4c-0.1-0.3-0.2-0.6-0.2-1c-0.1-0.4-0.2-0.8-0.3-1.2
					c-0.1-0.4-0.2-0.8-0.2-1.1c-0.1-0.3-0.1-0.6-0.1-0.8c0,0.2,0,0.4-0.1,0.8c-0.1,0.3-0.1,0.7-0.2,1.1s-0.2,0.8-0.3,1.2
					c-0.1,0.4-0.2,0.7-0.3,1l-3.1,11.4h-3.4l-5-19h3.1l2.8,11.2c0.1,0.4,0.2,0.7,0.3,1.2c0.1,0.4,0.2,0.8,0.3,1.2
					c0.1,0.4,0.2,0.8,0.2,1.2c0.1,0.4,0.1,0.8,0.2,1.1c0-0.3,0.1-0.7,0.2-1.1c0.1-0.4,0.1-0.8,0.2-1.2s0.2-0.8,0.3-1.2
					c0.1-0.4,0.2-0.8,0.3-1.1l3.1-11.2h3l3.2,11.3c0.1,0.3,0.2,0.7,0.3,1.1c0.1,0.4,0.2,0.8,0.3,1.2c0.1,0.4,0.2,0.8,0.2,1.2
					c0.1,0.4,0.1,0.7,0.2,1c0.1-0.4,0.1-0.9,0.2-1.5s0.2-1.1,0.3-1.7c0.1-0.6,0.2-1.1,0.4-1.6l2.7-11.2L308.6,118.1L308.6,118.1z
					 M323.7,129.9c0,1.2-0.2,2.3-0.5,3.2s-0.8,1.7-1.4,2.4c-0.6,0.6-1.3,1.1-2.2,1.5c-0.8,0.3-1.8,0.5-2.8,0.5s-1.9-0.2-2.7-0.5
					c-0.8-0.3-1.5-0.8-2.1-1.5c-0.6-0.6-1.1-1.4-1.4-2.4c-0.3-0.9-0.5-2-0.5-3.2c0-1.6,0.3-2.9,0.8-4c0.6-1.1,1.3-1.9,2.4-2.5
					c1-0.6,2.2-0.9,3.7-0.9c1.3,0,2.5,0.3,3.5,0.9s1.8,1.4,2.4,2.5C323.4,126.9,323.7,128.3,323.7,129.9z M313.2,129.9
					c0,1.1,0.1,2,0.4,2.7s0.7,1.3,1.2,1.7s1.2,0.6,2.1,0.6s1.5-0.2,2.1-0.6c0.5-0.4,0.9-1,1.2-1.7c0.3-0.8,0.4-1.7,0.4-2.7
					s-0.1-1.9-0.4-2.7c-0.2-0.7-0.6-1.3-1.2-1.7c-0.5-0.4-1.2-0.6-2.1-0.6c-1.3,0-2.2,0.4-2.8,1.3
					C313.5,127,313.2,128.3,313.2,129.9z M334.5,122.4c0.2,0,0.5,0,0.8,0s0.5,0.1,0.8,0.1l-0.3,2.9c-0.2-0.1-0.4-0.1-0.7-0.1
					c-0.3,0-0.5,0-0.7,0c-0.6,0-1.1,0.1-1.6,0.3c-0.5,0.2-0.9,0.4-1.3,0.8s-0.7,0.8-0.9,1.3c-0.2,0.5-0.3,1.2-0.3,1.9v7.5h-3.1
					v-14.4h2.4l0.4,2.5h0.1c0.3-0.5,0.6-1,1.1-1.4c0.4-0.4,0.9-0.8,1.5-1C333.2,122.5,333.8,122.4,334.5,122.4z M341.8,116.8v9.8
					c0,0.4,0,0.9-0.1,1.5c0,0.5-0.1,1-0.1,1.5h0.1c0.2-0.3,0.5-0.7,0.8-1.1c0.3-0.4,0.6-0.8,0.9-1.1l4.4-4.7h3.5l-5.8,6.2l6.1,8.2
					H348l-4.6-6.3l-1.7,1.5v4.9h-3.1V117h3.2V116.8z"/>
				<path class="st4" d="M687.9,563L687.9,563c-61.6-62.1-61.4-162.8,0.3-225l0,0c29.6-29.9,69.8-46.7,111.6-46.7
					s82,16.7,111.5,46.5l0,0c61.6,62.1,61.4,162.8-0.3,225l0,0C849.3,624.9,749.4,625,687.9,563z"/>
				
					<linearGradient id="SVGID_00000098918055960367915750000016073242467284121532_" gradientUnits="userSpaceOnUse" x1="-2426.2578" y1="1861.5104" x2="-2426.2578" y2="1844.1573" gradientTransform="matrix(17.2098 -17.3536 -17.3536 -17.2098 74447.2344 -9746.2891)">
					<stop  offset="0" style="stop-color:#7108D3;stop-opacity:0"/>
					<stop  offset="1" style="stop-color:#7108D3"/>
				</linearGradient>
				<path style="fill-rule:evenodd;clip-rule:evenodd;fill:url(#SVGID_00000098918055960367915750000016073242467284121532_);" d="
					M626.4,404.7c7.3-28.5,20.9-54.9,38.7-75C612.7,279,550.9,244.1,484.9,224C377.1,375,390.8,589.4,526,725.7
					c10.5,10.6,21,19,30.4,28.5c20.9-67.6,57.5-129.9,108.8-183.7C626.5,527.2,610.7,464.9,626.4,404.7z"/>
				<path class="st1" d="M461.8,630.4V270.3h134.4v360.1H461.8z"/>
				<path class="st3" d="M534.4,501.2c1.4,0,2.6,0.3,3.7,1c1,0.7,1.8,1.7,2.4,3c0.6,1.3,0.8,2.9,0.8,4.8c0,0.8-0.1,1.6-0.2,2.4
					c-0.1,0.8-0.3,1.5-0.5,2.3c-0.2,0.7-0.5,1.4-0.8,2h-4.7c0.5-1.1,1-2.3,1.4-3.5s0.6-2.4,0.6-3.6c0-0.8-0.1-1.5-0.3-2
					s-0.5-0.9-0.9-1.1s-0.8-0.3-1.3-0.3c-0.6,0-1.1,0.2-1.5,0.6s-0.8,0.9-1.2,1.7c-0.4,0.7-0.8,1.5-1.2,2.4c-0.3,0.6-0.6,1.2-1,1.8
					s-0.8,1.3-1.4,1.9c-0.5,0.6-1.2,1.1-2,1.4c-0.8,0.4-1.7,0.5-2.8,0.5c-1.4,0-2.6-0.3-3.6-1s-1.8-1.6-2.3-2.8s-0.8-2.6-0.8-4.3
					c0-1.2,0.1-2.4,0.4-3.5c0.3-1.1,0.7-2.3,1.2-3.5l3.9,1.6c-0.4,1.1-0.8,2.1-1,3s-0.4,1.7-0.4,2.6c0,0.6,0.1,1.2,0.3,1.6
					s0.5,0.8,0.8,1c0.4,0.2,0.8,0.3,1.2,0.3c0.6,0,1-0.2,1.4-0.5s0.8-0.8,1.1-1.5c0.4-0.7,0.8-1.5,1.2-2.5c0.6-1.2,1.2-2.2,1.8-3.1
					s1.4-1.5,2.2-2C532.1,501.4,533.1,501.2,534.4,501.2z M522.4,489.8c0-1.7,0.3-3.1,1-4.3c0.6-1.2,1.6-2.2,2.8-2.8
					c1.2-0.7,2.7-1,4.5-1h2.4v11.7c1.4-0.1,2.5-0.5,3.3-1.2c0.8-0.8,1.2-1.9,1.2-3.3c0-1.2-0.1-2.2-0.3-3.2s-0.6-2-1.1-3h3.8
					c0.4,0.9,0.8,1.8,1,2.8s0.3,2.2,0.3,3.6c0,1.8-0.3,3.4-1,4.8s-1.7,2.5-3.1,3.3c-1.4,0.8-3.1,1.2-5.2,1.2c-2.1,0-3.9-0.4-5.3-1.1
					c-1.4-0.7-2.5-1.7-3.2-3C522.8,493,522.4,491.5,522.4,489.8z M526,489.7c0,1,0.3,1.8,0.9,2.4c0.6,0.6,1.6,1,2.9,1.1v-7
					c-0.7,0-1.4,0.1-2,0.4c-0.6,0.2-1,0.6-1.4,1.1C526.1,488.3,526,489,526,489.7z M541.3,470.2c0,1.8-0.3,3.3-1,4.6s-1.7,2.2-3,2.9
					c-1.4,0.7-3.2,1-5.3,1c-2.2,0-4-0.4-5.4-1.1c-1.4-0.8-2.4-1.8-3.1-3.1c-0.7-1.3-1-2.9-1-4.7c0-1.2,0.1-2.3,0.4-3.2
					c0.2-0.9,0.5-1.7,0.9-2.4l3.8,1.5c-0.3,0.8-0.6,1.5-0.8,2.2s-0.3,1.3-0.3,2c0,0.9,0.2,1.6,0.6,2.2s1,1,1.8,1.3s1.8,0.4,3.1,0.4
					c1.2,0,2.2-0.2,3-0.5s1.4-0.7,1.8-1.3c0.4-0.6,0.6-1.3,0.6-2.1c0-1-0.1-1.9-0.4-2.8s-0.7-1.6-1.2-2.3h4.2c0.5,0.8,0.8,1.6,1,2.4
					C541.2,467.9,541.3,468.9,541.3,470.2z M522.8,443.8H541v3.8l-2.3,0.7v0.3c0.6,0.4,1.1,0.9,1.5,1.5s0.7,1.2,0.9,1.9
					c0.2,0.7,0.3,1.4,0.3,2.2c0,1.3-0.2,2.4-0.7,3.4s-1.2,1.7-2.2,2.2s-2.2,0.8-3.8,0.8h-11.9v-5h10.6c1.3,0,2.3-0.2,3-0.7
					s1-1.2,1-2.2s-0.2-1.8-0.7-2.4s-1.2-1-2-1.2c-0.9-0.2-2-0.4-3.3-0.4h-8.5L522.8,443.8L522.8,443.8z M522.4,428.4
					c0-0.2,0-0.5,0-0.9c0-0.3,0.1-0.6,0.1-0.8l4.7,0.4c-0.1,0.2-0.1,0.4-0.1,0.7c0,0.3,0,0.5,0,0.8c0,0.6,0.1,1.3,0.2,1.9
					c0.2,0.6,0.4,1.1,0.8,1.6c0.4,0.5,0.8,0.9,1.4,1.1c0.6,0.3,1.3,0.4,2.2,0.4h9.3v5h-18.2v-3.8l3-0.7v-0.2
					c-0.6-0.4-1.2-0.8-1.7-1.3s-0.9-1.2-1.2-1.8C522.6,430,522.4,429.2,522.4,428.4z M522.8,418.5H541v5h-18.2V418.5z M515.6,420.9
					c0-0.7,0.2-1.4,0.5-1.9s1-0.8,1.9-0.8s1.6,0.3,1.9,0.8c0.4,0.5,0.5,1.2,0.5,1.9c0,0.8-0.2,1.4-0.5,1.9c-0.4,0.5-1,0.8-1.9,0.8
					s-1.6-0.3-1.9-0.8C515.8,422.3,515.6,421.7,515.6,420.9z M537.3,405.6c0-0.5-0.1-1.1-0.2-1.6c-0.1-0.5-0.3-1-0.4-1.5h3.7
					c0.2,0.5,0.4,1.2,0.6,2c0.2,0.8,0.2,1.6,0.2,2.6c0,1.1-0.2,2.1-0.5,2.9c-0.4,0.9-1,1.5-1.8,2c-0.9,0.5-2.1,0.7-3.7,0.7h-8.8v2.4
					h-2.1l-1.7-2.7l-3.8-1.4v-3.2h3.9v-5.1h3.7v5.1h8.8c0.7,0,1.2-0.2,1.6-0.6C537.2,406.7,537.3,406.2,537.3,405.6z M522.8,401.4
					V396l10.2-3.4c0.3-0.1,0.7-0.2,1-0.3c0.3-0.1,0.7-0.2,1-0.2c0.4-0.1,0.7-0.1,1.1-0.1v-0.1c-0.6-0.1-1.1-0.2-1.6-0.3
					c-0.5-0.1-1-0.3-1.5-0.4l-10.2-3.4v-5.3l20.5,7.7c1.3,0.5,2.3,1.1,3.1,1.8c0.8,0.8,1.5,1.6,1.9,2.6s0.6,2,0.6,3.2
					c0,0.6,0,1.1-0.1,1.5s-0.1,0.8-0.2,1h-3.9c0.1-0.2,0.1-0.5,0.1-0.9c0-0.3,0.1-0.7,0.1-1.1c0-0.7-0.1-1.3-0.4-1.8
					c-0.3-0.5-0.7-0.9-1.2-1.2c-0.5-0.3-1-0.6-1.6-0.8l-0.9-0.3L522.8,401.4z"/>
				
					<linearGradient id="SVGID_00000045599012555789779070000016353417957153963176_" gradientUnits="userSpaceOnUse" x1="-2426.8479" y1="1832.9656" x2="-2426.8481" y2="1816.6013" gradientTransform="matrix(16.2279 -16.3635 -16.3635 -16.2279 70062.75 -9386.9639)">
					<stop  offset="0" style="stop-color:#00C0F9"/>
					<stop  offset="1" style="stop-color:#00C0F9;stop-opacity:0"/>
					<stop  offset="1" style="stop-color:#FFFFFF;stop-opacity:0"/>
				</linearGradient>
				<path style="fill-rule:evenodd;clip-rule:evenodd;fill:url(#SVGID_00000045599012555789779070000016353417957153963176_);" d="
					M754,625.3c-28.2-7.4-52.3-21.1-73.2-40.1c-51.2,53.7-85.7,115.9-104.4,181.2c150.5,109.7,360.6,96,496.4-40.9
					c9.4-9.5,19.8-20,28.2-30.6c-66.9-21.1-128.6-58-180.8-108.6C875.2,625.3,814.6,642.1,754,625.3z"/>
				<path class="st1" d="M621.8,656.2h357.1v135.5H621.8V656.2z"/>
				<path class="st3" d="M728.6,736v-23.8h5v19.6h9.6v4.2H728.6z M763.5,726.9c0,1.5-0.2,2.9-0.6,4c-0.4,1.2-1,2.2-1.8,3
					s-1.7,1.4-2.8,1.8c-1.1,0.4-2.3,0.6-3.7,0.6c-1.3,0-2.5-0.2-3.5-0.6c-1.1-0.4-2-1-2.8-1.8s-1.4-1.8-1.8-3
					c-0.4-1.2-0.6-2.5-0.6-4c0-2,0.4-3.7,1.1-5.1c0.7-1.4,1.7-2.5,3.1-3.2c1.3-0.7,2.9-1.1,4.7-1.1c1.7,0,3.2,0.4,4.5,1.1
					c1.3,0.7,2.4,1.8,3.1,3.2C763.2,723.1,763.5,724.8,763.5,726.9z M751,726.9c0,1.2,0.1,2.2,0.4,3c0.3,0.8,0.7,1.4,1.2,1.8
					c0.6,0.4,1.3,0.6,2.2,0.6s1.6-0.2,2.1-0.6c0.6-0.4,1-1,1.2-1.8c0.3-0.8,0.4-1.8,0.4-3s-0.1-2.2-0.4-3c-0.2-0.8-0.7-1.4-1.2-1.8
					c-0.6-0.4-1.3-0.6-2.2-0.6c-1.3,0-2.3,0.5-2.9,1.4C751.2,723.7,751,725.1,751,726.9z M782.6,736l-1.4-6.4
					c-0.1-0.4-0.2-0.9-0.4-1.7c-0.2-0.7-0.4-1.5-0.6-2.4c-0.2-0.9-0.4-1.6-0.5-2.4c-0.2-0.7-0.3-1.3-0.4-1.6h-0.1
					c-0.1,0.3-0.2,0.9-0.4,1.6c-0.2,0.7-0.3,1.5-0.5,2.4s-0.4,1.7-0.6,2.4c-0.2,0.8-0.3,1.3-0.4,1.7l-1.5,6.3h-5.3l-5.2-18.2h4.9
					l2.1,8c0.1,0.6,0.3,1.2,0.4,2c0.1,0.8,0.3,1.5,0.4,2.2c0.1,0.7,0.2,1.3,0.2,1.7h0.1c0-0.3,0.1-0.7,0.1-1.2
					c0.1-0.5,0.2-1.1,0.2-1.6c0.1-0.6,0.2-1.1,0.3-1.5c0.1-0.5,0.1-0.8,0.2-0.9l2.2-8.7h5.5l2.1,8.7c0.1,0.3,0.2,0.8,0.3,1.5
					s0.2,1.4,0.3,2.1c0.1,0.7,0.2,1.3,0.2,1.7h0.1c0-0.4,0.1-0.9,0.2-1.6c0.1-0.7,0.2-1.5,0.4-2.3c0.1-0.8,0.3-1.5,0.5-2l2.2-8h4.9
					L788,736H782.6z M815.3,716c-1,0-1.8,0.2-2.6,0.6c-0.7,0.4-1.4,0.9-1.9,1.6c-0.5,0.7-0.9,1.5-1.1,2.5c-0.3,1-0.4,2.1-0.4,3.4
					c0,1.7,0.2,3.1,0.6,4.3c0.4,1.2,1.1,2.1,1.9,2.7c0.9,0.6,2,0.9,3.4,0.9c1,0,1.9-0.1,2.9-0.3s2-0.5,3.2-0.9v4.2
					c-1.1,0.4-2.1,0.7-3.1,0.9s-2.2,0.3-3.4,0.3c-2.4,0-4.5-0.5-6-1.5c-1.6-1-2.7-2.4-3.5-4.3c-0.8-1.8-1.1-4-1.1-6.4
					c0-1.8,0.2-3.5,0.7-5s1.2-2.8,2.1-3.9c0.9-1.1,2.1-1.9,3.5-2.5s3-0.9,4.8-0.9c1.2,0,2.4,0.2,3.6,0.5c1.2,0.3,2.3,0.7,3.4,1.2
					l-1.6,4.1c-0.9-0.4-1.8-0.8-2.7-1.1C817.1,716.2,816.2,716,815.3,716z M842.6,726.9c0,1.5-0.2,2.9-0.6,4c-0.4,1.2-1,2.2-1.8,3
					s-1.7,1.4-2.8,1.8c-1.1,0.4-2.3,0.6-3.7,0.6c-1.3,0-2.5-0.2-3.5-0.6c-1.1-0.4-2-1-2.8-1.8s-1.4-1.8-1.8-3
					c-0.4-1.2-0.6-2.5-0.6-4c0-2,0.4-3.7,1.1-5.1c0.7-1.4,1.7-2.5,3.1-3.2c1.3-0.7,2.9-1.1,4.7-1.1c1.7,0,3.2,0.4,4.5,1.1
					c1.3,0.7,2.4,1.8,3.1,3.2C842.2,723.1,842.6,724.8,842.6,726.9z M830,726.9c0,1.2,0.1,2.2,0.4,3c0.3,0.8,0.7,1.4,1.2,1.8
					c0.6,0.4,1.3,0.6,2.2,0.6s1.6-0.2,2.1-0.6c0.6-0.4,1-1,1.2-1.8c0.3-0.8,0.4-1.8,0.4-3s-0.1-2.2-0.4-3c-0.2-0.8-0.7-1.4-1.2-1.8
					c-0.6-0.4-1.3-0.6-2.2-0.6c-1.3,0-2.3,0.5-2.9,1.4C830.3,723.7,830,725.1,830,726.9z M859.4,730.6c0,1.2-0.3,2.3-0.9,3.1
					c-0.6,0.8-1.4,1.5-2.6,1.9c-1.1,0.4-2.6,0.7-4.3,0.7c-1.3,0-2.4-0.1-3.3-0.2c-0.9-0.2-1.8-0.4-2.7-0.8v-4.1c1,0.4,2,0.8,3.2,1.1
					c1.1,0.3,2.1,0.4,3,0.4c1,0,1.6-0.1,2.1-0.4c0.4-0.3,0.6-0.7,0.6-1.1c0-0.3-0.1-0.6-0.3-0.8s-0.5-0.5-1.1-0.8s-1.4-0.7-2.6-1.2
					c-1.1-0.5-2.1-1-2.8-1.4c-0.7-0.5-1.3-1.1-1.6-1.7c-0.4-0.7-0.5-1.5-0.5-2.5c0-1.7,0.7-3,2-3.8c1.3-0.9,3.1-1.3,5.2-1.3
					c1.1,0,2.2,0.1,3.2,0.3s2.1,0.6,3.2,1.1l-1.5,3.6c-0.9-0.4-1.8-0.7-2.6-1c-0.8-0.2-1.6-0.4-2.4-0.4c-0.7,0-1.3,0.1-1.7,0.3
					s-0.5,0.5-0.5,0.9c0,0.3,0.1,0.6,0.3,0.8s0.6,0.5,1.1,0.8c0.6,0.3,1.4,0.6,2.4,1.1c1,0.4,1.9,0.9,2.7,1.3c0.8,0.5,1.3,1,1.8,1.7
					C859.2,728.6,859.4,729.5,859.4,730.6z M870.9,732.4c0.5,0,1.1-0.1,1.6-0.2c0.5-0.1,1-0.3,1.5-0.4v3.7c-0.5,0.2-1.2,0.4-2,0.6
					c-0.8,0.2-1.6,0.2-2.6,0.2c-1.1,0-2.1-0.2-2.9-0.5c-0.9-0.4-1.5-1-2-1.8c-0.5-0.9-0.7-2.1-0.7-3.7v-8.8h-2.4v-2.1l2.7-1.7
					l1.4-3.8h3.2v3.9h5.1v3.7h-5.1v8.8c0,0.7,0.2,1.2,0.6,1.6C869.7,732.2,870.3,732.4,870.9,732.4z"/>
				
					<linearGradient id="SVGID_00000107578283118940050280000004736612591400385690_" gradientUnits="userSpaceOnUse" x1="-2409.9878" y1="1847.2605" x2="-2409.9878" y2="1829.9282" gradientTransform="matrix(17.1903 -17.334 -17.334 -17.1903 74360.1953 -9739.2344)">
					<stop  offset="0" style="stop-color:#FF6F5F;stop-opacity:0"/>
					<stop  offset="1" style="stop-color:#FF6F5F"/>
				</linearGradient>
				<path style="fill-rule:evenodd;clip-rule:evenodd;fill:url(#SVGID_00000107578283118940050280000004736612591400385690_);" d="
					M973.5,498.3c-7.4,26.4-21,52.8-38.9,72.9c52.3,50.6,114,85.3,180,105.3c107.1-152.3,94.9-365.6-41-502.7
					c-9.4-9.5-19.9-17.9-30.3-26.3c-21.1,65.5-56.8,129-109.3,181.9C973.7,373.7,989.3,435.9,973.5,498.3z"/>
				<path class="st1" d="M1138.9,270.3v360.1h-134.4V270.3H1138.9z"/>
				<path class="st3" d="M1066.3,353c-1.4,0-2.6-0.3-3.7-1c-1-0.7-1.8-1.7-2.4-3s-0.8-2.9-0.8-4.8c0-0.8,0.1-1.6,0.2-2.4
					s0.3-1.5,0.5-2.3c0.2-0.7,0.5-1.4,0.8-2h4.7c-0.5,1.1-1,2.3-1.4,3.5s-0.6,2.4-0.6,3.6c0,0.8,0.1,1.5,0.3,2
					c0.2,0.5,0.5,0.9,0.9,1.1s0.8,0.3,1.3,0.3c0.6,0,1.1-0.2,1.5-0.6s0.8-0.9,1.2-1.7c0.4-0.7,0.8-1.5,1.2-2.4
					c0.3-0.6,0.6-1.2,1-1.8c0.4-0.6,0.8-1.3,1.4-1.9c0.5-0.6,1.2-1.1,2-1.4c0.8-0.4,1.7-0.5,2.8-0.5c1.4,0,2.6,0.3,3.6,1
					s1.8,1.6,2.3,2.8c0.5,1.2,0.8,2.6,0.8,4.3c0,1.2-0.1,2.4-0.4,3.5s-0.7,2.3-1.2,3.5l-3.9-1.6c0.4-1.1,0.8-2.1,1-3
					s0.4-1.7,0.4-2.6c0-0.6-0.1-1.2-0.3-1.6c-0.2-0.4-0.5-0.8-0.8-1c-0.4-0.2-0.8-0.3-1.2-0.3c-0.6,0-1,0.2-1.4,0.5
					s-0.8,0.8-1.1,1.5c-0.4,0.7-0.8,1.5-1.2,2.5c-0.6,1.2-1.2,2.2-1.8,3.1s-1.4,1.5-2.2,2C1068.6,352.8,1067.6,353,1066.3,353z
					 M1077.9,373.7h-18.2v-3.8l2.3-0.7v-0.3c-0.6-0.4-1.1-0.9-1.5-1.5s-0.7-1.2-0.9-1.9c-0.2-0.7-0.3-1.4-0.3-2.2
					c0-1.3,0.2-2.4,0.7-3.4s1.2-1.7,2.2-2.2s2.2-0.8,3.8-0.8h11.9v5h-10.6c-1.3,0-2.3,0.2-3,0.7s-1,1.2-1,2.2s0.2,1.8,0.7,2.4
					s1.2,1,2,1.2c0.9,0.2,2,0.4,3.3,0.4h8.5L1077.9,373.7L1077.9,373.7z M1065.1,391.6c-1.2,0-2.3-0.3-3.1-0.9
					c-0.8-0.6-1.5-1.4-1.9-2.6c-0.4-1.1-0.7-2.6-0.7-4.3c0-1.3,0.1-2.4,0.2-3.3c0.2-0.9,0.4-1.8,0.8-2.7h4.1c-0.4,1-0.8,2-1.1,3.2
					c-0.3,1.1-0.4,2.1-0.4,3c0,1,0.1,1.6,0.4,2.1c0.3,0.4,0.7,0.6,1.1,0.6c0.3,0,0.6-0.1,0.8-0.3c0.2-0.2,0.5-0.5,0.8-1.1
					s0.7-1.4,1.2-2.6c0.5-1.1,1-2.1,1.4-2.8c0.5-0.7,1.1-1.3,1.7-1.6c0.7-0.4,1.5-0.5,2.5-0.5c1.7,0,3,0.7,3.8,2
					c0.9,1.3,1.3,3.1,1.3,5.2c0,1.1-0.1,2.2-0.3,3.2c-0.2,1-0.6,2.1-1.1,3.2l-3.6-1.5c0.4-0.9,0.7-1.8,1-2.6
					c0.2-0.8,0.4-1.6,0.4-2.4c0-0.7-0.1-1.3-0.3-1.7c-0.2-0.4-0.5-0.5-0.9-0.5c-0.3,0-0.6,0.1-0.8,0.3c-0.2,0.2-0.5,0.6-0.8,1.1
					c-0.3,0.6-0.6,1.4-1.1,2.4c-0.4,1-0.9,1.9-1.3,2.7c-0.5,0.8-1,1.3-1.7,1.8C1067.1,391.4,1066.2,391.6,1065.1,391.6z
					 M1063.3,403.1c0,0.5,0.1,1.1,0.2,1.6s0.3,1,0.4,1.5h-3.7c-0.2-0.5-0.4-1.2-0.6-2s-0.2-1.6-0.2-2.6c0-1.1,0.2-2.1,0.5-2.9
					c0.4-0.9,1-1.5,1.8-2c0.9-0.5,2.1-0.7,3.7-0.7h8.8v-2.4h2.1l1.7,2.7l3.8,1.4v3.2h-3.9v5.1h-3.7v-5.1h-8.8
					c-0.7,0-1.2,0.2-1.6,0.6C1063.5,401.9,1063.3,402.5,1063.3,403.1z M1078.3,417.4c0,2.4-0.5,4.3-1.6,5.6c-1.1,1.3-2.7,2-4.8,2
					h-12.1v-3.5l2.5-1v-0.1c-0.6-0.5-1.2-1.1-1.6-1.6s-0.7-1.2-0.9-1.9c-0.2-0.7-0.3-1.6-0.3-2.6c0-1.1,0.2-2,0.6-2.9s1.1-1.5,1.9-2
					c0.9-0.5,1.9-0.7,3.2-0.7c1.9,0,3.3,0.7,4.3,2c0.9,1.4,1.4,3.4,1.5,6.1l0.1,3.2h0.8c1,0,1.7-0.2,2.1-0.8
					c0.4-0.5,0.7-1.2,0.7-2.1s-0.1-1.7-0.4-2.6c-0.2-0.8-0.6-1.7-0.9-2.5l3.3-1.6c0.5,1,0.9,2.1,1.2,3.2
					C1078.1,414.8,1078.3,416.1,1078.3,417.4z M1068.1,420l-0.1-1.9c0-1.6-0.3-2.7-0.9-3.3c-0.5-0.6-1.2-0.9-2.1-0.9
					c-0.8,0-1.3,0.2-1.6,0.7c-0.3,0.4-0.5,1-0.5,1.8c0,1.1,0.3,2,0.9,2.7s1.5,1.1,2.7,1.1h1.6V420z M1077.9,435h-18.2v-5h18.2V435z
					 M1085,432.5c0,0.7-0.2,1.4-0.5,1.9s-1,0.8-1.9,0.8s-1.6-0.3-1.9-0.8c-0.4-0.5-0.5-1.2-0.5-1.9c0-0.8,0.2-1.4,0.5-1.9
					c0.4-0.5,1-0.8,1.9-0.8s1.6,0.3,1.9,0.8C1084.9,431.1,1085,431.8,1085,432.5z M1078.2,450.5c0,1.9-0.5,3.5-1.6,4.7
					s-2.7,1.8-5.1,1.8h-11.9v-5h10.6c1.3,0,2.3-0.2,2.9-0.7c0.7-0.5,1-1.2,1-2.2c0-1.5-0.5-2.5-1.5-3.1s-2.5-0.8-4.5-0.8h-8.6v-5
					h18.2v3.8l-2.3,0.7v0.3c0.6,0.4,1.1,0.9,1.5,1.5s0.7,1.2,0.9,1.9C1078.2,449,1078.2,449.8,1078.2,450.5z M1078.3,469.6
					c0,2.4-0.5,4.3-1.6,5.6c-1.1,1.3-2.7,2-4.8,2h-12.1v-3.5l2.5-1v-0.1c-0.6-0.5-1.2-1.1-1.6-1.6s-0.7-1.2-0.9-1.9
					c-0.2-0.7-0.3-1.6-0.3-2.6c0-1.1,0.2-2,0.6-2.9s1.1-1.5,1.9-2c0.9-0.5,1.9-0.7,3.2-0.7c1.9,0,3.3,0.7,4.3,2
					c0.9,1.4,1.4,3.4,1.5,6.1l0.1,3.2h0.8c1,0,1.7-0.2,2.1-0.8c0.4-0.5,0.7-1.2,0.7-2.1s-0.1-1.7-0.4-2.6c-0.2-0.8-0.6-1.7-0.9-2.5
					l3.3-1.6c0.5,1,0.9,2.1,1.2,3.2C1078.1,467,1078.3,468.3,1078.3,469.6z M1068.1,472.2l-0.1-1.9c0-1.6-0.3-2.7-0.9-3.3
					c-0.5-0.6-1.2-0.9-2.1-0.9c-0.8,0-1.3,0.2-1.6,0.7c-0.3,0.4-0.5,1-0.5,1.8c0,1.1,0.3,2,0.9,2.7s1.5,1.1,2.7,1.1h1.6V472.2z
					 M1085,487.2h-5.9c-0.7,0-1.4,0-2-0.1c-0.7,0-1.2-0.1-1.6-0.1v0.2c0.8,0.5,1.4,1.1,1.9,2c0.5,0.8,0.8,1.9,0.8,3.2
					c0,2-0.8,3.7-2.4,5s-3.9,1.9-7,1.9c-2.1,0-3.8-0.3-5.2-0.9c-1.4-0.6-2.5-1.4-3.2-2.5s-1.1-2.3-1.1-3.7c0-1.3,0.2-2.4,0.7-3.2
					c0.5-0.8,1-1.4,1.6-1.9v-0.3l-2-0.8v-3.8h25.3L1085,487.2L1085,487.2z M1074.3,490.8c0-0.9-0.2-1.6-0.5-2.1
					c-0.4-0.5-0.9-0.9-1.6-1.1s-1.6-0.4-2.7-0.4h-0.5c-1.8,0-3.1,0.3-4.1,0.8c-0.9,0.5-1.4,1.5-1.4,2.9c0,1,0.5,1.8,1.4,2.4
					s2.3,0.9,4.1,0.9c1.8,0,3.1-0.3,4-0.9C1073.8,492.6,1074.3,491.8,1074.3,490.8z M1077.9,508.3h-18.2v-5h18.2V508.3z M1085,505.8
					c0,0.7-0.2,1.4-0.5,1.9s-1,0.8-1.9,0.8s-1.6-0.3-1.9-0.8c-0.4-0.5-0.5-1.2-0.5-1.9c0-0.8,0.2-1.4,0.5-1.9c0.4-0.5,1-0.8,1.9-0.8
					s1.6,0.3,1.9,0.8C1084.9,504.4,1085,505.1,1085,505.8z M1059.7,518.5v-5h25.3v5H1059.7z M1077.9,528.6h-18.2v-5h18.2V528.6z
					 M1085,526.2c0,0.7-0.2,1.4-0.5,1.9s-1,0.8-1.9,0.8s-1.6-0.3-1.9-0.8c-0.4-0.5-0.5-1.2-0.5-1.9c0-0.8,0.2-1.4,0.5-1.9
					c0.4-0.5,1-0.8,1.9-0.8s1.6,0.3,1.9,0.8C1084.9,524.8,1085,525.4,1085,526.2z M1063.3,541.5c0,0.5,0.1,1.1,0.2,1.6
					s0.3,1,0.4,1.5h-3.7c-0.2-0.5-0.4-1.2-0.6-2s-0.2-1.6-0.2-2.6c0-1.1,0.2-2.1,0.5-2.9c0.4-0.9,1-1.5,1.8-2
					c0.9-0.5,2.1-0.7,3.7-0.7h8.8V532h2.1l1.7,2.7l3.8,1.4v3.2h-3.9v5.1h-3.7v-5.1h-8.8c-0.7,0-1.2,0.2-1.6,0.6
					C1063.5,540.3,1063.3,540.9,1063.3,541.5z M1077.9,545.7v5.4l-10.2,3.4c-0.3,0.1-0.7,0.2-1,0.3s-0.7,0.2-1,0.2
					c-0.4,0.1-0.7,0.1-1.1,0.1v0.1c0.6,0.1,1.1,0.2,1.6,0.3s1,0.3,1.5,0.4l10.2,3.4v5.3l-20.5-7.7c-1.3-0.5-2.3-1.1-3.1-1.8
					c-0.8-0.8-1.5-1.6-1.9-2.6s-0.6-2-0.6-3.2c0-0.6,0-1.1,0.1-1.5s0.1-0.8,0.2-1h3.9c-0.1,0.2-0.1,0.5-0.1,0.9
					c0,0.3-0.1,0.7-0.1,1.1c0,0.7,0.1,1.3,0.4,1.8s0.7,0.9,1.2,1.2s1,0.6,1.6,0.8l0.9,0.3L1077.9,545.7z"/>
				
					<linearGradient id="SVGID_00000173853978971241406530000013876639739522711482_" gradientUnits="userSpaceOnUse" x1="-2411.9316" y1="1850.2479" x2="-2411.9316" y2="1833.8865" gradientTransform="matrix(16.2278 -16.3635 -16.3635 -16.2278 70062.5 -9387.0098)">
					<stop  offset="0" style="stop-color:#154BF9;stop-opacity:0"/>
					<stop  offset="1" style="stop-color:#154BF9"/>
				</linearGradient>
				<path style="fill-rule:evenodd;clip-rule:evenodd;fill:url(#SVGID_00000173853978971241406530000013876639739522711482_);" d="
					M526.7,175.1c-9.4,9.5-19.9,20.1-28.3,30.6c67.1,21.2,129,58.3,182.5,110.2c42.9-39.1,104.8-56.9,165.6-40
					c28.3,7.4,52.4,21.2,72.4,39.2c50.2-52.8,84.8-115.1,104.6-181.7C872.4,25.4,661.7,38.9,526.7,175.1z"/>
				<path class="st1" d="M621.8,108.9h357.1v135.5H621.8V108.9z"/>
				<path class="st3" d="M767.4,182.1c0,1.4-0.3,2.6-1,3.7c-0.7,1-1.7,1.8-3,2.4c-1.3,0.6-2.9,0.8-4.8,0.8c-0.8,0-1.6-0.1-2.4-0.2
					c-0.8-0.1-1.5-0.3-2.3-0.5c-0.7-0.2-1.4-0.5-2-0.8v-4.7c1.1,0.5,2.3,1,3.5,1.4s2.4,0.6,3.6,0.6c0.8,0,1.5-0.1,2-0.3
					s0.9-0.5,1.1-0.9c0.2-0.4,0.3-0.8,0.3-1.3c0-0.6-0.2-1.1-0.6-1.5c-0.4-0.4-0.9-0.8-1.7-1.2c-0.7-0.4-1.5-0.8-2.4-1.2
					c-0.6-0.3-1.2-0.6-1.8-1s-1.3-0.8-1.9-1.4c-0.6-0.5-1.1-1.2-1.4-2c-0.4-0.8-0.5-1.7-0.5-2.8c0-1.4,0.3-2.6,1-3.6
					s1.6-1.8,2.8-2.3s2.6-0.8,4.3-0.8c1.2,0,2.4,0.1,3.5,0.4c1.1,0.3,2.3,0.7,3.5,1.2l-1.6,3.9c-1.1-0.4-2.1-0.8-3-1
					s-1.7-0.4-2.6-0.4c-0.6,0-1.2,0.1-1.6,0.3c-0.4,0.2-0.8,0.5-1,0.8c-0.2,0.4-0.3,0.8-0.3,1.2c0,0.6,0.2,1,0.5,1.4
					s0.8,0.8,1.5,1.1c0.7,0.4,1.5,0.8,2.5,1.2c1.2,0.6,2.2,1.2,3.1,1.8c0.9,0.6,1.5,1.4,2,2.2C767.2,179.8,767.4,180.8,767.4,182.1z
					 M781.4,170.2c2.1,0,3.7,0.8,5,2.4c1.3,1.6,1.9,3.9,1.9,7c0,2.1-0.3,3.8-0.9,5.2c-0.6,1.4-1.4,2.5-2.5,3.2s-2.3,1.1-3.6,1.1
					c-0.9,0-1.6-0.1-2.3-0.3c-0.6-0.2-1.2-0.5-1.6-0.9c-0.4-0.4-0.8-0.7-1.2-1.1H776c0.1,0.4,0.1,0.9,0.2,1.3c0,0.4,0.1,0.9,0.1,1.3
					v7.3h-5v-26.2h4l0.7,2.4h0.2c0.3-0.5,0.7-0.9,1.2-1.3c0.5-0.4,1-0.7,1.7-1C779.8,170.3,780.6,170.2,781.4,170.2z M779.9,174.1
					c-0.9,0-1.6,0.2-2.1,0.5c-0.5,0.4-0.9,0.9-1.1,1.6c-0.2,0.7-0.4,1.6-0.4,2.7v0.5c0,1.2,0.1,2.2,0.3,3s0.6,1.4,1.1,1.9
					c0.5,0.4,1.3,0.6,2.2,0.6c0.7,0,1.4-0.2,1.9-0.6c0.5-0.4,0.9-1,1.1-1.9c0.2-0.8,0.4-1.8,0.4-3c0-1.8-0.3-3.1-0.8-4
					C781.9,174.6,781,174.1,779.9,174.1z M799.9,170.2c1.7,0,3.1,0.3,4.3,1c1.2,0.6,2.2,1.6,2.8,2.8c0.7,1.2,1,2.7,1,4.5v2.4h-11.7
					c0.1,1.4,0.5,2.5,1.2,3.3c0.8,0.8,1.9,1.2,3.3,1.2c1.2,0,2.2-0.1,3.2-0.3s2-0.6,3-1.1v3.8c-0.9,0.4-1.8,0.8-2.8,1
					s-2.2,0.3-3.6,0.3c-1.8,0-3.4-0.3-4.8-1c-1.4-0.7-2.5-1.7-3.3-3.1c-0.8-1.4-1.2-3.1-1.2-5.2c0-2.1,0.4-3.9,1.1-5.3
					c0.7-1.4,1.7-2.5,3-3.2C796.7,170.5,798.2,170.2,799.9,170.2z M800,173.7c-1,0-1.8,0.3-2.4,0.9c-0.6,0.6-1,1.6-1.1,2.9h7
					c0-0.7-0.1-1.4-0.4-2c-0.2-0.6-0.6-1-1.1-1.4C801.4,173.9,800.7,173.7,800,173.7z M819.6,170.2c1.7,0,3.1,0.3,4.3,1
					c1.2,0.6,2.2,1.6,2.8,2.8c0.7,1.2,1,2.7,1,4.5v2.4H816c0.1,1.4,0.5,2.5,1.2,3.3c0.8,0.8,1.9,1.2,3.3,1.2c1.2,0,2.2-0.1,3.2-0.3
					s2-0.6,3-1.1v3.8c-0.9,0.4-1.8,0.8-2.8,1s-2.2,0.3-3.6,0.3c-1.8,0-3.4-0.3-4.8-1c-1.4-0.7-2.5-1.7-3.3-3.1
					c-0.8-1.4-1.2-3.1-1.2-5.2c0-2.1,0.4-3.9,1.1-5.3c0.7-1.4,1.7-2.5,3-3.2C816.4,170.5,817.9,170.2,819.6,170.2z M819.7,173.7
					c-1,0-1.8,0.3-2.4,0.9c-0.6,0.6-1,1.6-1.1,2.9h7c0-0.7-0.1-1.4-0.4-2c-0.2-0.6-0.6-1-1.1-1.4
					C821.1,173.9,820.4,173.7,819.7,173.7z M837.6,189c-2,0-3.7-0.8-5-2.4c-1.3-1.6-1.9-3.9-1.9-7s0.6-5.5,1.9-7.1
					c1.3-1.6,3-2.4,5.1-2.4c0.9,0,1.6,0.1,2.3,0.4c0.7,0.2,1.2,0.6,1.7,1s0.9,0.8,1.2,1.3h0.2c-0.1-0.4-0.1-0.9-0.2-1.5
					c-0.1-0.7-0.1-1.4-0.1-2.1v-5.8h5v25.3H844l-1-2.4h-0.2c-0.3,0.5-0.7,1-1.2,1.4s-1,0.7-1.7,1C839.2,188.9,838.4,189,837.6,189z
					 M839.3,185.1c1.4,0,2.3-0.4,2.9-1.2c0.6-0.8,0.9-2,0.9-3.7v-0.5c0-1.8-0.3-3.1-0.8-4.1s-1.5-1.4-3-1.4c-1.1,0-2,0.5-2.6,1.4
					s-0.9,2.3-0.9,4.1s0.3,3.1,0.9,4C837.3,184.6,838.2,185.1,839.3,185.1z"/>
				<path class="st1" d="M-347.2,873.9L-347.2,873.9c0-206.5,167.4-373.9,373.9-373.9l0,0c99.2,0,194.3,39.4,264.4,109.5
					s109.5,165.2,109.5,264.4l0,0c0,206.5-167.4,373.9-373.9,373.9l0,0C-179.8,1247.8-347.2,1080.4-347.2,873.9z"/>
				<path class="st9" d="M-347.2,873.9L-347.2,873.9c0-206.5,167.4-373.9,373.9-373.9l0,0c99.2,0,194.3,39.4,264.4,109.5
					s109.5,165.2,109.5,264.4l0,0c0,206.5-167.4,373.9-373.9,373.9l0,0C-179.8,1247.8-347.2,1080.4-347.2,873.9z"/>
				<path class="st1" d="M1343.3,27.8L1343.3,27.8c0-128,103.7-231.7,231.7-231.7l0,0c61.5,0,120.4,24.4,163.8,67.9
					s67.9,102.4,67.9,163.8l0,0c0,128-103.7,231.7-231.7,231.7l0,0C1447.1,259.5,1343.3,155.7,1343.3,27.8z"/>
				<path class="st9" d="M1343.3,27.8L1343.3,27.8c0-128,103.7-231.7,231.7-231.7l0,0c61.5,0,120.4,24.4,163.8,67.9
					s67.9,102.4,67.9,163.8l0,0c0,128-103.7,231.7-231.7,231.7l0,0C1447.1,259.5,1343.3,155.7,1343.3,27.8z"/>
				<path class="st1" d="M-316,873.9L-316,873.9c0-189.3,153.5-342.8,342.8-342.8l0,0c90.9,0,178.1,36.1,242.4,100.4
					S369.5,783,369.5,873.9l0,0c0,189.3-153.5,342.8-342.8,342.8l0,0C-162.6,1216.7-316,1063.2-316,873.9L-316,873.9z"/>
				<path class="st9" d="M-316,873.9L-316,873.9c0-189.3,153.5-342.8,342.8-342.8l0,0c90.9,0,178.1,36.1,242.4,100.4
					S369.5,783,369.5,873.9l0,0c0,189.3-153.5,342.8-342.8,342.8l0,0C-162.6,1216.7-316,1063.2-316,873.9L-316,873.9z"/>
				<path class="st1" d="M702.9,337.5h194.2v180.1H702.9V337.5z"/>
				
					<image style="overflow:visible;enable-background:new    ;" width="1008" height="927" xlink:href="D:\Dropbox\Active Projects\Axiom Group\Other Logos\aleo-logo.png"  transform="matrix(0.1926 0 0 0.1942 702.9209 337.4966)">
				</image>
				<path class="st1" d="M722,520.5h155.9v42H722V520.5z"/>
				<path class="st3" d="M765.9,530.2c2.9,0,5.1,0.6,6.5,1.9c1.4,1.3,2,3,2,5.2c0,1-0.2,2-0.5,2.9s-0.8,1.7-1.5,2.4
					s-1.6,1.3-2.7,1.7c-1.1,0.4-2.5,0.6-4.2,0.6h-2.1v8.1h-4.8v-22.8L765.9,530.2L765.9,530.2z M765.7,534.1h-2.2v6.8h1.6
					c0.9,0,1.7-0.1,2.4-0.4c0.7-0.2,1.2-0.6,1.5-1.1c0.4-0.5,0.5-1.2,0.5-2c0-1.1-0.3-2-0.9-2.5C768,534.4,767,534.1,765.7,534.1z
					 M794.2,544.2c0,1.5-0.2,2.8-0.6,3.9c-0.4,1.1-1,2.1-1.7,2.9c-0.7,0.8-1.6,1.4-2.7,1.8c-1,0.4-2.2,0.6-3.5,0.6
					c-1.2,0-2.4-0.2-3.4-0.6c-1-0.4-1.9-1-2.7-1.8c-0.7-0.8-1.3-1.7-1.8-2.9c-0.4-1.1-0.6-2.4-0.6-3.9c0-1.9,0.3-3.6,1-4.9
					c0.7-1.3,1.7-2.4,2.9-3.1c1.3-0.7,2.8-1,4.5-1c1.6,0,3.1,0.3,4.3,1c1.3,0.7,2.3,1.7,3,3.1C793.9,540.7,794.2,542.3,794.2,544.2z
					 M782.2,544.2c0,1.1,0.1,2.1,0.4,2.9c0.3,0.8,0.6,1.4,1.2,1.8c0.5,0.4,1.2,0.6,2.1,0.6c0.8,0,1.5-0.2,2-0.6
					c0.5-0.4,0.9-1,1.2-1.8s0.4-1.7,0.4-2.9s-0.1-2.1-0.4-2.9c-0.2-0.8-0.6-1.3-1.2-1.7c-0.5-0.4-1.2-0.6-2.1-0.6
					c-1.3,0-2.2,0.4-2.8,1.3C782.4,541.2,782.2,542.5,782.2,544.2z M812,546.7c0,1.4-0.3,2.5-1,3.5s-1.6,1.8-2.9,2.3
					c-1.2,0.5-2.8,0.8-4.6,0.8c-0.8,0-1.6-0.1-2.3-0.2c-0.7-0.1-1.5-0.3-2.2-0.5s-1.3-0.5-2-0.8v-4.5c1.1,0.5,2.2,0.9,3.4,1.3
					c1.2,0.4,2.3,0.6,3.5,0.6c0.8,0,1.4-0.1,1.9-0.3s0.8-0.5,1.1-0.9c0.2-0.4,0.3-0.8,0.3-1.2c0-0.6-0.2-1.1-0.6-1.5
					c-0.4-0.4-0.9-0.8-1.6-1.1c-0.7-0.4-1.4-0.7-2.3-1.1c-0.5-0.2-1.1-0.6-1.7-0.9c-0.6-0.4-1.2-0.8-1.8-1.3s-1-1.2-1.4-1.9
					c-0.4-0.8-0.5-1.6-0.5-2.7c0-1.4,0.3-2.5,0.9-3.5c0.6-1,1.5-1.7,2.7-2.2s2.5-0.8,4.1-0.8c1.2,0,2.3,0.1,3.4,0.4
					c1.1,0.3,2.2,0.7,3.4,1.2l-1.6,3.8c-1.1-0.4-2-0.8-2.8-1s-1.7-0.4-2.5-0.4c-0.6,0-1.1,0.1-1.5,0.3s-0.7,0.5-1,0.8
					c-0.2,0.3-0.3,0.7-0.3,1.2s0.2,1,0.5,1.4s0.8,0.7,1.4,1.1c0.6,0.3,1.4,0.7,2.4,1.2c1.2,0.6,2.2,1.1,3,1.7
					c0.8,0.6,1.5,1.3,1.9,2.1C811.8,544.5,812,545.5,812,546.7z M844.2,530.2l-5.8,22.8h-5.5l-3.1-12c-0.1-0.2-0.1-0.6-0.2-1
					c-0.1-0.5-0.2-1-0.3-1.5c-0.1-0.6-0.2-1.1-0.3-1.6s-0.1-0.9-0.2-1.2c0,0.3-0.1,0.7-0.2,1.2c-0.1,0.5-0.2,1-0.3,1.6
					s-0.2,1.1-0.3,1.5c-0.1,0.5-0.2,0.8-0.2,1.1l-3.1,12h-5.5l-5.8-22.8h4.8l2.9,12.5c0.1,0.4,0.2,0.8,0.3,1.3s0.2,1.1,0.3,1.6
					c0.1,0.6,0.2,1.1,0.3,1.6s0.2,1,0.2,1.4c0.1-0.4,0.1-0.9,0.2-1.4c0.1-0.5,0.2-1.1,0.3-1.6c0.1-0.6,0.2-1.1,0.3-1.5
					c0.1-0.5,0.2-0.8,0.3-1.1l3.3-12.8h4.6l3.3,12.8c0.1,0.3,0.2,0.7,0.2,1.1c0.1,0.5,0.2,1,0.3,1.5c0.1,0.6,0.2,1.1,0.3,1.6
					s0.2,1,0.2,1.4c0.1-0.5,0.2-1.2,0.3-1.9c0.1-0.8,0.3-1.5,0.4-2.2c0.2-0.7,0.3-1.4,0.4-1.9l2.9-12.5L844.2,530.2L844.2,530.2z"/>
			</g>
		</g>
	</g>
</g>
</svg>
